<svg viewBox="0 0 31.3 22.9" xmlns="http://www.w3.org/2000/svg"><switch><g><path d="m15.7 22.9c-6.3 0-11.5-5.1-11.5-11.5s5.2-11.4 11.5-11.4 11.5 5.1 11.5 11.5-5.1 11.4-11.5 11.4zm0-22.2c-5.9 0-10.7 4.8-10.7 10.8s4.8 10.8 10.8 10.8 10.8-4.8 10.8-10.8-4.9-10.8-10.9-10.8zm-12.9 19.5c-.1 0-.2-.1-.3-.2-1.6-2.5-2.5-5.5-2.5-8.5 0-3.2 1-6.3 2.8-8.9.1-.2.3-.2.5-.1.1.1.2.3.1.5-1.7 2.5-2.7 5.4-2.7 8.5 0 2.9.8 5.7 2.4 8.2.1.1.1.3-.1.4 0 0-.1.1-.2.1zm25.7 0c-.1 0-.1 0-.2-.1-.2-.1-.2-.3-.1-.5 1.6-2.4 2.4-5.2 2.4-8.2 0-3.1-.9-6-2.7-8.5-.1-.2-.1-.4.1-.5s.4-.1.5.1c1.8 2.6 2.8 5.7 2.8 8.9 0 3-.9 6-2.5 8.5-.1.2-.2.3-.3.3z" fill="#231f20"/><path d="m13.5 14.8c-.3.2-.8.1-1-.4l-.3-.8h-3l-.4.8c-.2.4-.7.5-1 .4-.4-.2-.6-.6-.4-1l2.5-5.7c.1-.2.2-.3.4-.4s.4-.1.6 0 .3.2.4.4l2.5 5.7c.2.4 0 .8-.3 1zm-2.1-2.7-.8-1.8-.8 1.8zm7.8.6c0 1.2-1 2.2-2.2 2.2h-1.5c-.4 0-.8-.4-.8-.8v-5.6c0-.4.4-.8.8-.8h1.3c1.2 0 2.2 1 2.2 2.2 0 .5-.2.9-.4 1.3.3.4.6.9.6 1.5zm-3-2.2h.5c.4 0 .6-.3.6-.6s-.3-.6-.6-.6h-.5zm1.4 2.2c0-.4-.3-.6-.6-.6h-.7v1.3h.7c.3 0 .6-.3.6-.7zm5.9 1.5c-.9 1-2.4 1-3.3.4-.4-.2-.4-.7-.2-1.1.1-.2.4-.3.6-.3.3 0 .5.2.8.3.4.1.7.1 1-.2.3-.4.2-.9-.2-1.1s-1.1-.3-1.6-.8c-.4-.4-.6-.9-.6-1.5 0-.8.4-1.4 1.1-1.8s1.6-.4 2.4 0c.4.2.5.7.3 1.1s-.6.4-1.1.3c-.6-.2-1.2.2-1 .7.2.4.9.5 1.3.7.7.4 1.2 1.1 1.2 1.8-.1.4-.3 1-.7 1.5z"/></g></switch></svg>