<svg enable-background="new 0 0 26.1 28.8" viewBox="0 0 26.1 28.8" xmlns="http://www.w3.org/2000/svg"><switch><g fill="#231f20"><path d="m6.2 12.5c-3.4 0-6.2-2.8-6.2-6.3s2.8-6.2 6.2-6.2 6.2 2.8 6.2 6.2-2.7 6.3-6.2 6.3zm0-11.8c-3 0-5.5 2.5-5.5 5.5s2.5 5.5 5.5 5.5 5.5-2.5 5.5-5.5-2.4-5.5-5.5-5.5z"/><path d="m18 9c-1.3 0-2.3-1-2.3-2.3s1-2.3 2.3-2.3 2.3 1 2.3 2.3c0 1.2-1 2.3-2.3 2.3zm0-3.9c-.9 0-1.6.7-1.6 1.6s.7 1.6 1.6 1.6 1.6-.7 1.6-1.6-.7-1.6-1.6-1.6z"/><path d="m24.3 26.8c-.1 0-.2 0-.2-.1l-10.7-10.8c-.1-.1-.1-.4 0-.5s.4-.1.5 0l10.7 10.8c.1.1.1.4 0 .5s-.2.1-.3.1z"/><path d="m7.5 28.8c-.3-.1-.4-.3-.3-.4l1.9-6.7c.2-.8 1-1.4 1.8-1.4h4.7c.4 0 .7-.3.7-.7v-.8c0-.2.2-.3.3-.3s.3.2.3.3v.8c0 .8-.6 1.4-1.4 1.4h-4.5c-.5 0-1 .4-1.2.9l-1.9 6.7c-.1.1-.2.2-.4.2z"/><path d="m18.8 17.5c-.3-.1-.4-.2-.3-.4l1.1-5c.1-.2 0-.5-.1-.7s-.4-.3-.6-.3h-1.9c-.3 0-.6.2-.7.5l-.9 2.5c-.1.2-.3.3-.4.2-.2-.1-.3-.3-.2-.4l.9-2.5c.2-.6.8-1 1.4-1h1.9c.5 0 .9.2 1.2.6s.4.8.3 1.2l-1.1 5c-.3.2-.4.3-.6.3z"/><path d="m22 9.9c-.1 0-.2 0-.3-.1s-.1-.4 0-.5l3.8-3.3c.1-.1.4-.1.5 0s.1.4 0 .5l-3.8 3.3c-.1.1-.2.1-.2.1z"/></g></switch></svg>