<svg enable-background="new 0 0 38.5 35.7" viewBox="0 0 38.5 35.7" xmlns="http://www.w3.org/2000/svg"><switch><g fill="#231f20"><path d="m29.9 7.2c-.2 0-.3-.2-.3-.3v-6.6c0-.2.2-.3.3-.3s.3.2.3.3v6.5c.1.3-.1.4-.3.4z"/><path d="m29.9 4c-.1 0-.2 0-.2-.1l-2.8-2.8c-.1-.1-.1-.4 0-.5s.4-.1.5 0l2.8 2.8c.1.1.1.4 0 .5-.1 0-.2.1-.3.1z"/><path d="m29.9 4c-.1 0-.2 0-.2-.1-.1-.1-.1-.4 0-.5l2.8-2.8c.1-.1.4-.1.5 0s.1.4 0 .5l-2.8 2.8c-.1 0-.2.1-.3.1z"/><path d="m28.5 7.9c-.1 0-.1 0-.2-.1l-5.3-3.8c-.2-.1-.2-.3-.1-.5s.3-.2.5-.1l5.3 3.9c.2.1.2.3.1.5-.1.1-.2.1-.3.1z"/><path d="m22 6.6c-.2 0-.3-.1-.3-.3s.1-.4.3-.4l3.9-.6c.2 0 .4.1.4.3s-.2.4-.4.4z"/><path d="m25.9 6c-.2 0-.3-.1-.3-.3l-.6-3.9c0-.2.1-.4.3-.4s.4.1.4.3l.6 3.9c0 .2-.2.4-.4.4z"/><path d="m31.3 7.9c-.1 0-.2 0-.3-.1-.1-.2-.1-.4.1-.5l5.3-3.9c.2-.1.4-.1.5.1s.1.4-.1.5l-5.3 3.9c-.1 0-.1 0-.2 0z"/><path d="m37.8 6.6-3.9-.6c-.2 0-.3-.2-.3-.4s.2-.3.4-.3l3.9.6c.2 0 .3.2.3.4-.1.2-.2.3-.4.3z"/><path d="m33.9 6c-.2 0-.4-.2-.3-.4l.6-3.9c0-.2.2-.3.4-.3s.3.2.3.4l-.6 3.9c-.1.2-.2.3-.4.3z"/><path d="m29.9 17c-.2 0-.3-.2-.3-.3v-6.5c0-.2.2-.3.3-.3s.3.2.3.3v6.5c.1.2-.1.3-.3.3z"/><path d="m27.1 16.5c-.1 0-.2 0-.2-.1-.1-.1-.1-.4 0-.5l2.8-2.8c.1-.1.4-.1.5 0s.1.4 0 .5l-2.8 2.8c-.1.1-.2.1-.3.1z"/><path d="m32.7 16.5c-.1 0-.2 0-.2-.1l-2.8-2.8c-.1-.1-.1-.4 0-.5s.4-.1.5 0l2.8 2.8c.1.1.1.4 0 .5s-.2.1-.3.1z"/><path d="m23.2 13.7c-.1 0-.2 0-.3-.1-.1-.2-.1-.4.1-.5l5.3-3.9c.2-.1.4-.1.5.1s.1.4-.1.5l-5.3 3.9s-.1 0-.2 0z"/><path d="m25.9 11.7-3.9-.6c-.2 0-.3-.2-.3-.4s.2-.3.4-.3l3.9.6c.2 0 .3.2.3.4-.1.2-.3.3-.4.3z"/><path d="m25.3 15.6c-.2 0-.4-.2-.3-.4l.6-3.9c0-.2.2-.3.4-.3s.3.2.3.4l-.6 3.9c-.1.2-.2.3-.4.3z"/><path d="m36.5 13.7c-.1 0-.1 0-.2-.1l-5.3-3.9c-.2-.1-.2-.3-.1-.5s.3-.2.5-.1l5.3 3.9c.2.1.2.3.1.5 0 .1-.2.2-.3.2z"/><path d="m33.9 11.7c-.2 0-.3-.1-.3-.3s.1-.4.3-.4l3.9-.6c.2 0 .4.1.4.3s-.1.4-.3.4z"/><path d="m34.5 15.6c-.2 0-.3-.1-.3-.3l-.6-3.9c0-.2.1-.4.3-.4s.4.1.4.3l.6 3.9c0 .2-.2.4-.4.4z"/><path d="m29.9 10.5c-1.1 0-2-.9-2-2s.9-2 2-2 2 .9 2 2-.9 2-2 2zm0-3.3c-.7 0-1.3.6-1.3 1.3s.6 1.3 1.3 1.3 1.3-.6 1.3-1.3-.6-1.3-1.3-1.3z"/><path d="m1.7 35.7c-.9 0-1.3-.8-1.4-1.2v-3.4s-.4-3.1-.3-7.5c.1-4.1 3.6-5.3 4.5-5.6.4-1.1 2.3-6 3.9-7 1.7-1 9.8-1.2 10.7-1.2.2 0 .4.2.4.3 0 .2-.2.4-.3.4-2.4 0-9.1.3-10.4 1.1s-3.1 5.2-3.6 6.9c0 .1-.1.2-.3.2s-4 .9-4.1 5c-.2 4.3.2 7.3.2 7.4v3.4s.1.6.7.6h5.1s.5-.1.5-1.2c0-.2.1-.3.3-.3.1 0 7.4-.7 11.5-.7.2 0 .4.2.4.3s-.2.3-.4.3c-3.5 0-9.6.5-11.1.6-.1 1.5-1.1 1.6-1.1 1.6z"/><path d="m36.8 35.7h-5.1c-.1 0-1-.1-1.2-1.6-1.5-.1-7.9-.6-11.4-.6-.2 0-.4-.2-.4-.3s.2-.3.4-.3c4 0 11.7.6 11.8.7.2 0 .3.2.3.3 0 1.1.5 1.2.5 1.2h5.1c.6 0 .7-.6.7-.7v-3.3c0-.1.4-3.1.3-7.5-.1-4.1-4.1-5-4.1-5-.2 0-.3-.2-.3-.4s.2-.3.4-.3c0 0 4.6 1 4.7 5.6.1 4.4-.3 7.5-.3 7.5v3.3c-.1.6-.5 1.4-1.4 1.4z"/><path d="m8.4 18.8c-.1 0-.2-.1-.3-.2s-.1-.2 0-.3 1.7-3.7 2.4-4.5c.7-.9 6.5-1.1 9-1.2.2 0 .4.1.4.3s-.1.4-.3.4c-3.7.1-8 .5-8.5.9-.5.6-1.5 2.8-2 3.8 1.5-.1 5.7-.3 10.7-.3h3.9c.2 0 .3.2.3.4s-.2.3-.3.3c-1.2 0-2.5 0-3.9 0-6.3.1-11.3.4-11.4.4z"/><path d="m7.1 28.5c-1.7 0-3-1.4-3-3 0-1.7 1.4-3 3-3s3 1.4 3 3c.1 1.6-1.3 3-3 3zm0-5.4c-1.3 0-2.3 1-2.3 2.3s1 2.3 2.3 2.3 2.3-1 2.3-2.3-1-2.3-2.3-2.3z"/><path d="m30.9 28.5c-1.7 0-3-1.4-3-3 0-1.7 1.4-3 3-3s3 1.4 3 3-1.3 3-3 3zm0-5.4c-1.3 0-2.3 1-2.3 2.3s1 2.3 2.3 2.3 2.3-1 2.3-2.3-1-2.3-2.3-2.3z"/></g></switch></svg>