<svg height="417.2" viewBox="0 0 290.4 417.2" width="290.4" xmlns="http://www.w3.org/2000/svg"><g fill="#737171"><path d="m57.4 183.8h68v-68h-68zm6.1-61.9h46.6c5.1 0 9.2 4.1 9.2 9.2v46.6h-55.8z"/><path d="m162.1 198.7v68h68v-68zm61.9 62h-55.8v-55.8h44.9c6.1 0 11 4.9 11 11v44.8z"/><path d="m125.4 349.7v-68h-68v68zm-61.9-61.9h44.9c6.1 0 11 4.9 11 11v44.9h-55.9z"/><path d="m112 132.6c-1.4-.9-3.3-.5-4.2.9l-18.9 28.5-14.3-14.3c-1.2-1.2-3.1-1.2-4.3 0s-1.2 3.1 0 4.3l19.6 19.6 23-34.8c.9-1.4.5-3.3-.9-4.2z"/><path d="m84.3 71.9c11 0 19.8-8.9 19.8-19.8v-32.3c0-11-8.9-19.8-19.8-19.8-11 0-19.8 8.9-19.8 19.8v32.2c-.1 11 8.8 19.9 19.8 19.9z"/><path d="m145.2 71.9c11 0 19.8-8.9 19.8-19.8v-32.3c0-11-8.9-19.8-19.8-19.8-11 0-19.8 8.9-19.8 19.8v32.2c0 11 8.9 19.9 19.8 19.9z"/><path d="m117.9 52.1v-18.7h-6.4v18.6c0 1.3-.2 2.5-.4 3.7h7.1c0-1.2-.3-2.4-.3-3.6z"/><path d="m240.3 33.4h-6.9v18.6c0 1.3-.2 2.5-.4 3.7h7.2c15.3 0 27.8 12.5 27.8 27.8v283.5c0 15.3-12.5 27.8-27.8 27.8h-190.1c-15.3 0-27.8-12.5-27.8-27.8v-283.4c0-15.3 12.5-27.8 27.8-27.8h7.2c-.2-1.2-.4-2.4-.4-3.7v-18.7h-6.9c-27.6 0-50 22.5-50 50.2v283.5c0 27.7 22.4 50.1 50.1 50.1h190.2c27.7 0 50.1-22.4 50.1-50.1v-283.5c0-27.7-22.4-50.2-50.1-50.2z"/><path d="m178.9 52.1v-18.7h-6.4v18.6c0 1.3-.2 2.5-.4 3.7h7.1c-.1-1.2-.3-2.4-.3-3.6z"/><path d="m206.2 71.9c11 0 19.8-8.9 19.8-19.8v-32.3c0-11-8.9-19.8-19.8-19.8-11 0-19.8 8.9-19.8 19.8v32.2c-.1 11 8.8 19.9 19.8 19.9z"/><path d="m145.2 115.8h93v16.1h-93z"/><path d="m145.2 149.8h93v9.9h-93z"/><path d="m145.2 171.6h93v9.9h-93z"/><path d="m52.2 199.9h93v16.1h-93z"/><path d="m52.2 233.9h93v9.9h-93z"/><path d="m52.2 255.7h93v9.9h-93z"/><path d="m139.8 282.8h93v16.1h-93z"/><path d="m139.8 316.9h93v9.9h-93z"/><path d="m139.8 338.6h93v9.9h-93z"/></g></svg>