<svg viewBox="0 0 28.1 28.1" xmlns="http://www.w3.org/2000/svg"><switch><g fill="#231f20"><path d="m14 28.1c-7.7 0-14-6.3-14-14s6.3-14.1 14-14.1 14 6.3 14 14-6.2 14.1-14 14.1zm0-27.4c-7.3 0-13.3 6-13.3 13.3s6 13.3 13.3 13.3 13.3-6 13.3-13.3-5.9-13.3-13.3-13.3z"/><path d="m9 23.4c-.1 0-.1 0 0 0-.3-.1-.4-.3-.3-.4l2.3-7.8-2.6-2.6c-.1-.1-.1-.2-.1-.4l2.7-7.3c.1-.2.3-.3.4-.2.2.1.3.3.2.4l-2.6 7.2 2.5 2.5c.1.1.1.2.1.3l-2.3 8c0 .2-.2.3-.3.3zm4 0c-.3-.1-.4-.3-.3-.4l2.3-7.8-2.6-2.6c-.1-.1-.1-.2-.1-.4l2.7-7.3c.1-.2.3-.3.4-.2.2.1.3.3.2.4l-2.6 7.2 2.5 2.5c.1.1.1.2.1.3l-2.3 8c0 .2-.1.3-.3.3zm4.1 0s-.1 0 0 0c-.3-.1-.4-.3-.3-.4l2.3-7.8-2.6-2.6c-.1-.1-.1-.2-.1-.4l2.7-7.4c.1-.2.3-.3.4-.2.2.1.3.3.2.4l-2.6 7.2 2.5 2.5c.1.1.1.2.1.3l-2.3 8c0 .3-.1.4-.3.4z"/></g></switch></svg>