<svg enable-background="new 0 0 36.5 28.3" viewBox="0 0 36.5 28.3" xmlns="http://www.w3.org/2000/svg"><switch><g><path d="m15.2 28.3c-5 0-9.3-2.6-10.3-6.2-2.9-.9-5-3.6-5-6.7 0-3.2 2.2-6 5.2-6.8.4-3 3-5.3 6.1-5.3 1.1 0 2.3.3 3.2.9 1.8-2.6 4.8-4.2 7.9-4.2 4.8 0 8.7 3.7 9.1 8.4 3 .9 5.1 3.6 5.1 6.8 0 3.1-2.1 5.9-5.1 6.8-.1 3.1-2.6 5.5-5.7 5.5-1.3 0-2.5-.4-3.5-1.2-1.8 1.3-4.3 2-7 2zm-3.8-24.2c-2.9 0-5.2 2.1-5.5 4.9 0 .1-.1.3-.3.3-2.9.6-4.9 3.2-4.9 6.1 0 2.8 1.9 5.3 4.7 6.1.1 0 .2.1.2.3.8 3.4 4.9 5.8 9.6 5.8 2.6 0 5-.7 6.9-2.1.1-.1.3-.1.4 0 .9.8 2 1.2 3.2 1.2 2.8 0 5-2.3 5-5 0-.2.1-.3.3-.4 2.8-.7 4.8-3.3 4.8-6.2s-2-5.5-4.8-6.2c-.1 0-.3-.2-.3-.3-.3-4.5-4-8-8.4-8-3 0-5.8 1.6-7.3 4.3 0 .1-.1.1-.2.2-.1 0-.2 0-.3-.1-.9-.6-2-.9-3.1-.9z" fill="#231f20"/><path d="m11.9 19.8c-2.6 0-4.7-2.1-4.7-4.7s2.1-4.7 4.7-4.7c1 0 2 .3 2.9 1 .4.3.5 1 .2 1.4s-1 .5-1.4.2c-.5-.4-1.1-.6-1.7-.6-1.5 0-2.7 1.2-2.7 2.7s1.2 2.7 2.7 2.7c.6 0 1.2-.2 1.6-.6.5-.3 1.1-.2 1.4.2s.3 1.1-.2 1.4c-.8.7-1.8 1-2.8 1z"/><path d="m25.4 15.1c0 2.6-2.1 4.7-4.7 4.7s-4.7-2.1-4.7-4.7 2.1-4.7 4.7-4.7 4.7 2.1 4.7 4.7zm-7.4 0c0 1.5 1.2 2.7 2.7 2.7s2.7-1.2 2.7-2.7-1.2-2.7-2.7-2.7-2.7 1.2-2.7 2.7z"/><path d="m29.4 14.5c0 .3-.2.5-.5.5h-2c-.4 0-.7-.5-.4-.8l1.7-2c.2-.2.2-.6-.1-.8-.2-.2-.6-.2-.8.1-.2.2-.5.2-.7.1-.2-.2-.2-.5-.1-.7.5-.6 1.5-.8 2.1-.2.7.5.8 1.4.2 2.1l-1 1.2h1c.3 0 .6.3.6.5z"/></g></switch></svg>