<svg enable-background="new 0 0 46.7 17.5" viewBox="0 0 46.7 17.5" xmlns="http://www.w3.org/2000/svg"><switch><g fill="#231f20"><path d="m37.5 17.5c-1.9 0-3.5-1.6-3.5-3.5s1.6-3.5 3.5-3.5 3.5 1.6 3.5 3.5-1.5 3.5-3.5 3.5zm0-6.6c-1.7 0-3 1.4-3 3s1.4 3 3 3 3-1.4 3-3-1.3-3-3-3z"/><path d="m8.4 17.5c-1.9 0-3.5-1.6-3.5-3.5s1.6-3.5 3.5-3.5 3.6 1.5 3.6 3.4-1.6 3.6-3.6 3.6zm0-6.6c-1.7 0-3 1.4-3 3s1.4 3 3 3 3-1.4 3-3-1.3-3-3-3z"/><path d="m37.5 16.5c-1.4 0-2.6-1.2-2.6-2.6s1.2-2.6 2.6-2.6 2.6 1.2 2.6 2.6-1.1 2.6-2.6 2.6zm0-4.7c-1.2 0-2.1.9-2.1 2.1s.9 2.1 2.1 2.1 2.1-.9 2.1-2.1-.9-2.1-2.1-2.1z"/><path d="m33.4 12.3h-20.6c-.1 0-.3-.1-.3-.3s.1-.3.3-.3h20.6c.1 0 .3.1.3.3s-.2.3-.3.3z"/><path d="m44.7 10.4c-1 0-2.9-.1-3.1-.8-.2-.8.5-1.8.6-1.9s.2-.1.3-.1 2.4 1.1 2.7 2.5v.2c-.2.1-.3.1-.5.1zm-2.2-2.3c-.2.3-.5.9-.4 1.3.1.2 1.2.4 2.5.4-.4-.7-1.5-1.4-2.1-1.7z"/><path d="m35.6 6.7h-26.9c-.1 0-.2 0-.2-.1s-.1-.1 0-.2l1.5-4.6c0-.1.1-.2.2-.2 19.5-1.7 25.4 4.4 25.6 4.7.1.1.1.2 0 .3 0 .1-.1.1-.2.1zm-26.5-.5h25.9c-1.7-1.4-8.4-5.5-24.5-4.1z"/><path d="m16.4 6.7c-.2 0-.3-.2-.2-.3l.8-4.9c0-.1.2-.2.3-.2s.2.2.2.3l-.9 4.9c0 .1-.1.2-.2.2z"/><path d="m24.7 6.7c-.2 0-.3-.1-.2-.3l.5-4.2c0-.1.1-.2.3-.2.1 0 .2.1.2.3l-.5 4.2c-.1.1-.2.2-.3.2z"/><path d="m2.7 10.8h-2.2c-.1 0-.3-.1-.3-.3s.1-.3.3-.3h2.3c.2 0 .3-.1.3-.3v-1.5c0-.2-.1-.3-.3-.3h-1.5c-.1 0-.2-.1-.2-.3s.1-.3.3-.3h1.4c.4 0 .8.4.8.8v1.5c-.1.6-.4 1-.9 1z"/><path d="m8.4 16.5c-1.4 0-2.6-1.2-2.6-2.6s1.2-2.6 2.6-2.6 2.6 1.2 2.6 2.6-1.1 2.6-2.6 2.6zm0-4.7c-1.2 0-2.1.9-2.1 2.1s1 2.1 2.1 2.1 2.1-.9 2.1-2.1-.9-2.1-2.1-2.1z"/><path d="m18.6 7.8h-1.6c-.1 0-.3-.1-.3-.3s.1-.3.3-.3h1.6c.1 0 .3.1.3.3s-.1.3-.3.3z"/><path d="m27.3 7.8h-1.6c-.1 0-.3-.1-.3-.3s.1-.3.3-.3h1.6c.1 0 .3.1.3.3s-.2.3-.3.3z"/><path d="m44.7 13.3c-.1 0-.3-.1-.3-.3v-.8c0-.1 0-.1 0-.2l.5-.7c.1-.1.2-.1.4 0 .1.1.1.2 0 .4l-.3.7v.6c0 .2-.1.3-.3.3z"/><path d="m43.9 14.2h-3.1c-.1 0-.3-.1-.3-.3 0-1.7-1.4-3-3-3s-3 1.4-3 3c0 .1-.1.3-.3.3h-22.5c-.1 0-.3-.1-.3-.3 0-1.7-1.4-3-3-3s-3 1.4-3 3c0 .1-.1.3-.3.3h-3.6c-.1 0-.1 0-.2-.1-.1-.2-1.3-1.6-1.3-2.6v-.7-.1s.4-1.2.9-1.7v-1.1c0-.1-.2-.7-.2-1.1 0-.6 1.4-2.9 3-4.5 0 0 .3-.3.1-1 0-.1 0-.1 0-.2s.1-.2.2-.2c1-.2 24.2-3.6 33.1 4.4.9.1 8.2 1.2 9 4.7.2.1.4.3.5.9s.1 1.4-.1 1.7c0 0-.1.1-.1.1-.1.1-.2.3-.2.5.2.2.2.4.1.6-.3.2-1.3.4-2.4.4zm-2.8-.5h2.8c.9 0 1.6-.2 1.8-.3-.1-.1-.1-.1-.1-.2 0-.4.3-.9.4-.9 0 0 .1-.1.1-.1.1-.1.1-.7 0-1.2s-.3-.6-.3-.6c-.1 0-.1-.1-.2-.2-.6-3.4-8.5-4.4-8.6-4.5-.1 0-.1 0-.1-.1-8.3-7.4-29.9-4.6-32.6-4.3.2.9-.2 1.3-.3 1.3-1.6 1.6-2.8 3.8-2.8 4.2s.2 1 .2 1v.1 1.3c0 .1 0 .1-.1.2-.3.2-.7 1.1-.8 1.5v.6c0 .6.8 1.7 1.1 2.2h3.3c.1-1.8 1.7-3.3 3.5-3.3s3.4 1.5 3.5 3.3h22.1c.1-1.8 1.7-3.3 3.5-3.3s3.4 1.4 3.6 3.3z"/></g></switch></svg>