<svg enable-background="new 0 0 261.019 261.019" height="512" viewBox="0 0 261.019 261.019" width="512" xmlns="http://www.w3.org/2000/svg"><path d="m226.216 91.365c-.087 0-.174.035-.261.035-2.784-49.854-44.982-90.521-95.445-90.521s-92.663 40.667-95.446 90.521c-.087 0-.174-.035-.261-.035-19.142 0-34.803 15.661-34.803 34.803v34.802c0 19.141 15.661 34.802 34.802 34.802s34.802-15.661 34.802-34.802v-34.802c0-12.773-7.047-23.857-17.366-29.913.191-43.346 34.89-77.975 78.27-77.975s78.079 34.628 78.27 77.975c-10.319 6.055-17.366 17.157-17.366 29.913v34.802c0 13.399 7.761 24.971 18.933 30.765-9.605 11.798-28.451 30.261-53.857 33.167-3.88-9.693-13.503-16.966-24.24-16.966-13.921 0-26.102 12.181-26.102 26.102s12.181 26.102 26.102 26.102c12.424 0 21.473-7.709 24.71-17.836 38.926-3.585 64.002-34.698 72.754-46.896 17.488-1.792 31.305-16.496 31.305-34.437v-34.802c.001-19.143-15.66-34.804-34.801-34.804zm-174.012 69.605c0 10.441-6.96 17.401-17.401 17.401s-17.401-6.96-17.401-17.401v-34.802c0-10.441 6.96-17.401 17.401-17.401s17.401 6.96 17.401 17.401zm80.045 81.786c-5.22 0-8.701-3.48-8.701-8.701 0-5.22 3.48-8.701 8.701-8.701 5.22 0 8.701 3.48 8.701 8.701 0 5.22-3.481 8.701-8.701 8.701zm111.368-81.786c0 10.441-6.96 17.401-17.401 17.401s-17.401-6.96-17.401-17.401v-34.802c0-10.441 6.96-17.401 17.401-17.401s17.401 6.96 17.401 17.401z" fill="#fff"/></svg>