<svg enable-background="new 0 0 33.7 24.4" viewBox="0 0 33.7 24.4" xmlns="http://www.w3.org/2000/svg" xmlns:xlink="http://www.w3.org/1999/xlink"><clipPath id="a"><path d="m-51.1 53.7h27.9v27.9h-27.9z"/></clipPath><switch><g><path d="m8.3 24.4c-4.5 0-8.3-3.8-8.3-8.3 0-4.4 7.7-15.5 8-16 .2-.1.5-.1.6 0 .3.5 8 11.6 8 16 0 4.5-3.8 8.3-8.3 8.3zm0-23.4c-1.4 2.1-7.6 11.4-7.6 15.1 0 4.1 3.5 7.6 7.6 7.6s7.6-3.5 7.6-7.6c0-3.7-6.2-13-7.6-15.1z" fill="#231f20"/><path d="m3.4 17.2s.4 2 2.6 3.1" fill="#fff"/><g fill="#231f20"><path d="m6 20.7c-.1 0-.1 0-.2 0-2.3-1.1-2.8-3.2-2.8-3.3 0-.2.1-.4.3-.4s.4.1.4.3c0 0 .4 1.9 2.4 2.8.2.1.2.3.2.5-.1 0-.2.1-.3.1z"/><path d="m26.6 15.4c-3.9 0-7.1-3.2-7.1-7.1v-3.8c0-.2.2-.3.3-.3h13.5c.2 0 .3.2.3.3v3.8c.1 3.9-3 7.1-7 7.1zm-6.3-10.5v3.4c0 3.5 2.9 6.4 6.4 6.4s6.3-2.9 6.3-6.4v-3.4z"/><path d="m26.6 23.9c-.2 0-.3-.2-.3-.3v-8.6c0-.2.2-.3.3-.3s.4.1.4.3v8.5c0 .2-.2.4-.4.4z"/><path d="m23.3 4.9c-.2 0-.3-.2-.3-.3v-4c0-.2.2-.3.3-.3s.3.2.3.3v3.9c0 .2-.1.4-.3.4z"/><path d="m29.8 4.9c-.2 0-.3-.2-.3-.3v-4c0-.2.2-.3.3-.3s.3.2.3.3v3.9c0 .2-.1.4-.3.4z"/></g><g clip-path="url(#a)"><path d="m-21.1 22.6 29 29" fill="#fff"/><path d="m7.9 51.9c-.1 0-.2 0-.2-.1l-29-29c-.1-.1-.1-.4 0-.5s.4-.1.5 0l29 29c.1.1.1.4 0 .5-.2.1-.3.1-.3.1z" fill="#231f20"/></g></g></switch></svg>