<svg viewBox="0 0 31.3 22.9" xmlns="http://www.w3.org/2000/svg"><switch><g><path d="m15.7 22.9c-6.3 0-11.5-5.1-11.5-11.5s5.2-11.4 11.5-11.4 11.5 5.1 11.5 11.5-5.1 11.4-11.5 11.4zm0-22.2c-5.9 0-10.7 4.8-10.7 10.8s4.8 10.8 10.8 10.8 10.8-4.8 10.8-10.8-4.9-10.8-10.9-10.8zm-12.9 19.5c-.1 0-.2-.1-.3-.2-1.6-2.5-2.5-5.5-2.5-8.5 0-3.2 1-6.3 2.8-8.9.1-.2.3-.2.5-.1.1.1.2.3.1.5-1.7 2.5-2.7 5.4-2.7 8.5 0 2.9.8 5.7 2.4 8.2.1.1.1.3-.1.4 0 0-.1.1-.2.1zm25.7 0c-.1 0-.1 0-.2-.1-.2-.1-.2-.3-.1-.5 1.6-2.4 2.4-5.2 2.4-8.2 0-3.1-.9-6-2.7-8.5-.1-.2-.1-.4.1-.5s.4-.1.5.1c1.8 2.6 2.8 5.7 2.8 8.9 0 3-.9 6-2.5 8.5-.1.2-.2.3-.3.3z" fill="#231f20"/><path d="m12.8 14.4c0 .4-.4.8-.8.8h-2.5c-.4 0-.8-.4-.8-.8v-5.8c0-.4.4-.8.8-.8h2.5c.4 0 .8.4.8.8 0 .5-.4.8-.8.8h-1.7v1.4h1.6c.4 0 .7.3.7.7s-.3.7-.7.7h-1.6v1.4h1.7c.4 0 .8.4.8.8zm4.4 0c-1 1.1-2.4 1-3.5.4-.4-.2-.5-.7-.2-1.1.1-.2.4-.3.6-.4.3 0 .5.2.8.3.4.1.8.1 1-.2.3-.4.2-.9-.2-1.1s-1.1-.3-1.6-.8c-.4-.4-.6-1-.6-1.5 0-.8.4-1.5 1.1-1.9s1.7-.4 2.4 0c.4.2.5.8.3 1.1-.2.4-.7.5-1.2.3-.6-.3-1.3.2-1.1.7.2.4 1 .5 1.4.7.7.4 1.2 1.1 1.3 1.9.2.5 0 1.1-.5 1.6zm6.1-4.3c0 1.3-1 2.3-2.3 2.3h-.8v2c0 .4-.4.8-.8.8-.5 0-.8-.4-.8-.8v-5.8c0-.4.4-.8.8-.8h1.6c1.2 0 2.3 1 2.3 2.3zm-1.6 0c0-.4-.3-.7-.7-.7h-.8v1.4h.8c.4 0 .7-.3.7-.7z"/></g></switch></svg>