<svg viewBox="0 0 29 30.4" xmlns="http://www.w3.org/2000/svg"><switch><g fill="#231f20"><path d="m20.9 15.3c-.2 0-.3-.1-.3-.3-.3-1.4-.9-2.7-1.8-3.8-1-1.2-2.2-2.2-3.7-2.8-.1-.1-.2-.3-.1-.5s.3-.3.5-.2c1.6.6 2.9 1.7 4 3 1 1.2 1.6 2.6 1.9 4.1-.1.3-.2.4-.5.5.1 0 .1 0 0 0zm4 1.7c-.2 0-.4-.2-.3-.4.1-2.7-.9-5.7-2.7-8-1.7-2.2-4.2-3.7-7-4.3-.2 0-.3-.2-.3-.4s.2-.3.4-.3c2.9.6 5.5 2.2 7.4 4.5 1.9 2.4 3 5.6 2.8 8.4 0 .3-.1.5-.3.5z"/><path d="m28.2 18.8c-.3-.1-.4-.3-.3-.4 1.1-4.3.2-8.8-2.6-12.3-2.7-3.4-6.8-5.4-11.1-5.4h-.2c-.2 0-.3-.2-.3-.3 0-.2.2-.4.3-.4h.2c4.6 0 8.8 2.1 11.7 5.7 2.9 3.7 3.9 8.4 2.7 12.9-.1.1-.2.2-.4.2zm-9.7 11.6c-.9 0-1.9-.1-2.9-.4-2-.6-3.9-1.6-5.8-3.2-3.1-2.6-5.7-5.6-7.7-9.1-1.1-1.9-1.7-3.7-2-5.5-.1-.4-.1-.7-.1-1v-.4c.1-3.2 1.2-5.6 3.5-7.4.2-.2.4-.4.6-.5l.3-.2c1.1-1 2.3-1 3.4.1.8.7 1.3 1.6 1.8 2.4.4.7.8 1.4 1.2 2.2.5 1.1.4 2.1-.1 2.9-.2.3-.4.5-.6.7-.6.5-1.2 1-1.7 1.3-.9.6-1.1 1.4-.7 2.5.3.8.7 1.5 1.3 2.4 1.3 1.8 2.6 3.2 3.9 4.3.6.5 1.2.8 1.7 1 .8.2 1.4.1 2-.5.5-.5 1-.9 1.5-1.4 1-.9 2.2-1.1 3.5-.5.9.4 1.6 1 2.3 1.6l.4.3c.7.6 1.3 1.1 1.8 1.9.3.5.7 1.1.5 1.8-.1.5-.3.8-.5 1l-.3.3c-.9.9-1.8 1.8-3 2.4-1.3.6-2.8 1-4.3 1zm-17.8-19.6v.4c0 .3 0 .6.1 1 .3 1.8.9 3.5 1.9 5.3 1.9 3.3 4.5 6.3 7.6 8.9 1.8 1.5 3.6 2.5 5.5 3 2.5.7 4.7.5 6.7-.6 1.1-.6 1.9-1.4 2.8-2.3l.3-.3c.1-.1.3-.4.3-.7.1-.4 0-.8-.4-1.3-.5-.7-1.1-1.2-1.7-1.7l-.4-.3c-.6-.6-1.3-1.1-2.1-1.5-1.1-.5-2-.3-2.8.4-.5.4-1 .9-1.5 1.4-.8.8-1.7 1-2.7.7-.6-.2-1.3-.6-2-1.1-1.4-1.1-2.7-2.5-4.1-4.4-.5-1-.9-1.8-1.2-2.7-.5-1.4-.2-2.5 1-3.3.5-.4 1-.8 1.6-1.3.2-.2.3-.4.5-.6.4-.7.4-1.4.1-2.3l-1.2-2.1c-.5-.7-1-1.5-1.7-2.2-.8-.8-1.6-.8-2.5 0l-.2.2c-.2.2-.4.4-.7.6-2.1 1.6-3.1 3.9-3.2 6.8z"/><path d="m2.2 13.1c-.2 0-.3-.1-.3-.3-.8-5.8 3.3-8.3 3.4-8.3.2-.1.4 0 .5.1.1.2 0 .4-.1.5-.2.1-3.8 2.3-3.1 7.6 0 .2-.2.4-.4.4z"/></g></switch></svg>