<svg viewBox="0 0 31.3 29.5" xmlns="http://www.w3.org/2000/svg"><switch><g fill="#231f20"><path d="m27.9 29.5h-24.6c-.1 0-.2-.1-.3-.2-.1-.2-3-5.2-3-8.1 0-1.2.5-2.1 1.3-2.8 2.6-1.9 9-1.4 18.9 1.6.2-2.3 1.3-12.8 7.3-19.4.6-.7 1.7-.8 2.4-.3s1.1 1 1.2 1.4v.2c0 .1-3.2 13.6-3 27.2 0 .1 0 .2-.1.3 0 .1 0 .1-.1.1zm-24.4-.7h24c-.1-12.9 2.8-25.7 3-26.9-.1-.3-.4-.6-.9-1-.5-.3-1.1-.2-1.5.2-6.6 7.2-7.2 19.3-7.2 19.4s-.1.2-.1.3c-.1.1-.2.1-.3 0-12.4-3.7-17-3-18.7-1.8-.7.5-1.1 1.3-1.1 2.2 0 2.5 2.3 6.7 2.8 7.6z"/><path d="m17.4 15.4c-.1 0-.2 0-.2-.1 0 0-1.1-1.1-1.1-4 0-1.5.5-2.5.9-3.5.5-1 .9-2 .9-3.5 0-.2.2-.3.3-.3s.3.2.3.3c0 1.6-.5 2.7-1 3.8-.4 1-.9 1.9-.9 3.2 0 2.6.9 3.5.9 3.5.1.1.1.4 0 .5.1.1 0 .1-.1.1z"/><path d="m20.3 6.5c-.1 0-.2-.1-.3-.1l-1.8-2.5-2.3 2.6c-.1.1-.4.2-.5 0-.1-.1-.2-.4 0-.5l2.6-3c.1-.1.2-.1.3-.1s.2.1.3.1l2 2.9c.1.2.1.4-.1.5-.1.1-.2.1-.2.1zm-9.2 8.9c-.1 0-.2 0-.2-.1 0 0-1.1-1.1-1.1-4 0-1.5.5-2.5.9-3.5.5-1 .9-2 .9-3.5 0-.2.2-.3.3-.3s.3.2.3.3c0 1.6-.5 2.7-1 3.8-.4 1-.9 1.9-.9 3.2 0 2.6.9 3.5.9 3.5.1.1.1.4 0 .5.1.1 0 .1-.1.1z"/><path d="m14 6.5c-.1 0-.2-.1-.3-.1l-1.8-2.5-2.3 2.5c-.1.1-.4.2-.5 0-.1-.1-.1-.4 0-.5l2.6-2.9c.1-.1.2-.1.3-.1s.2.1.3.1l2 2.9c.1.2.1.4-.1.5-.1.1-.1.1-.2.1zm-9.4 8.9c-.1 0-.2 0-.2-.1 0 0-1.1-1.1-1.1-4 0-1.5.5-2.5.9-3.5.5-1 .9-2 .9-3.5 0-.2.2-.3.3-.3s.3.2.3.3c0 1.6-.5 2.7-1 3.8-.3.9-.8 1.9-.8 3.2 0 2.6.9 3.5.9 3.5.1.1.1.4 0 .5 0 .1-.1.1-.2.1z"/><path d="m7.5 6.5c-.1 0-.2-.1-.3-.1l-1.8-2.6-2.3 2.6c-.1.1-.4.1-.5 0s-.2-.4 0-.5l2.6-2.9c.1-.1.2-.1.3-.1s.2.1.3.1l2 2.9c.1.2.1.4-.1.5-.1.1-.2.1-.2.1z"/></g></switch></svg>