<svg enable-background="new 0 0 34.5 17.8" viewBox="0 0 34.5 17.8" xmlns="http://www.w3.org/2000/svg"><switch><g><g fill="#231f20"><path d="m34.2 3.7h-12.8c-.2 0-.3-.2-.3-.3s.1-.4.3-.4h12.8c.2 0 .3.2.3.3s-.2.4-.3.4z"/><path d="m34.2 8.7h-12.8c-.2 0-.3-.2-.3-.3s.1-.4.3-.4h12.8c.2 0 .3.2.3.3s-.2.4-.3.4z"/><path d="m34.2 13.6h-12.8c-.2 0-.3-.2-.3-.3s.2-.3.3-.3h12.8c.2 0 .3.2.3.3s-.2.3-.3.3z"/></g><path d="m15.5 16.6c-.1 0-.3 0-.5 0s-.3-.2-.3-.4.2-.3.4-.3c.6.1.6.1.8-.5.8-2.3 1.1-4.6 1.1-7.6 0-2.1-.4-4.4-1.1-6.7-.2-.5-.2-.5-.7-.4l-.6.1c-.8.2-1.7.3-2.5.5-2.6.8-4.5 1.8-5.9 3.3-1.6 1.7-2.1 3.3-1.5 5.1.1.2 0 .4-.2.4-.2.1-.4 0-.4-.2-.8-2-.2-3.9 1.6-5.8 1.5-1.6 3.5-2.7 6.2-3.4.8-.2 1.7-.4 2.6-.5l.6-.1c.9-.2 1.2 0 1.5.9.8 2.3 1.2 4.8 1.2 6.9 0 3-.4 5.4-1.2 7.8-.3.7-.5.9-1.1.9z"/><path d="m2.7 17.8h-2c-.4 0-.6-.3-.6-.7v-4.7c0-.4.3-.7.6-.7.4 0 .7.3.7.7v4.1h1.4c.4 0 .7.3.7.7-.2.3-.4.6-.8.6z"/><path d="m7.2 17.1c0 .4-.3.6-.6.6h-2c-.4 0-.7-.3-.7-.6v-4.8c0-.4.3-.6.7-.6h2c.4 0 .6.3.6.6 0 .4-.3.7-.6.7h-1.4v1.1h1.3c.3 0 .6.3.6.6s-.3.6-.6.6h-1.3v1.1h1.4c.3.1.6.3.6.7z"/><path d="m12.9 14.7c0 1.7-1.4 3-3 3h-1.4c-.4 0-.6-.3-.6-.7v-4.7c0-.4.3-.7.7-.7h1.3c1.6.1 3 1.5 3 3.1zm-1.3 0c0-.9-.8-1.7-1.7-1.7h-.7v3.4h.7c.9.1 1.7-.7 1.7-1.7z"/></g></switch></svg>