<svg enable-background="new 0 0 23 29.5" viewBox="0 0 23 29.5" xmlns="http://www.w3.org/2000/svg"><switch><g><g fill="#231f20"><path d="m19.4 25.5c-.2 0-.3-.2-.3-.3v-22.8c0-.9-.8-1.7-1.7-1.7h-12.1c-.9 0-1.7.8-1.7 1.7v22.7c0 .2-.2.3-.3.3s-.3-.2-.3-.3v-22.7c-.1-1.3 1-2.4 2.3-2.4h12.1c1.3 0 2.4 1.1 2.4 2.4v22.7c-.1.2-.2.4-.4.4z"/><path d="m22.7 29.5h-22.4c-.2 0-.3-.2-.3-.3v-4c0-.2.2-.3.3-.3h22.3c.2 0 .3.2.3.3v4c.1.1 0 .3-.2.3zm-22-.7h21.6v-3.3h-21.6z"/><path d="m16.9 7.7h-10.9c-.2 0-.3-.2-.3-.3v-4c-.1-.2.1-.4.3-.4h10.9c.2 0 .3.2.3.3v4c0 .3-.1.4-.3.4zm-10.6-.7h10.2v-3.3h-10.2z"/></g><path d="m7.6 18.9h-1.7c-.3 0-.6-.3-.6-.6v-4.1c0-.3.3-.6.6-.6s.6.3.6.6v3.6h1.2c.3 0 .6.3.6.6-.1.2-.3.5-.7.5z"/><path d="m12 15.2c0 .9-.7 1.6-1.6 1.6h-.6v1.4c0 .3-.3.6-.6.6s-.6-.3-.6-.6v-4.1c0-.3.2-.6.6-.6h1.1c.9.1 1.7.8 1.7 1.7zm-1.2 0c0-.3-.2-.5-.5-.5h-.5v1h.5c.3 0 .5-.2.5-.5z"/><path d="m17.5 16.4c0 .7-.3 1.3-.8 1.8s-1.1.8-1.8.8-1.4-.3-1.9-.8-.7-1.2-.7-1.9c0-1.5 1.2-2.7 2.7-2.7.4 0 .9.1 1.3.3.3.2.4.5.2.8-.1.3-.5.4-.8.2-.2-.1-.5-.2-.7-.2-.8 0-1.5.7-1.5 1.5 0 .4.1.8.4 1.1s.6.4 1.1.4c.7 0 1.2-.4 1.4-1h-1.4c-.3 0-.5-.2-.5-.5s.2-.5.5-.5h2c.3.1.6.3.5.7z"/></g></switch></svg>