<svg enable-background="new 0 0 44 19.8" viewBox="0 0 44 19.8" xmlns="http://www.w3.org/2000/svg"><switch><g fill="#231f20"><path d="m7.8 19.8c-2 0-3.6-1.6-3.6-3.6s1.6-3.6 3.6-3.6 3.6 1.6 3.6 3.6c.1 2-1.6 3.6-3.6 3.6zm0-6.8c-1.7 0-3.1 1.4-3.1 3.1s1.4 3.1 3.1 3.1 3.1-1.4 3.1-3.1c.1-1.6-1.3-3.1-3.1-3.1z"/><path d="m34.4 19.8c-2 0-3.6-1.6-3.6-3.6s1.6-3.6 3.6-3.6 3.6 1.6 3.6 3.6-1.6 3.6-3.6 3.6zm0-6.8c-1.7 0-3.1 1.4-3.1 3.1s1.4 3.1 3.1 3.1 3.1-1.4 3.1-3.1c0-1.6-1.4-3.1-3.1-3.1z"/><path d="m42.2 10.7h-4.1c-.1 0-.3-.1-.3-.3v-2c0-.2.1-.3.3-.3 2.8 0 4.2 2.1 4.3 2.2s.1.2 0 .3c0 .1-.1.1-.2.1zm-3.8-.5h3.3c-.5-.5-1.6-1.5-3.3-1.6z"/><path d="m14 9.1h-1.6c-.1 0-.3-.1-.3-.3s.1-.3.3-.3h1.6c.1 0 .3.1.3.3s-.1.3-.3.3z"/><path d="m24.5 9.1h-1.6c-.1 0-.3-.1-.3-.3s.1-.3.3-.3h1.6c.1 0 .3.1.3.3s-.2.3-.3.3z"/><path d="m1 10.5c-.1 0-.2-.1-.2-.2s.1-.3.2-.3c.8-.1 1.4-.8 1.7-1.2h-2.4c-.2 0-.3-.1-.3-.2s.1-.3.3-.3h2.9c.1 0 .2 0 .2.1v.2c-.1.1-1 1.7-2.4 1.9z"/><path d="m31.6 7.7h-9.4l-10.2-.5-7-1.4c-.1 0-.1-.1-.2-.1 0-.1 0-.1 0-.2l1.1-3.5c0-.1.1-.2.2-.2.6 0 13.7-1 18.7.8.3.1 5.5 1.8 7 4.7v.2c0 .1-.1.2-.2.2zm-26.2-2.4 6.6 1.4 10.2.5h8.9c-1.6-2.6-6.5-4.1-6.5-4.1-4.5-1.7-16.7-1-18.2-.9z"/><path d="m12 7.2c-.2 0-.3-.2-.2-.3l.9-5.2c0-.1.2-.2.3-.2s.2.2.2.3l-1 5.2c0 .1-.1.2-.2.2z"/><path d="m21.9 7.7c-.1 0-.3-.1-.3-.3v-4.9c0-.1.1-.3.3-.3s.3.1.3.3v4.9c0 .2-.1.3-.3.3z"/><path d="m7.8 18.1c-1 0-1.9-.9-1.9-1.9s.9-1.9 1.9-1.9 1.9.9 1.9 1.9-.8 1.9-1.9 1.9zm0-3.3c-.8 0-1.4.6-1.4 1.4s.6 1.4 1.4 1.4 1.4-.6 1.4-1.4-.6-1.4-1.4-1.4z"/><path d="m34.4 18.1c-1 0-1.9-.9-1.9-1.9s.9-1.9 1.9-1.9 1.9.9 1.9 1.9-.9 1.9-1.9 1.9zm0-3.3c-.8 0-1.4.6-1.4 1.4s.6 1.4 1.4 1.4 1.4-.6 1.4-1.4-.6-1.4-1.4-1.4z"/><path d="m30 14h-17.6c-.1 0-.3-.1-.3-.3s.1-.3.3-.3h17.6c.1 0 .3.1.3.3s-.1.3-.3.3z"/><path d="m4.1 14h-2.4c-.1 0-.3-.1-.3-.3s.1-.3.3-.3h2.4c.1 0 .3.1.3.3s-.2.3-.3.3z"/><path d="m42.2 14h-3.5c-.1 0-.3-.1-.3-.3s.1-.3.3-.3h3.5c.1 0 .3.1.3.3s-.1.3-.3.3z"/><path d="m37.7 16.8h-.3v-.4c0-.1 0-.1 0-.2 0-1.7-1.4-3.1-3.1-3.1s-3.1 1.4-3.1 3.1v.2.4h-17l-3.3-.2v-.2-.1c0-1.8-1.4-3.2-3.1-3.2-1.6 0-3 1.3-3.1 2.9v.3l-3.5-.4c-.7-.2-1.2-.7-1.2-1.4v-8.5c.4-1.5 1.9-4.3 2.5-5.4.2-.4.6-.6 1-.6 1.6 0 10 0 16.8.2 7.2.3 14.6 5.8 15.4 6.4.7.1 5.2.6 6.9 2.3 1.9 1.9 1.3 6.8 1.3 7v.1l-.1.1c-1.1.6-3.6.7-3.7.7zm-26.2-.7 2.8.2h16.5v-.1c0-2 1.6-3.6 3.6-3.6s3.6 1.6 3.6 3.6v.1h2.1s2.3-.1 3.3-.6c.1-.8.3-4.9-1.2-6.5-1.7-1.7-6.6-2.2-6.7-2.2h-.1-.1c-.1-.1-7.7-6-15.1-6.3-6.7-.2-15.1-.2-16.7-.2-.2 0-.4.1-.5.3-.6 1.1-2.1 3.9-2.5 5.3v8.4c0 .4.3.7.7.8l3 .4c.3-1.8 1.8-3.1 3.6-3.1 2-.1 3.6 1.5 3.7 3.5z"/></g></switch></svg>