<svg enable-background="new 0 0 40.3 31.2" viewBox="0 0 40.3 31.2" xmlns="http://www.w3.org/2000/svg"><switch><g fill="#231f20"><path d="m14.6 25.8h-4.9c-.6 0-1-.5-1-1v-1.4c0-.3.1-.6.4-.8s.6-.3.9-.2l4.9 1.4c.4.1.7.5.7 1s-.5 1-1 1zm-4.9-2.8c-.1 0-.1 0-.2.1s-.1.2-.1.3v1.4c0 .2.1.3.3.3h4.9c.2 0 .3-.1.3-.3 0-.1-.1-.3-.2-.3z"/><path d="m30.4 25.8h-4.9c-.6 0-1-.5-1-1s.3-.9.7-1l4.9-1.4c.3-.1.6 0 .9.2s.4.5.4.8v1.4c0 .5-.4 1-1 1zm0-2.8-5 1.4c-.1 0-.2.2-.2.3 0 .2.1.3.3.3h4.9c.2 0 .3-.1.3-.3v-1.4c0-.1 0-.2-.1-.3-.1 0-.1 0-.2 0z"/><path d="m7.8 31.2c-.7 0-1-.6-1.1-1v-2.4s-.3-2.2-.2-5.3c.1-2.9 2.5-3.8 3.2-4 .3-.9 1.6-4.3 2.7-5 1.2-.8 7-.8 7.6-.8.2 0 .3.2.3.3 0 .2-.2.4-.3.4-2.5 0-6.4.2-7.2.7-.9.5-2.1 3.6-2.5 4.8l-.1.2h-.2c-.1 0-2.8.6-2.8 3.4-.1 3 .2 5.2.2 5.2v2.4s.1.3.4.3h3.6s.2-.2.2-.8v-.3h.3c.1 0 5.2-.5 8.1-.5.2 0 .3.2.3.3s-.2.3-.3.3c-2.4 0-6.6.3-7.7.4-.1 1.1-.8 1.1-.9 1.1z"/><path d="m32.5 31.2h-3.6c-.1 0-.8-.1-.9-1.1-1.2-.1-5.6-.4-8-.4-.2 0-.3-.2-.3-.3s.1-.4.3-.4c2.8 0 8.3.5 8.3.5h.3v.3c0 .6.2.7.3.8h3.6c.3 0 .4-.4.4-.4v-2.3c0-.1.3-2.2.2-5.3-.1-2.8-2.7-3.4-2.8-3.4h-.2l-.1-.2c-.4-1.1-1.6-4.2-2.5-4.8-.8-.5-4.9-.7-7.5-.7-.2 0-.3-.2-.3-.4s.2-.3.3-.3c.7 0 6.6.1 7.9.8 1.1.7 2.4 4.1 2.7 5 .7.2 3.1 1.1 3.2 4 .1 3.1-.2 5.2-.2 5.3v2.3c-.1.4-.4 1-1.1 1z"/><path d="m28.9 19.4h-.6s-3.5-.2-7.9-.2-7.9.2-7.9.2h-.6l.3-.5c.1-.3 1.2-2.6 1.7-3.2s4.2-.8 6.4-.9c2.3.1 6.2.2 6.7.9.5.6 1.6 2.9 1.7 3.2zm-8.6-3.9c-2.5.1-5.5.3-5.9.6-.3.3-.9 1.7-1.3 2.5 1.2-.1 4-.2 7.3-.2s6.2.1 7.3.2c-.4-.9-1.1-2.2-1.4-2.5-.2-.3-3.3-.6-6-.6z"/><path d="m20 8.5c-.2 0-.3-.2-.3-.3v-7.9c0-.1.1-.3.3-.3s.3.2.3.3v7.8c.1.3-.1.4-.3.4z"/><path d="m14.9 9.3c-.2 0-.3-.1-.3-.3l-2.2-7.5c-.1-.2.1-.4.2-.4.2-.1.4 0 .5.2l2.2 7.5c0 .2-.1.4-.4.5z"/><path d="m10.1 11.4c-.1 0-.2-.1-.3-.2l-4.1-6.6c-.1-.2-.1-.4.1-.5s.4-.1.5.1l4.2 6.6c.1.2.1.4-.1.5-.1.1-.2.1-.3.1z"/><path d="m6.2 14.7c-.1 0-.2 0-.2-.1l-5.9-5.2c-.1-.1-.1-.3 0-.5.1-.1.3-.2.5 0l5.8 5.2c.1.1.2.4 0 .5 0 .1-.1.1-.2.1z"/><path d="m25.4 9.3c-.3-.1-.4-.3-.3-.5l2.2-7.5c.1-.2.2-.3.4-.2s.3.2.2.4l-2.2 7.5c0 .2-.2.3-.3.3z"/><path d="m30.1 11.4c-.1 0-.1 0-.2-.1-.2-.1-.2-.3-.1-.5l4.2-6.6c.1-.2.3-.2.5-.1s.2.3.1.5l-4.2 6.6c0 .1-.1.2-.3.2z"/><path d="m34.1 14.7c-.1 0-.2 0-.3-.1s-.1-.4 0-.5l5.8-5.2c.1-.1.4-.1.5 0s.1.4 0 .5l-5.8 5.2c0 .1-.1.1-.2.1z"/></g></switch></svg>