<svg height="363.7" viewBox="0 0 400 363.7" width="400" xmlns="http://www.w3.org/2000/svg"><g fill="#fff"><path d="m182.7 293.8c-19.3 0-34.9 15.6-34.9 34.9s15.6 34.9 34.9 34.9 34.9-15.6 34.9-34.9c0-19.2-15.6-34.9-34.9-34.9z"/><path d="m309.8 293.8c-19.3 0-34.9 15.6-34.9 34.9s15.6 34.9 34.9 34.9 34.9-15.6 34.9-34.9c0-19.2-15.6-34.9-34.9-34.9z"/><path d="m137.1 277.5.6-.2h-.6z"/><path d="m347.3 221.3c.5-.5.9-1 1.2-1.6.1-.2.2-.3.3-.5.4-.7.7-1.4.9-2.2l49-126.1c3.1-7.8.4-16.8-6.5-21.6-4.6-3.2-10-5-15.6-5h-267l-14.3-52.6c-2-6.7-8.2-11.3-15.3-11.4l-65-.3c-8.5 0-15 4.8-15 12.5s6.6 15.6 15.1 15.5l57.3 1.4 65.5 247.8h210c10.3 0 18.7-5.9 18.7-13.2s-8.4-13.2-18.7-13.2h-188.3l-6.8-25.1h184c4.3.1 8.1-1.7 10.5-4.4zm-200.8-18.9-2.3-8.4c-.4-1.6-1-3-1.7-4.4l-27.2-99h258.4l-43.4 111.7h-183.8z"/></g></svg>