<svg enable-background="new 0 0 22 32.4" viewBox="0 0 22 32.4" xmlns="http://www.w3.org/2000/svg"><switch><g><path d="m11 32.4c-6 0-11-5-11-11 0-5.7 10.3-20.6 10.7-21.3.1-.2.4-.2.6 0 .4.7 10.7 15.6 10.7 21.4 0 5.9-5 10.9-11 10.9zm0-31.4c-1.7 2.5-10.3 15.4-10.3 20.5 0 5.5 4.7 10.2 10.3 10.2s10.3-4.7 10.3-10.2c0-5.1-8.6-18-10.3-20.5z" fill="#231f20"/><path d="m7.9 27.4c-.1 0-.1 0-.2 0-3-1.5-3.6-4.2-3.7-4.3 0-.2.1-.4.3-.4s.4.1.4.3c0 0 .6 2.5 3.3 3.9.2.1.2.3.2.5 0 0-.2 0-.3 0z" fill="#231f20"/><path d="m12.3 18.6v.9c0 .8-.6 1.4-1.4 1.4s-1.5-.7-1.5-1.4v-1.5c0-.5 0-.9.2-1.3.3-.4.7-.7 1.2-.7.7 0 1.2-.5 1.2-1.2 0-1.3-1.9-1.6-2.3-.5-.3.7-1.2 1.1-1.9.8s-1.1-1.2-.8-1.9c.7-1.5 2.1-2.5 3.8-2.5 2.2 0 4.1 1.8 4.1 4.1.1 1.7-1 3.2-2.6 3.8z"/><path d="m12.3 23.3c0 .8-.6 1.4-1.4 1.4s-1.4-.6-1.4-1.4.6-1.5 1.4-1.5 1.4.7 1.4 1.5z"/></g></switch></svg>