<svg enable-background="new 0 0 25.2 23.3" viewBox="0 0 25.2 23.3" xmlns="http://www.w3.org/2000/svg"><switch><g fill="#231f20"><path d="m12.5 15c-4.2 0-7.5-3.3-7.5-7.5 0-4.1 3.3-7.5 7.5-7.5 4.1 0 7.5 3.4 7.5 7.5 0 4.2-3.4 7.5-7.5 7.5zm0-14.3c-3.8 0-6.8 3.1-6.8 6.8 0 3.8 3.1 6.8 6.8 6.8 3.8 0 6.8-3.1 6.8-6.8s-3.1-6.8-6.8-6.8z"/><path d="m.3 23.3h-.1c-.2-.1-.2-.3-.2-.5 2-5.1 6.9-8.4 12.5-8.4 6.1 0 10.9 3.2 12.7 8.5.1.2 0 .4-.2.4-.2.1-.4 0-.4-.2-1.7-4.9-6.3-8-12-8-5.2 0-9.9 3.1-11.8 8-.2.1-.3.2-.5.2z"/></g></switch></svg>