<svg viewBox="0 0 37.8 27.1" xmlns="http://www.w3.org/2000/svg"><switch><g fill="#231f20"><path d="m9.8 20.2c-.1 0-.2-.1-.3-.2-.8-1.5-1.3-3.1-1.3-4.8 0-1.6.3-3 1-4.4.1-.2.3-.2.5-.2.2.1.2.3.2.5-.6 1.3-1 2.7-1 4.1 0 1.6.4 3.1 1.2 4.5.1.2 0 .4-.1.5zm-2.3 3.4c-.1 0-.2 0-.3-.1-1.9-2.3-3-5.1-3-8.1 0-3.1 1.1-6.2 3-8.4.1-.1.3-.2.5 0 .1.1.2.3 0 .5-1.7 2-2.7 5-2.7 7.9 0 2.8 1 5.5 2.8 7.7.1.1.1.4 0 .5z"/><path d="m6.1 27.1c-.1 0-.1 0-.2-.1-3.8-2.8-5.9-7.1-5.9-11.8s2.1-9 5.9-11.8c.1-.1.3-.1.4.1.2.1.1.3 0 .5-3.5 2.7-5.6 6.8-5.6 11.3s2 8.6 5.6 11.3c.2.1.2.3.1.5zm30.1-16.9h-10.3c-.1 0-.3-.1-.3-.2v-.4l4.8-6.4c.1-.1.2-.1.3-.1l5.6-.2c.1 0 .2 0 .3.1s.1.2.1.3v6.6c-.1.1-.3.3-.5.3zm-9.6-.7h9.3v-5.9l-5.1.1zm-.2 18.3c-3.1 0-5.6-2.5-5.6-5.6s2.5-5.6 5.6-5.6 5.6 2.5 5.6 5.6-2.5 5.6-5.6 5.6zm0-10.5c-2.7 0-4.9 2.2-4.9 4.9s2.2 4.9 4.9 4.9 4.9-2.2 4.9-4.9-2.2-4.9-4.9-4.9z"/><path d="m37.4 21.6h-5.8c-.2 0-.3-.1-.3-.3-.4-2.4-2.4-4.1-4.8-4.1s-4.4 1.7-4.8 4.1c0 .2-.2.3-.3.3h-6c-.2 0-.3-.1-.3-.3-.2-1-1.5-9.5.8-10.8 1.9-1.1 5.2-1.4 6-1.4.7-.9 5.3-6.2 6.6-7.7 1.3-1.6 8.1-1.4 8.9-1.4.2 0 .3.2.3.4s-.2.3-.4.3c-2-.1-7.5 0-8.6 1.2-1.4 1.5-6.6 7.7-6.7 7.8s-.2.1-.3.1c0 0-3.8.2-5.8 1.3-1.4.8-1.1 6.3-.5 9.8h5.6c.6-2.5 2.8-4.4 5.4-4.4s4.9 1.8 5.4 4.4h5.5c.2 0 .3.2.3.3s0 .4-.2.4z"/></g></switch></svg>