<svg height="232.9" viewBox="0 0 263.2 232.9" width="263.2" xmlns="http://www.w3.org/2000/svg"><g fill="#737171"><path d="m44.5 74.4h56.2l122.9-50.4-6-14.5c-3.2-7.8-12.1-11.5-19.9-8.3l-188.2 77.1c-7.8 3.2-11.6 12.1-8.4 19.9l6 14.5 17.8-7.3v-11.5c0-10.8 8.8-19.5 19.6-19.5z"/><path d="m24.9 156.3v-25.5l-8.9 3.7z"/><path d="m244.2 74.4-11.7-28.6-69.8 28.6z"/><path d="m247.9 78.7h-203.4c-8.4 0-15.2 6.8-15.2 15.2v123.7c0 8.4 6.8 15.2 15.2 15.2h203.4c8.4 0 15.2-6.8 15.2-15.2v-123.7c.1-8.4-6.8-15.2-15.2-15.2zm-153 59c0 3.6-2.9 6.4-6.4 6.4h-35.3c-3.6 0-6.4-2.9-6.4-6.4v-23.8c0-3.6 2.9-6.4 6.4-6.4h35.3c3.5 0 6.4 2.9 6.4 6.4z"/></g></svg>