<svg height="587.1" viewBox="0 0 663.4 587.1" width="663.4" xmlns="http://www.w3.org/2000/svg"><g fill="#fff"><path d="m112.1 187.5h141.6l309.8-127-15-36.6c-8.1-19.6-30.5-29-50.1-21l-474.5 194.5c-19.6 8.1-29 30.5-21 50.1l15 36.6 45-18.4v-29c0-27.1 22.1-49.2 49.2-49.2z"/><path d="m62.9 393.9v-64.1l-22.5 9.2z"/><path d="m615.6 187.5-29.5-72.1-175.9 72.1z"/><path d="m624.9 198.3h-512.8c-21.2 0-38.4 17.2-38.4 38.4v311.9c0 21.2 17.2 38.4 38.4 38.4h512.8c21.2 0 38.4-17.2 38.4-38.4v-311.9c.1-21.2-17.1-38.4-38.4-38.4zm-385.6 148.7c0 8.9-7.3 16.2-16.2 16.2h-89.1c-9 0-16.2-7.2-16.2-16.2v-59.9c0-9 7.2-16.2 16.2-16.2h89.1c8.9 0 16.2 7.2 16.2 16.2z"/></g></svg>