<svg viewBox="0 0 25.7 31.1" xmlns="http://www.w3.org/2000/svg"><switch><g><path d="m12.9 31.1c-.1 0-.2 0-.3-.1-4.3-5.2-8.9-1.8-9.1-1.7s-.4.1-.5-.1l-2.9-3.9c-.1-.1-.1-.3 0-.4 0 0 4.2-3.6 4.2-8.8s-4.2-8.7-4.2-8.8c-.1-.1-.1-.3 0-.4l2.6-3.7c.1-.1.2-.2.4-.1 1.9.5 3.5.4 4.8-.3 1.6-.9 2.1-2.5 2.1-2.5 0-.2.2-.3.3-.3h5.1c.2 0 .3.1.3.3 0 0 .5 1.7 2.1 2.6 1.3.7 2.9.8 4.8.2.1 0 .3 0 .4.1l2.6 3.7c.1.1.1.4-.1.5 0 0-4.2 3.6-4.2 8.8s4.2 8.7 4.2 8.8c.1.1.2.3.1.5l-2.9 3.9c-.1.2-.3.2-.5.1s-4.8-3.5-9.1 1.7c0-.2-.1-.1-.2-.1zm-5.6-3.7c1.7 0 3.7.6 5.6 2.8 4-4.5 8.3-2.4 9.5-1.7l2.6-3.3c-1-.9-4.2-4.3-4.2-9.1s3.3-8.2 4.3-9.1l-2.3-3.2c-2 .5-3.7.4-5.1-.4-1.5-.8-2.1-2.2-2.3-2.7h-4.6c-.2.6-.9 1.9-2.3 2.7-1.7.8-3.4.9-5.4.4l-2.3 3.2c.9.9 4.3 4.3 4.3 9.1s-3.3 8.2-4.2 9.1l2.6 3.3c.5-.3 1.9-1.1 3.8-1.1z" fill="#231f20"/><path d="m14.2 16.4v.9c0 .8-.6 1.4-1.4 1.4s-1.5-.7-1.5-1.4v-1.6c0-.5 0-.9.2-1.3.3-.4.7-.7 1.2-.7.7 0 1.2-.5 1.2-1.2 0-1.3-1.9-1.6-2.3-.5-.3.7-1.2 1.1-1.9.8-.7-.2-1-1.1-.7-1.8.7-1.5 2.1-2.5 3.8-2.5 2.2 0 4.1 1.8 4.1 4.1-.1 1.7-1.2 3.2-2.7 3.8zm0 4.7c0 .8-.6 1.4-1.4 1.4s-1.4-.6-1.4-1.4.6-1.5 1.4-1.5 1.4.7 1.4 1.5z"/></g></switch></svg>