<svg height="25" viewBox="0 0 31 25" width="31" xmlns="http://www.w3.org/2000/svg"><g fill="#231f20"><path d="m6.04684166 26.8468417h-1.8c-1.3 0-2.4-1.1-2.4-2.5v-5.4c0-1.3 1.1-2.4 2.4-2.4h1.8c1.3 0 2.4 1.1 2.4 2.4v5.4c.1 1.4-1 2.5-2.4 2.5zm-1.8-9.6c-1 0-1.7.8-1.7 1.7v5.4c0 1 .8 1.7 1.7 1.7h1.8c1 0 1.7-.8 1.7-1.7v-5.4c0-1-.8-1.7-1.7-1.7z" transform="matrix(0 -1 1 0 -16.546842 26.846842)"/><path d="m6.04684166 8.64684166h-1.8c-1.3 0-2.4-1.1-2.4-2.4v-5.5c0-1.3 1.1-2.4 2.4-2.4h1.8c1.3 0 2.4 1.1 2.4 2.4v5.4c.1 1.4-1 2.5-2.4 2.5zm-1.7-9.6c-1 0-1.7.8-1.7 1.7v5.4c0 1 .8 1.7 1.7 1.7h1.8c1 0 1.7-.8 1.7-1.7v-5.4c0-1-.8-1.7-1.7-1.7z" transform="matrix(0 -1 1 0 1.653158 8.646842)"/><path d="m26.3968417 26.7968417h-1.8c-1.3 0-2.4-1.1-2.4-2.4v-5.4c0-1.3 1.1-2.4 2.4-2.4h1.8c1.3 0 2.4 1.1 2.4 2.4v5.4c.1 1.3-1 2.4-2.4 2.4z" transform="matrix(0 -1 1 0 3.803158 47.196842)"/><path d="m26.3968417 8.59684166h-1.8c-1.3 0-2.4-1.1-2.4-2.4v-5.4c0-1.3 1.1-2.4 2.4-2.4h1.8c1.3 0 2.4 1.1 2.4 2.4v5.4c.1 1.3-1 2.4-2.4 2.4z" transform="matrix(0 -1 1 0 22.003158 28.996842)"/><path d="m11.45 12.75h-12.3c-.2 0-.3-.2-.3-.4s.2-.3.4-.3h12.2c.2 0 .3.2.3.3s-.1.4-.3.4z" transform="matrix(0 -1 1 0 -7.25 17.85)"/><path d="m8.95 16.75c-.2 0-.4-.2-.4-.3v-7.9c0-.2.2-.3.4-.3s.4.2.4.3v7.9c0 .2-.2.3-.4.3z" transform="matrix(0 -1 1 0 -3.45 21.55)"/><path d="m32.25 12.75h-12.3c-.2 0-.4-.2-.4-.3s.2-.3.4-.3h12.2c.2 0 .3.2.3.3s0 .3-.2.3z" transform="matrix(0 -1 1 0 13.35 38.65)"/><path d="m21.8 16.7c-.2 0-.4-.2-.4-.3v-7.8c0-.2.2-.3.4-.3s.4.2.4.3v7.8c0 .1-.2.3-.4.3z" transform="matrix(0 -1 1 0 9.4 34.4)"/><path d="m15.7 15.1c-1.4 0-2.5-1.1-2.5-2.5s1.1-2.5 2.5-2.5 2.5 1.1 2.5 2.5-1.1 2.5-2.5 2.5zm0-4.4c-1 0-1.8.8-1.8 1.8s.8 1.8 1.8 1.8 1.8-.8 1.8-1.8-.7-1.8-1.8-1.8z" transform="matrix(0 -1 1 0 3.1 28.3)"/></g></svg>