<svg viewBox="0 0 27.9 27.9" xmlns="http://www.w3.org/2000/svg" xmlns:xlink="http://www.w3.org/1999/xlink"><clipPath id="a"><path d="m0 0h27.9v27.9h-27.9z"/></clipPath><switch><g clip-path="url(#a)"><path d="m-6.6 5.4 29 29" fill="#fff"/><path d="m22.4 34.8c-.1 0-.2 0-.2-.1l-29-29c-.2-.1-.2-.4 0-.5s.4-.1.5 0l29 29c.1.1.1.4 0 .5-.1 0-.2.1-.3.1z" fill="#231f20"/><path d="m-9.6 8.4 29 29" fill="#fff"/><path d="m19.4 37.8c-.1 0-.2 0-.2-.1l-29-29c-.1-.1-.1-.4 0-.5s.4-.1.5 0l29 29c.1.1.1.4 0 .5s-.2.1-.3.1z" fill="#231f20"/><path d="m-12.6 11.5 29 28.9" fill="#fff"/><path d="m16.4 40.8c-.1 0-.2 0-.2-.1l-29-29c-.1-.1-.1-.4 0-.5s.4-.1.5 0l29 29c.1.1.1.4 0 .5s-.2.1-.3.1z" fill="#231f20"/><path d="m-16.1 14.9 29 29" fill="#fff"/><path d="m12.9 44.3c-.1 0-.2 0-.2-.1l-29-29c-.1-.1-.1-.4 0-.5s.4-.1.5 0l29 29c.1.1.1.4 0 .5-.1 0-.2.1-.3.1z" fill="#231f20"/><path d="m-3.6 2.4 29 29" fill="#fff"/><path d="m25.4 31.8c-.1 0-.2 0-.2-.1l-29-29c-.2-.2-.2-.4 0-.5s.4-.1.5 0l29 29c.1.1.1.4 0 .5-.1 0-.2.1-.3.1z" fill="#231f20"/><path d="m-.6-.6 29 29" fill="#fff"/><path d="m28.4 28.8c-.1 0-.2 0-.2-.1l-29-29c-.2-.2-.2-.4 0-.5s.4-.1.5 0l29 29c.1.1.1.4 0 .5-.1 0-.2.1-.3.1z" fill="#231f20"/><path d="m2.4-3.6 29 29" fill="#fff"/><path d="m31.4 25.8c-.1 0-.2 0-.2-.1l-29-29c-.1-.1-.1-.4 0-.5s.4-.1.5 0l29 29c.1.1.1.4 0 .5-.1 0-.2.1-.3.1z" fill="#231f20"/><path d="m5.4-6.6 29 29" fill="#fff"/><path d="m34.4 22.8c-.1 0-.2 0-.2-.1l-29-29c-.1-.1-.1-.4 0-.5s.4-.1.5 0l29 29c.1.1.1.4 0 .5-.1 0-.2.1-.3.1z" fill="#231f20"/><path d="m17.9-19.1 29 29" fill="#fff"/><path d="m46.9 10.3c-.1 0-.2 0-.2-.1l-29-29c-.1-.1-.1-.4 0-.5s.4-.1.5 0l29 29c.1.1.1.4 0 .5-.1 0-.2.1-.3.1z" fill="#231f20"/><path d="m14.9-16.1 29 29" fill="#fff"/><path d="m43.9 13.3c-.1 0-.2 0-.2-.1l-29-29c-.1-.1-.1-.4 0-.5s.4-.1.5 0l29 29c.1.1.1.4 0 .5-.1 0-.2.1-.3.1z" fill="#231f20"/><path d="m11.9-13.1 29 29" fill="#fff"/><path d="m40.9 16.3c-.1 0-.2 0-.2-.1l-29-29c-.1-.1-.1-.4 0-.5s.4-.1.5 0l29 29c.1.1.1.4 0 .5-.1 0-.2.1-.3.1z" fill="#231f20"/><path d="m8.4-9.6 29 29" fill="#fff"/><path d="m37.4 19.8c-.1 0-.2 0-.2-.1l-29-29c-.1-.1-.1-.4 0-.5s.4-.1.5 0l29 29c.1.1.1.4 0 .5-.1 0-.2.1-.3.1z" fill="#231f20"/><path d="m21-22.1 28.9 29" fill="#fff"/><path d="m49.9 7.3c-.1 0-.2 0-.2-.1l-29-29c-.1-.1-.1-.4 0-.5s.4-.1.5 0l29 29c.1.1.1.4 0 .5-.1 0-.2.1-.3.1z" fill="#231f20"/><path d="m24-25.1 28.9 29" fill="#fff"/><path d="m52.9 4.2c-.1 0-.2 0-.2-.1l-29-29c-.1-.1-.1-.4 0-.5s.4-.1.5 0l29 29c.1.1.1.4 0 .5s-.2.1-.3.1z" fill="#231f20"/><path d="m27-28.1 29 29" fill="#fff"/><path d="m56 1.2c-.1 0-.2 0-.2-.1l-29-29c-.1-.1-.1-.4 0-.5s.4-.1.5 0l29 29c.1.1.1.4 0 .5-.2.1-.3.1-.3.1z" fill="#231f20"/></g></switch></svg>