<svg viewBox="0 0 32.3 27.6" xmlns="http://www.w3.org/2000/svg"><switch><g fill="#231f20"><path d="m3.5 7c-1.9 0-3.5-1.6-3.5-3.5s1.6-3.5 3.5-3.5 3.5 1.6 3.5 3.5-1.6 3.5-3.5 3.5zm0-6.3c-1.5 0-2.8 1.3-2.8 2.8s1.3 2.8 2.8 2.8 2.8-1.3 2.8-2.8-1.2-2.8-2.8-2.8zm12.7 6.3c-1.9 0-3.5-1.6-3.5-3.5s1.6-3.5 3.5-3.5 3.5 1.6 3.5 3.5-1.6 3.5-3.5 3.5zm0-6.3c-1.5 0-2.8 1.3-2.8 2.8s1.3 2.8 2.8 2.8 2.8-1.3 2.8-2.8-1.3-2.8-2.8-2.8zm12.6 6.3c-1.9 0-3.5-1.6-3.5-3.5s1.6-3.5 3.5-3.5 3.5 1.6 3.5 3.5-1.6 3.5-3.5 3.5zm0-6.3c-1.5 0-2.8 1.3-2.8 2.8s1.3 2.8 2.8 2.8 2.8-1.3 2.8-2.8-1.3-2.8-2.8-2.8zm-25.3 26.9c-1.9 0-3.5-1.6-3.5-3.5s1.6-3.5 3.5-3.5 3.5 1.6 3.5 3.5c0 2-1.6 3.5-3.5 3.5zm0-6.3c-1.5 0-2.8 1.3-2.8 2.8s1.3 2.8 2.8 2.8 2.8-1.3 2.8-2.8-1.2-2.8-2.8-2.8zm12.7 6.3c-1.9 0-3.5-1.6-3.5-3.5s1.6-3.5 3.5-3.5 3.5 1.6 3.5 3.5c0 2-1.6 3.5-3.5 3.5zm0-6.3c-1.5 0-2.8 1.3-2.8 2.8s1.3 2.8 2.8 2.8 2.8-1.3 2.8-2.8-1.3-2.8-2.8-2.8zm12.6 6.3c-1.9 0-3.5-1.6-3.5-3.5s1.6-3.5 3.5-3.5 3.5 1.6 3.5 3.5c0 2-1.6 3.5-3.5 3.5zm0-6.3c-1.5 0-2.8 1.3-2.8 2.8s1.3 2.8 2.8 2.8 2.8-1.3 2.8-2.8-1.3-2.8-2.8-2.8z"/><path d="m3.5 21.3c-.2 0-.3-.2-.3-.3v-14.3c0-.2.2-.3.3-.3s.3.2.3.3v14.3c.1.2-.1.3-.3.3zm12.7 0c-.2 0-.3-.2-.3-.3v-14.3c0-.2.2-.3.3-.3s.3.2.3.3v14.3c0 .2-.2.3-.3.3z"/><path d="m28.8 13.9h-25.3c-.2 0-.3-.2-.3-.3s.2-.3.3-.3h24.9v-6.6c0-.2.2-.3.3-.3s.3.2.3.3v6.9c.1.1 0 .3-.2.3z"/></g></switch></svg>