<svg viewBox="0 0 27.9 27.9" xmlns="http://www.w3.org/2000/svg" xmlns:xlink="http://www.w3.org/1999/xlink"><clipPath id="a"><path d="m-53.8 0h27.9v27.9h-27.9z"/></clipPath><switch><g><g clip-path="url(#a)"><path d="m-26.9-28.1 29 29" fill="#fff"/><path d="m2.1 1.2c-.1 0-.1 0-.2-.1l-29-29c-.1-.1-.1-.4 0-.5s.4-.1.5 0l29 29c.1.1.1.4 0 .5s-.2.1-.3.1z" fill="#231f20"/></g><g fill="#231f20"><path d="m0 0h4v4h-4zm4 4h4v4h-4zm-4 4h4v4h-4zm4 3.9h4v4h-4zm0 8h4v4h-4zm-4 4h4v4h-4zm0-8h4v4h-4zm8-15.9h4v4h-4zm3.9 4h4v4h-4zm-3.9 4h4v4h-4z"/><path d="m11.9 11.9h4v4h-4zm0 8h4v4h-4zm-3.9 4h4v4h-4zm0-8h4v4h-4zm7.9-15.9h4v4h-4zm4 4h4v4h-4z"/><path d="m15.9 8h4v4h-4zm4 3.9h4v4h-4zm0 8h4v4h-4zm-4 4h4v4h-4zm0-8h4v4h-4zm8-15.9h4v4h-4zm0 8h4v4h-4zm0 15.9h4v4h-4zm0-8h4v4h-4z"/></g></g></switch></svg>