<svg height="25" viewBox="0 0 31 25" width="31" xmlns="http://www.w3.org/2000/svg"><g fill="#231f20"><path d="m26.7468417 8.45315834h-1.8c-1.3 0-2.4-1.1-2.4-2.5v-5.4c0-1.3 1.1-2.4 2.4-2.4h1.8c1.3 0 2.4 1.1 2.4 2.4v5.4c.1 1.4-1 2.5-2.4 2.5z" transform="matrix(0 1 -1 0 29.153158 -22.546842)"/><path d="m26.7468417 26.6531583h-1.8c-1.3 0-2.4-1.1-2.4-2.4v-5.5c0-1.3 1.1-2.4 2.4-2.4h1.8c1.3 0 2.4 1.1 2.4 2.4v5.4c.1 1.4-1 2.5-2.4 2.5z" transform="matrix(0 1 -1 0 47.353158 -4.346842)"/><path d="m6.39684166 8.40315834h-1.8c-1.3 0-2.4-1.1-2.4-2.4v-5.4c0-1.3 1.1-2.4 2.4-2.4h1.8c1.3 0 2.4 1.1 2.4 2.4v5.4c.1 1.3-1 2.4-2.4 2.4z" transform="matrix(0 1 -1 0 8.803158 -2.196842)"/><path d="m6.39684166 26.6031583h-1.8c-1.3 0-2.4-1.1-2.4-2.4v-5.4c0-1.3 1.1-2.4 2.4-2.4h1.8c1.3 0 2.4 1.1 2.4 2.4v5.4c.1 1.3-1 2.4-2.4 2.4z" transform="matrix(0 1 -1 0 27.003158 16.003158)"/><path d="m31.85 12.65h-12.3c-.2 0-.3-.2-.3-.4s.2-.3.4-.3h12.2c.2 0 .3.2.3.3s-.1.4-.3.4z" transform="matrix(0 1 -1 0 38.15 -13.25)"/><path d="m21.85 16.75c-.2 0-.4-.2-.4-.3v-7.9c0-.2.2-.3.4-.3s.4.2.4.3v7.9c0 .2-.2.3-.4.3z" transform="matrix(0 1 -1 0 34.45 -9.45)"/><path d="m11.25 12.45h-12.3c-.2 0-.4-.2-.4-.3s.2-.3.4-.3h12.2c.2 0 .3.2.3.3s0 .3-.2.3z" transform="matrix(0 1 -1 0 17.35 7.35)"/><path d="m9 16.7c-.2 0-.4-.2-.4-.3v-7.8c0-.2.2-.3.4-.3s.4.2.4.3v7.8c0 .1-.2.3-.4.3z" transform="matrix(0 1 -1 0 21.6 3.4)"/><path d="m15.3 14.9c-1.4 0-2.5-1.1-2.5-2.5s1.1-2.5 2.5-2.5 2.5 1.1 2.5 2.5-1.1 2.5-2.5 2.5zm0-4.4c-1 0-1.8.8-1.8 1.8s.8 1.8 1.8 1.8 1.8-.8 1.8-1.8-.7-1.8-1.8-1.8z" transform="matrix(0 1 -1 0 27.7 -2.9)"/></g></svg>