<svg viewBox="0 0 25 30.4" xmlns="http://www.w3.org/2000/svg"><switch><g><path d="m20.6 15.8c0-5.4 4.4-9 4.4-9l-2.6-3.8c-6 1.7-7.3-3-7.3-3h-5.1s-1.3 4.8-7.3 3l-2.7 3.7s4.4 3.7 4.4 9-4.4 9-4.4 9l2.9 3.9s5-3.8 9.6 1.7c4.6-5.5 9.6-1.7 9.6-1.7l2.9-3.9c0 .1-4.4-3.6-4.4-8.9z" fill="#231f20"/><path d="m21.7 7.9-.4-.3c.3-.4.5-.7.8-1l-.7-.9c-.5.1-.9.1-1.4.1v-.5c.5 0 1-.1 1.5-.1h.2l1.1 1.5-.1.1c-.4.3-.8.7-1 1.1zm-3.7-2.4c-.6-.2-1.2-.4-1.8-.7l-.1-.1.2-.4.1.1c.6.2 1.1.5 1.7.6zm-3.5-2.1c-.3-.3-.6-.7-.8-1.1h-2.2c-.2.4-.5.8-.8 1.1l-.4-.3c.3-.3.6-.7.9-1.2l.1-.1h2.8l-.1.1c.2.4.5.8.9 1.2zm-7.5 2.1-.1-.5c.6-.1 1.1-.4 1.6-.7h.1l.2.2.1.2-.1.1c-.6.3-1.2.5-1.8.7zm-3.7 2.4c-.2-.4-.6-.8-.9-1.2l-.1-.1 1.1-1.5h.2c.4.1.9.1 1.4.1v.5c-.4 0-.9 0-1.4-.1l-.7.9c.3.3.6.7.8 1zm2.2 13-.5-.2c.5-1.1.8-2.2.9-3.3l.5.1c-.1 1.2-.4 2.3-.9 3.4zm.5-6.8c-.2-1.1-.5-2.2-1-3.3l.5-.2c.5 1.1.8 2.2 1 3.4zm-2.6 12.3-1.1-1.4.1-.2.9-1.2.5.4c-.3.4-.5.7-.8 1l.6.8c.4-.2.8-.3 1.3-.4l.1.5c-.5.1-1 .3-1.4.4zm5.8-.4c-.7-.2-1.4-.3-2.1-.3v-.5c.8 0 1.5.1 2.2.4zm3.3 1.9-.2-.1-1.2-.9.3-.4c.4.2.7.5 1.1.8.4-.3.7-.5 1.1-.8l.3.4c-.4.2-.8.5-1.2.9zm3.3-1.9-.1-.5c.7-.2 1.5-.3 2.2-.4v.5c-.7.1-1.4.2-2.1.4zm5.8.4-.2-.1c-.4-.1-.9-.3-1.4-.4l.1-.5c.4.1.9.2 1.3.4l.6-.8c-.3-.3-.6-.7-.8-1l.4-.3.9 1.2.1.2zm-2.1-5.5c-.5-1.1-.8-2.2-1-3.4l.5-.1c.2 1.1.5 2.2.9 3.3zm-.5-6.8-.5-.1c.2-1.1.5-2.3 1-3.4l.5.2c-.5 1.1-.8 2.2-1 3.3z" fill="#fff"/></g></switch></svg>