<svg viewBox="0 0 28.3 34" xmlns="http://www.w3.org/2000/svg"><switch><g><path d="m26.5 10.4h-16.6c-1 0-1.8-.8-1.8-1.8v-2.8c0-1 .8-1.8 1.8-1.8h16.6c1 0 1.8.8 1.8 1.8v2.8c0 1-.8 1.8-1.8 1.8zm-16.6-5.7c-.6 0-1.1.5-1.1 1.1v2.8c0 .6.5 1.1 1.1 1.1h16.6c.6 0 1.1-.5 1.1-1.1v-2.8c0-.6-.5-1.1-1.1-1.1z" fill="#231f20"/><path d="m22.5 4.7h-8.1v-2.3c0-1.3 1.1-2.4 2.4-2.4h3.4c1.3 0 2.4 1.1 2.4 2.4v2.3zm-7.5-.7h6.7v-1.6c0-.9-.7-1.7-1.7-1.7h-3.4c-.9 0-1.7.7-1.7 1.7v1.6zm-2.3 30h-3.4c-1.3 0-2.4-1.1-2.4-2.4v-14.8c0-1.3 1-2.3 2.3-2.3h5.1v-4.8h8.1v10.8c0 1.3-1.1 2.4-2.4 2.4h-5v8.8c0 1.2-1 2.3-2.3 2.3zm-3.5-18.8c-.9 0-1.6.7-1.6 1.6v14.8c0 .9.7 1.7 1.7 1.7h3.4c.9 0 1.7-.7 1.7-1.7v-9.5h5.8c.9 0 1.7-.7 1.7-1.7v-10h-6.9v4.8z" fill="#231f20"/><path d="m3.5 3.7c0 .9-.7 1.6-1.6 1.6h-.6v1.4c0 .3-.3.6-.6.6-.2 0-.5-.3-.5-.6v-4c0-.3.2-.6.6-.6h1.1c.8 0 1.6.7 1.6 1.6zm-1.2 0c0-.3-.2-.5-.5-.5h-.5v1h.5c.3 0 .5-.2.5-.5zm.9 11.7c-.2.1-.6.1-.8-.2l-1-1.7h-.1v1.4c0 .3-.2.6-.6.6-.3 0-.5-.2-.5-.6v-4c0-.3.2-.6.5-.6h1.1c.9 0 1.6.7 1.6 1.6 0 .6-.3 1.1-.8 1.4l.8 1.3c.1.3 0 .6-.2.8zm-1.3-4h-.6v1h.5c.3 0 .5-.2.5-.5s-.2-.5-.4-.5zm1.7 8.3v3.5c0 .4-.5.6-.8.3l-.2-.2c-.1-.1-1.5-2.2-1.6-2.3v2.2c0 .3-.2.5-.5.5s-.5-.2-.5-.5v-3.5c0-.3.2-.5.5-.5.2 0 .3.1.4.2.1.2 1.2 1.6 1.7 2.5v-2.2c0-.3.2-.5.5-.5s.5.2.5.5z"/><path d="m3.7 29.7c0 1.2-1 2.2-2.2 2.2h-1c-.3 0-.5-.2-.5-.5v-3.5c0-.3.2-.5.5-.5h1c1.2 0 2.2 1 2.2 2.3zm-1 0c0-.7-.6-1.3-1.3-1.3h-.4v2.5h.5c.6 0 1.2-.5 1.2-1.2z"/></g></switch></svg>