<svg viewBox="0 0 25 30.4" xmlns="http://www.w3.org/2000/svg" xmlns:xlink="http://www.w3.org/1999/xlink"><clipPath id="a"><path d="m-34.5 15.8c0-5.4 4.4-9 4.4-9l-2.7-3.8c-6 1.7-7.3-3-7.3-3h-5s-1.3 4.8-7.3 3l-2.6 3.7s4.4 3.7 4.4 9-4.4 9-4.4 9l2.9 3.9s5-3.8 9.6 1.7c4.6-5.5 9.6-1.7 9.6-1.7l2.9-3.9c-.2.1-4.5-3.6-4.5-8.9z"/></clipPath><clipPath id="b"><path d="m-58.2-.4h29.2v29.2h-29.2z" transform="matrix(.98842515 .15170937 -.15170937 .98842515 1.655363 6.779483)"/></clipPath><clipPath id="c"><path d="m20.6 15.8c0-5.4 4.4-9 4.4-9l-2.6-3.8c-6 1.7-7.3-3-7.3-3h-5.1s-1.3 4.8-7.3 3l-2.7 3.7s4.4 3.7 4.4 9-4.4 9-4.4 9l2.9 3.9s5-3.8 9.6 1.7c4.6-5.5 9.6-1.7 9.6-1.7l2.9-3.9c0 .1-4.4-3.6-4.4-8.9z"/></clipPath><switch><g><path d="m12.5 30.7c-.1 0-.2 0-.3-.1-4.3-5.2-8.9-1.8-9.1-1.7-.1.2-.3.1-.4 0l-3-3.9c-.1-.1-.1-.4.1-.5 0 0 4.2-3.6 4.2-8.8 0-5.1-4.2-8.7-4.2-8.7-.1-.1-.2-.3-.1-.5l2.6-3.7c.1-.1.2-.2.4-.1 1.9.6 3.5.5 4.8-.2 1.6-.9 2.1-2.6 2.1-2.6 0-.2.2-.3.3-.3h5.1c.2 0 .3.1.3.3 0 0 .5 1.7 2.1 2.6 1.3.7 2.9.8 4.8.2.1 0 .3 0 .4.1l2.6 3.7c.1.1.1.4-.1.5 0 0-4.2 3.6-4.2 8.8s4.2 8.7 4.2 8.8c.1.1.2.3.1.5l-2.9 3.9c-.1.2-.3.2-.5.1s-4.8-3.5-9.1 1.7c0-.1-.1-.1-.2-.1zm-5.6-3.6c1.7 0 3.7.6 5.6 2.8 4-4.5 8.3-2.4 9.5-1.7l2.6-3.3c-1-.9-4.2-4.3-4.2-9.1s3.3-8.2 4.3-9.1l-2.3-3.2c-2 .5-3.7.4-5.1-.4-1.5-.8-2.1-2.2-2.3-2.7h-4.6c-.4.5-1 1.9-2.5 2.7-1.4.8-3.1.9-5.1.4l-2.3 3.2c.9.9 4.3 4.3 4.3 9.1s-3.3 8.2-4.2 9.1l2.4 3.3c.6-.4 2.1-1.1 3.9-1.1z" fill="#231f20"/><g clip-path="url(#a)"><g clip-path="url(#b)"><path d="m-23.4-27.2 25.4 34.6" fill="#fff"/><path d="m2 7.8c-.1 0-.2 0-.3-.1l-25.4-34.7c-.1-.2-.1-.4.1-.5s.4-.1.5.1l25.4 34.6c.1.2.1.4-.1.5-.1 0-.1.1-.2.1z" fill="#231f20"/><path d="m-19.8-29.8 25.4 34.6" fill="#fff"/><path d="m5.6 5.1c-.1 0-.2 0-.3-.1l-25.4-34.6c-.1-.2-.1-.4.1-.5s.4-.1.5.1l25.4 34.6c.1.1.1.4-.1.5z" fill="#231f20"/></g></g><g clip-path="url(#c)"><circle cx="12.5" cy="3.2" fill="#231f20" r="1.6"/></g><g clip-path="url(#c)"><circle cx="12.5" cy="8.9" fill="#231f20" r="1.6"/></g><g clip-path="url(#c)"><circle cx="7.1" cy="8.9" fill="#231f20" r="1.6"/></g><g clip-path="url(#c)"><circle cx="2.4" cy="8.9" fill="#231f20" r="1.6"/></g><g clip-path="url(#c)"><circle cx="7.1" cy="3.2" fill="#231f20" r="1.6"/></g><g clip-path="url(#c)"><circle cx="2.4" cy="3.2" fill="#231f20" r="1.6"/></g><g clip-path="url(#c)"><circle cx="7.1" cy="14.7" fill="#231f20" r="1.6"/></g><g clip-path="url(#c)"><circle cx="7.1" cy="20.9" fill="#231f20" r="1.6"/></g><g clip-path="url(#c)"><circle cx="7.1" cy="26.5" fill="#231f20" r="1.6"/></g><g clip-path="url(#c)"><circle cx="2.4" cy="26.5" fill="#231f20" r="1.6"/></g><g clip-path="url(#c)"><circle cx="17.8" cy="8.9" fill="#231f20" r="1.6"/></g><g clip-path="url(#c)"><circle cx="22.5" cy="8.9" fill="#231f20" r="1.6"/></g><g clip-path="url(#c)"><circle cx="17.8" cy="3.2" fill="#231f20" r="1.6"/></g><g clip-path="url(#c)"><circle cx="22.5" cy="3.2" fill="#231f20" r="1.6"/></g><g clip-path="url(#c)"><circle cx="17.8" cy="14.7" fill="#231f20" r="1.6"/></g><g clip-path="url(#c)"><circle cx="17.8" cy="20.9" fill="#231f20" r="1.6"/></g><g clip-path="url(#c)"><circle cx="17.8" cy="26.5" fill="#231f20" r="1.6"/></g><g clip-path="url(#c)"><circle cx="22.5" cy="26.5" fill="#231f20" r="1.6"/></g><g clip-path="url(#c)"><circle cx="12.5" cy="14.7" fill="#231f20" r="1.6"/></g><g clip-path="url(#c)"><circle cx="12.5" cy="20.9" fill="#231f20" r="1.6"/></g><g clip-path="url(#c)"><circle cx="12.5" cy="26.5" fill="#231f20" r="1.6"/></g></g></switch></svg>