<svg enable-background="new 0 0 42.6 18.4" viewBox="0 0 42.6 18.4" xmlns="http://www.w3.org/2000/svg"><switch><g fill="#231f20"><path d="m8 18.4c-1.9 0-3.5-1.6-3.5-3.5s1.6-3.5 3.5-3.5 3.5 1.6 3.5 3.5-1.5 3.5-3.5 3.5zm0-6.6c-1.7 0-3 1.4-3 3s1.4 3 3 3 3-1.4 3-3-1.3-3-3-3z"/><path d="m34.6 18.4c-1.9 0-3.5-1.6-3.5-3.5s1.6-3.5 3.5-3.5 3.5 1.6 3.5 3.5-1.5 3.5-3.5 3.5zm0-6.6c-1.7 0-3 1.4-3 3s1.4 3 3 3 3-1.4 3-3-1.3-3-3-3z"/><path d="m38.5 15.2h-.9v-.3c0-1.7-1.4-3.1-3-3.1-1.7 0-3 1.3-3 3v.3l-20.6-.3v-.2c-.1-1.6-1.4-2.8-3-2.8-1.4 0-2.6 1-2.9 2.3v.2l-4.4-.3-.1-.1s-1.7-3 .4-5.5c0-.6.2-3.3 5.1-7.4h.1.1c.5-.1 11.3-1.7 16.4-.5 4.8 1.2 9.4 3.9 9.9 4.2.7.2 8.1 2 9.5 4.6.1.1 1 1.8.4 4.2.1.2.2.6.1.9-.1.2-.2.3-.3.3-.6.2-3.5.4-3.8.5zm-.3-.5h.3c1.2-.1 3.2-.3 3.5-.5.1-.2 0-.5-.1-.7v-.1-.1c.6-2.3-.3-3.9-.3-3.9-1.4-2.5-9.1-4.4-9.2-4.4h-.1s-4.8-2.9-9.8-4.1c-4.7-1.1-15.1.4-16.1.5-5.1 4.3-4.9 7-4.9 7v.1.1c-1.7 2-.7 4.4-.5 4.9l3.6.3c.4-1.5 1.8-2.5 3.4-2.5 1.8 0 3.2 1.3 3.5 3l19.6.2c.1-1.8 1.7-3.3 3.5-3.3 1.9.1 3.5 1.6 3.6 3.5z"/><path d="m41.3 11.1c-1 0-2.9-.1-3.1-.8-.2-.8.5-1.8.6-1.9s.2-.1.3-.1 2.4 1.1 2.7 2.5v.2c-.2.1-.3.1-.5.1zm-2.2-2.3c-.2.3-.5.9-.4 1.3.1.2 1.2.4 2.5.4-.4-.7-1.5-1.3-2.1-1.7z"/><path d="m34.6 16.8c-1.1 0-2-.9-2-2s.9-2 2-2 2 .9 2 2-.9 2-2 2zm0-3.4c-.8 0-1.5.7-1.5 1.5s.7 1.5 1.5 1.5 1.5-.7 1.5-1.5-.7-1.5-1.5-1.5z"/><path d="m8 16.8c-1.1 0-2-.9-2-2s.9-2 2-2 2 .9 2 2-.9 2-2 2zm0-3.4c-.8 0-1.5.7-1.5 1.5s.7 1.5 1.5 1.5 1.5-.7 1.5-1.5-.7-1.5-1.5-1.5z"/><path d="m11.1 7.3h-1.5c-.2 0-.3-.1-.3-.3s.1-.3.3-.3h1.6c.1 0 .3.1.3.3s-.2.3-.4.3z"/><path d="m20.9 7.8h-1.6c-.1 0-.3-.1-.3-.3s.1-.3.3-.3h1.6c.1 0 .3.1.3.3s-.1.3-.3.3z"/><path d="m28.9 7c-.1 0-.1 0 0 0l-19.4-1.3c-.5 0-.9-.4-1-.9l-.2-1.5c0-.3 0-.6.2-.8.2-.3.5-.4.8-.4 2.9-.2 9.8-.6 12.6-.3 2.1.1 5.3 1.8 7.5 3.2.4.3.6.7.5 1.2-.2.5-.6.8-1 .8zm-9.6-4.9c-3.3 0-7.8.3-10 .4-.2.1-.3.1-.4.3-.1.1-.1.3-.1.4l.3 1.5c0 .3.3.4.5.5l19.3 1.2c.3 0 .5-.2.6-.4s0-.5-.2-.6c-2.2-1.3-5.3-3-7.3-3.2-.8 0-1.7-.1-2.7-.1z"/><path d="m18.2 6.2c-.1 0-.2-.1-.2-.2l-1.3-4c0-.1 0-.3.2-.3.1 0 .3 0 .3.2l1.3 4c0 .1-.1.3-.3.3.1 0 .1 0 0 0z"/><path d="m31 12h-19.4c-.1 0-.3-.1-.3-.3s.1-.3.3-.3h19.4c.1 0 .3.1.3.3s-.2.3-.3.3z"/><path d="m41.1 14.1c-.1 0-.2-.1-.2-.2l-.2-.8c0-.1 0-.1 0-.2l.4-.9c.1-.1.2-.2.3-.1s.2.2.1.3l-.4.8.2.7c0 .2 0 .4-.2.4z"/><path d="m1.3 8.7c-.2 0-.3-.1-.3-.2s.1-.3.3-.3c.9 0 1.7-.1 2.1-.1-.4-1.2-1.3-2.3-1.3-2.3-.1-.1-.1-.3 0-.4s.3-.1.4 0 1.2 1.3 1.5 2.9v.2c0 .1-.1.1-.2.1s-1.3.1-2.5.1z"/></g></switch></svg>