<?xml version="1.0" standalone="no"?><!-- Generator: Gravit.io --><svg xmlns="http://www.w3.org/2000/svg" xmlns:xlink="http://www.w3.org/1999/xlink" style="isolation:isolate" viewBox="0 0 150 150" width="150" height="150"><g><g><g><circle vector-effect="non-scaling-stroke" cx="75" cy="75" r="74.99999999999997" fill="rgb(232,232,232)"/><g><g><g><path d=" M 35.925 62.084 C 35.423 62.084 34.923 62.387 34.573 62.747 C 34.283 63.046 34.057 63.467 34.057 63.883 L 34.057 125.165 C 34.057 125.621 34.219 126.145 34.512 126.453 C 34.864 126.823 35.424 127 35.93 127 L 123.027 127 C 123.027 127 124.074 126.718 124.419 126.368 C 124.747 126.034 124.92 125.113 124.92 125.113 L 124.918 104.794 L 120.974 104.794 L 120.973 123.095 L 37.982 123.11 L 37.982 66.021 L 120.973 66.021 L 120.973 67.904 L 124.918 67.904 L 124.918 63.983 C 124.918 63.569 124.741 63.141 124.473 62.825 C 124.158 62.453 123.699 62.083 123.211 62.083 L 35.925 62.084 Z " fill="rgb(0,92,203)"/><path d=" M 101.296 70.506 L 100.764 70.512 L 100.764 71.043 C 101.639 71.367 102.23 72.176 102.263 73.094 L 102.263 73.097 C 102.295 74.072 101.692 74.958 100.764 75.302 L 100.764 77.574 C 101.639 77.898 102.23 78.707 102.263 79.625 L 102.263 79.628 C 102.295 80.602 101.692 81.489 100.764 81.833 L 100.764 84.105 C 101.639 84.429 102.231 85.239 102.263 86.157 L 102.263 86.159 C 102.295 87.133 101.692 88.02 100.764 88.363 L 100.764 90.637 C 101.639 90.961 102.23 91.77 102.263 92.688 L 102.263 92.691 C 102.295 93.665 101.692 94.552 100.764 94.896 L 100.764 97.168 C 101.639 97.492 102.23 98.301 102.263 99.219 L 102.263 99.221 C 102.295 100.196 101.692 101.083 100.764 101.426 L 100.764 102.019 L 101.319 102.019 C 101.683 101.232 102.468 100.715 103.347 100.685 C 104.285 100.654 105.148 101.18 105.536 102.019 L 108.147 102.019 C 108.51 101.232 109.296 100.715 110.175 100.685 C 111.112 100.654 111.976 101.18 112.364 102.019 L 114.974 102.019 C 115.338 101.232 116.124 100.715 117.003 100.685 C 117.94 100.654 118.804 101.18 119.191 102.019 L 121.802 102.019 C 122.165 101.232 122.951 100.715 123.83 100.685 C 124.767 100.654 125.631 101.18 126.019 102.019 L 128.629 102.019 C 128.993 101.232 129.779 100.715 130.658 100.685 C 131.595 100.654 132.459 101.18 132.847 102.019 L 135.461 102.019 C 135.827 101.237 136.61 100.724 137.486 100.694 C 138.418 100.664 139.278 101.186 139.668 102.019 L 142.289 102.019 C 142.654 101.237 143.438 100.724 144.313 100.694 C 145.246 100.664 146.106 101.186 146.495 102.019 L 147 102.019 L 147 101.379 C 146.186 101.027 145.649 100.249 145.617 99.375 C 145.586 98.445 146.133 97.59 147 97.215 L 147 94.847 C 146.186 94.495 145.649 93.717 145.617 92.843 C 145.586 91.913 146.133 91.058 147 90.683 L 147 88.314 C 146.186 87.962 145.649 87.183 145.617 86.31 C 145.586 85.38 146.133 84.524 147 84.149 L 147 81.782 C 146.186 81.43 145.649 80.651 145.617 79.778 C 145.586 78.848 146.133 77.992 147 77.617 L 147 75.249 C 146.186 74.897 145.649 74.119 145.617 73.245 C 145.586 72.315 146.133 71.46 147 71.085 L 147 70.506 L 146.474 70.506 C 146.111 71.295 145.325 71.813 144.445 71.845 L 144.443 71.845 C 143.505 71.875 142.641 71.346 142.254 70.506 L 139.648 70.506 C 139.285 71.295 138.499 71.813 137.619 71.845 L 137.617 71.845 C 136.679 71.875 135.814 71.346 135.428 70.506 L 132.816 70.506 C 132.452 71.289 131.669 71.803 130.793 71.834 L 130.79 71.836 C 129.856 71.866 128.995 71.341 128.607 70.506 L 125.99 70.506 C 125.625 71.289 124.842 71.803 123.967 71.834 L 123.964 71.836 C 123.03 71.866 122.169 71.341 121.781 70.506 L 119.164 70.506 C 118.799 71.289 118.016 71.803 117.14 71.834 L 117.135 71.836 C 116.201 71.865 115.341 71.341 114.952 70.506 L 112.335 70.506 C 111.971 71.289 111.188 71.803 110.312 71.834 L 110.306 71.836 C 109.372 71.866 108.511 71.341 108.123 70.506 L 105.507 70.506 C 105.142 71.29 104.359 71.804 103.482 71.834 L 103.477 71.836 C 102.543 71.865 101.683 71.341 101.294 70.506 L 101.296 70.506 Z  M 106.291 75.722 L 141.473 75.722 L 141.473 96.814 L 106.291 96.814 L 106.291 75.722 Z " fill="rgb(0,92,203)" vector-effect="non-scaling-stroke" stroke-width="0.998" stroke="rgb(0,92,203)" stroke-linejoin="round" stroke-linecap="round" stroke-miterlimit="4"/><line x1="50.996" y1="93.65" x2="74.789" y2="93.65" vector-effect="non-scaling-stroke" stroke-width="3.2" stroke="rgb(0,92,203)" stroke-linejoin="round" stroke-linecap="round" stroke-miterlimit="4"/><line x1="50.996" y1="103.747" x2="74.789" y2="103.747" vector-effect="non-scaling-stroke" stroke-width="3.2" stroke="rgb(0,92,203)" stroke-linejoin="round" stroke-linecap="round" stroke-miterlimit="4"/><line x1="50.996" y1="113.844" x2="74.789" y2="113.844" vector-effect="non-scaling-stroke" stroke-width="3.2" stroke="rgb(0,92,203)" stroke-linejoin="round" stroke-linecap="round" stroke-miterlimit="4"/><rect x="109.578" y="79.031" width="28.51" height="14.413" transform="matrix(1,0,0,1,0,0)" fill="rgb(0,92,203)"/></g></g></g></g></g><g transform="matrix(1,0,0,1,0,-10)"><text transform="matrix(1,0,0,1,0.449,62.871)" style="font-family:'Roboto Slab';font-weight:700;font-size:60px;font-style:normal;font-variant-ligatures:none;fill:#a2a2a2;stroke:none;">4.</text></g></g></svg>