<?xml version="1.0" standalone="no"?><!-- Generator: Gravit.io --><svg xmlns="http://www.w3.org/2000/svg" xmlns:xlink="http://www.w3.org/1999/xlink" style="isolation:isolate" viewBox="0 0 150 150" width="150" height="150"><g><circle vector-effect="non-scaling-stroke" cx="75" cy="75.00000000000001" r="74.99999999999997" fill="rgb(0,92,203)"/><g><path d=" M 118.679 53.953 C 116.3 53.953 114.364 52.018 114.364 49.638 C 114.364 48.908 113.773 48.317 113.043 48.317 C 112.313 48.317 111.722 48.908 111.722 49.638 C 111.722 52.017 109.786 53.953 107.407 53.953 C 106.677 53.953 106.086 54.544 106.086 55.274 C 106.086 56.004 106.677 56.595 107.407 56.595 C 109.786 56.595 111.722 58.531 111.722 60.91 C 111.722 61.64 112.313 62.231 113.043 62.231 C 113.773 62.231 114.364 61.64 114.364 60.91 C 114.364 58.531 116.299 56.595 118.679 56.595 C 119.409 56.595 120 56.004 120 55.274 C 120 54.544 119.409 53.953 118.679 53.953 Z  M 113.043 56.836 C 112.609 56.236 112.081 55.709 111.481 55.274 C 112.081 54.84 112.609 54.311 113.043 53.712 C 113.478 54.312 114.006 54.84 114.605 55.274 C 114.006 55.709 113.478 56.237 113.043 56.836 Z " fill="rgb(255,255,255)"/><path d=" M 42.593 53.953 C 40.214 53.953 38.278 52.018 38.278 49.638 C 38.278 48.908 37.687 48.317 36.957 48.317 C 36.228 48.317 35.636 48.908 35.636 49.638 C 35.636 52.017 33.7 53.953 31.321 53.953 C 30.592 53.953 30 54.544 30 55.274 C 30 56.004 30.592 56.595 31.321 56.595 C 33.7 56.595 35.636 58.531 35.636 60.91 C 35.636 61.64 36.228 62.231 36.957 62.231 C 37.687 62.231 38.278 61.64 38.278 60.91 C 38.278 58.531 40.214 56.595 42.593 56.595 C 43.323 56.595 43.914 56.004 43.914 55.274 C 43.914 54.544 43.323 53.953 42.593 53.953 Z  M 36.957 56.836 C 36.523 56.236 35.995 55.709 35.395 55.274 C 35.995 54.84 36.523 54.311 36.957 53.712 C 37.392 54.312 37.919 54.84 38.519 55.274 C 37.92 55.709 37.392 56.237 36.957 56.836 Z " fill="rgb(255,255,255)"/><path d=" M 82.045 37.045 C 78.889 37.045 76.321 34.477 76.321 31.321 C 76.321 30.591 75.73 30 75 30 C 74.271 30 73.679 30.591 73.679 31.321 C 73.679 34.477 71.111 37.045 67.955 37.045 C 67.225 37.045 66.634 37.637 66.634 38.366 C 66.634 39.096 67.225 39.687 67.955 39.687 C 71.111 39.687 73.679 42.255 73.679 45.411 C 73.679 46.141 74.271 46.732 75 46.732 C 75.73 46.732 76.321 46.141 76.321 45.411 C 76.321 42.255 78.889 39.687 82.045 39.687 C 82.775 39.687 83.366 39.096 83.366 38.366 C 83.366 37.637 82.775 37.045 82.045 37.045 Z  M 75 40.903 C 74.347 39.887 73.48 39.019 72.463 38.366 C 73.48 37.713 74.347 36.846 75 35.829 C 75.653 36.846 76.521 37.713 77.537 38.366 C 76.521 39.019 75.653 39.887 75 40.903 Z " fill="rgb(255,255,255)"/><path d=" M 102.502 74.56 L 97.364 60.001 C 96.979 58.912 95.945 58.18 94.789 58.18 L 54.859 58.18 C 53.703 58.18 52.669 58.912 52.284 60.001 L 47.146 74.56 C 46.847 75.406 47.496 76.321 48.391 76.321 L 101.256 76.321 C 101.685 76.321 102.087 76.113 102.335 75.763 C 102.582 75.413 102.645 74.965 102.502 74.56 Z  M 50.258 73.679 L 54.775 60.881 C 54.787 60.847 54.822 60.822 54.858 60.822 L 94.789 60.822 C 94.825 60.822 94.86 60.847 94.872 60.881 L 99.39 73.679 L 50.258 73.679 Z " fill="rgb(255,255,255)"/><path d=" M 100.186 91.996 C 95.495 91.996 91.82 94.433 91.82 97.544 C 91.82 100.655 95.495 103.092 100.186 103.092 C 104.877 103.092 108.552 100.655 108.552 97.544 C 108.552 94.433 104.877 91.996 100.186 91.996 Z  M 100.186 100.45 C 96.91 100.45 94.462 98.916 94.462 97.544 C 94.462 96.172 96.91 94.638 100.186 94.638 C 103.462 94.638 105.91 96.172 105.91 97.544 C 105.91 98.916 103.462 100.45 100.186 100.45 Z " fill="rgb(255,255,255)"/><path d=" M 49.462 91.996 C 44.771 91.996 41.096 94.433 41.096 97.544 C 41.096 100.655 44.771 103.092 49.462 103.092 C 54.153 103.092 57.828 100.655 57.828 97.544 C 57.828 94.433 54.153 91.996 49.462 91.996 Z  M 49.462 100.45 C 46.186 100.45 43.738 98.916 43.738 97.544 C 43.738 96.172 46.186 94.638 49.462 94.638 C 52.738 94.638 55.186 96.172 55.186 97.544 C 55.186 98.916 52.738 100.45 49.462 100.45 Z " fill="rgb(255,255,255)"/><path d=" M 117.094 72.27 L 110.049 72.27 C 109.443 72.27 108.915 72.683 108.768 73.271 L 107.84 76.982 L 101.35 58.595 C 100.37 55.818 97.733 53.953 94.789 53.953 L 54.859 53.953 C 51.914 53.953 49.278 55.818 48.298 58.595 L 41.808 76.982 L 40.88 73.271 C 40.733 72.683 40.205 72.27 39.599 72.27 L 32.554 72.27 C 31.824 72.27 31.233 72.861 31.233 73.591 L 31.233 79.227 C 31.233 79.957 31.824 80.548 32.554 80.548 L 39.85 80.548 L 35.347 86.853 C 34.499 88.039 34.051 89.438 34.051 90.896 L 34.051 107.407 C 34.051 109.695 35.161 111.728 36.871 112.997 C 36.871 113.012 36.869 113.027 36.869 113.043 L 36.869 117.27 C 36.869 118.775 38.094 120 39.599 120 L 48.053 120 C 49.558 120 50.783 118.775 50.783 117.27 L 50.783 114.364 L 98.865 114.364 L 98.865 117.27 C 98.865 118.775 100.089 120 101.595 120 L 110.049 120 C 111.554 120 112.779 118.775 112.779 117.27 L 112.779 113.043 C 112.779 113.027 112.777 113.012 112.776 112.997 C 114.486 111.728 115.597 109.695 115.597 107.407 L 115.597 90.896 C 115.597 89.438 115.148 88.039 114.301 86.853 L 109.797 80.548 L 117.094 80.548 C 117.823 80.548 118.415 79.957 118.415 79.227 L 118.415 73.591 C 118.415 72.861 117.824 72.27 117.094 72.27 Z  M 33.875 77.906 L 33.875 74.912 L 38.568 74.912 L 39.316 77.906 L 33.875 77.906 Z  M 48.141 117.27 C 48.141 117.319 48.102 117.358 48.053 117.358 L 39.599 117.358 C 39.551 117.358 39.511 117.319 39.511 117.27 L 39.511 114.364 L 41.008 114.364 L 48.141 114.364 L 48.141 117.27 Z  M 110.137 117.27 C 110.137 117.319 110.097 117.358 110.049 117.358 L 101.595 117.358 C 101.546 117.358 101.507 117.319 101.507 117.27 L 101.507 114.364 L 108.64 114.364 L 110.137 114.364 L 110.137 117.27 L 110.137 117.27 Z  M 108.64 111.722 L 41.008 111.722 C 39.089 111.722 37.46 110.463 36.9 108.728 L 112.747 108.728 C 112.188 110.463 110.559 111.722 108.64 111.722 Z  M 86.184 97.456 L 86.184 100.45 L 63.464 100.45 L 63.464 97.456 L 86.184 97.456 Z  M 63.672 94.814 C 64.231 93.079 65.86 91.82 67.779 91.82 L 81.869 91.82 C 83.788 91.82 85.417 93.079 85.977 94.814 L 63.672 94.814 Z  M 86.184 103.092 L 86.184 106.086 L 63.464 106.086 L 63.464 103.092 L 86.184 103.092 Z  M 112.151 88.388 C 112.677 89.124 112.955 89.991 112.955 90.896 L 112.955 106.086 L 88.826 106.086 L 88.826 96.135 C 88.826 92.299 85.705 89.178 81.869 89.178 L 67.779 89.178 C 63.943 89.178 60.822 92.299 60.822 96.135 L 60.822 106.086 L 36.693 106.086 L 36.693 90.896 C 36.693 89.991 36.971 89.124 37.497 88.388 L 43.097 80.548 L 91.732 80.548 C 92.461 80.548 93.053 79.957 93.053 79.227 C 93.053 78.497 92.461 77.906 91.732 77.906 L 44.284 77.906 L 50.789 59.474 C 51.397 57.752 53.032 56.595 54.859 56.595 L 94.79 56.595 C 96.616 56.595 98.251 57.752 98.859 59.474 L 105.364 77.906 L 97.368 77.906 C 96.638 77.906 96.047 78.497 96.047 79.227 C 96.047 79.957 96.638 80.548 97.368 80.548 L 106.551 80.548 L 112.151 88.388 Z  M 115.773 77.906 L 110.332 77.906 L 111.08 74.912 L 115.773 74.912 L 115.773 77.906 Z " fill="rgb(255,255,255)"/><path d=" M 53.689 87.769 L 45.235 87.769 C 44.505 87.769 43.914 88.36 43.914 89.09 C 43.914 89.82 44.505 90.411 45.235 90.411 L 53.689 90.411 C 54.418 90.411 55.01 89.82 55.01 89.09 C 55.01 88.36 54.418 87.769 53.689 87.769 Z " fill="rgb(255,255,255)"/><path d=" M 104.413 87.769 L 95.959 87.769 C 95.229 87.769 94.638 88.36 94.638 89.09 C 94.638 89.82 95.229 90.411 95.959 90.411 L 104.413 90.411 C 105.143 90.411 105.734 89.82 105.734 89.09 C 105.734 88.36 105.143 87.769 104.413 87.769 Z " fill="rgb(255,255,255)"/></g></g></svg>