<?xml version="1.0" standalone="no"?><!-- Generator: Gravit.io --><svg xmlns="http://www.w3.org/2000/svg" xmlns:xlink="http://www.w3.org/1999/xlink" style="isolation:isolate" viewBox="0 0 150 150" width="150" height="150"><g><g><circle vector-effect="non-scaling-stroke" cx="75" cy="75.00000000000001" r="74.99999999999997" fill="rgb(232,232,232)"/><g><path d=" M 67 20.852 L 67 112.437 L 75.369 112.437 L 75.369 29.208 L 130.262 29.208 L 130.262 20.852 L 67 20.852 Z " fill="none" vector-effect="non-scaling-stroke" stroke-width="3.5" stroke="rgb(0,92,203)" stroke-linejoin="round" stroke-linecap="round" stroke-miterlimit="4"/><path d=" M 75.369 29.208 L 75.369 120.792 L 83.738 120.792 L 83.738 37.563 L 138.631 37.563 L 138.631 29.208 L 75.369 29.208 Z " fill="none" vector-effect="non-scaling-stroke" stroke-width="3.5" stroke="rgb(0,92,203)" stroke-linejoin="round" stroke-linecap="round" stroke-miterlimit="4"/><rect x="83.738" y="37.563" width="63.262" height="91.585" transform="matrix(1,0,0,1,0,0)" fill="none" vector-effect="non-scaling-stroke" stroke-width="3.5" stroke="rgb(0,92,203)" stroke-linejoin="round" stroke-linecap="round" stroke-miterlimit="2"/><line x1="93.946" y1="57.452" x2="136.791" y2="57.452" vector-effect="non-scaling-stroke" stroke-width="3.5" stroke="rgb(0,92,203)" stroke-linejoin="round" stroke-linecap="round" stroke-miterlimit="4"/><line x1="93.946" y1="70.404" x2="136.791" y2="70.404" vector-effect="non-scaling-stroke" stroke-width="3.5" stroke="rgb(0,92,203)" stroke-linejoin="round" stroke-linecap="round" stroke-miterlimit="4"/><line x1="93.946" y1="83.356" x2="136.791" y2="83.356" vector-effect="non-scaling-stroke" stroke-width="3.5" stroke="rgb(0,92,203)" stroke-linejoin="round" stroke-linecap="round" stroke-miterlimit="4"/><line x1="93.946" y1="96.307" x2="136.791" y2="96.307" vector-effect="non-scaling-stroke" stroke-width="3.5" stroke="rgb(0,92,203)" stroke-linejoin="round" stroke-linecap="round" stroke-miterlimit="4"/><line x1="93.946" y1="109.259" x2="136.791" y2="109.259" vector-effect="non-scaling-stroke" stroke-width="3.5" stroke="rgb(0,92,203)" stroke-linejoin="round" stroke-linecap="round" stroke-miterlimit="4"/></g></g><g transform="matrix(1,0,0,1,0,-10)"><text transform="matrix(1,0,0,1,0.064,62.871)" style="font-family:'Roboto Slab';font-weight:700;font-size:60px;font-style:normal;font-variant-ligatures:none;fill:#a2a2a2;stroke:none;">3.</text></g></g></svg>