<svg enable-background="new 0 0 45.8 18.8" viewBox="0 0 45.8 18.8" xmlns="http://www.w3.org/2000/svg"><switch><g fill="#231f20"><path d="m8.9 18.8c-2.4 0-4.4-2-4.4-4.4s2-4.4 4.4-4.4 4.4 2 4.4 4.4-1.9 4.4-4.4 4.4zm0-8.3c-2.2 0-3.9 1.8-3.9 3.9s1.8 3.9 3.9 3.9 3.9-1.8 3.9-3.9-1.7-3.9-3.9-3.9z"/><path d="m8.9 17.7c-1.8 0-3.3-1.5-3.3-3.3s1.5-3.3 3.3-3.3 3.3 1.5 3.3 3.3-1.5 3.3-3.3 3.3zm0-6.1c-1.5 0-2.8 1.2-2.8 2.8s1.2 2.8 2.8 2.8 2.8-1.2 2.8-2.8-1.2-2.8-2.8-2.8z"/><path d="m37.3 18.8c-2.4 0-4.4-2-4.4-4.4s2-4.4 4.4-4.4 4.4 2 4.4 4.4-2 4.4-4.4 4.4zm0-8.3c-2.2 0-3.9 1.8-3.9 3.9s1.8 3.9 3.9 3.9 3.9-1.8 3.9-3.9-1.8-3.9-3.9-3.9z"/><path d="m44.6 9.9h-4.1c-.1 0-.3-.1-.3-.3v-1.8c0-.1.1-.2.2-.2 2.7-.3 4.3 1.8 4.3 1.9.1.1.1.2 0 .3s0 .1-.1.1zm-3.8-.5h3.3c-.6-.5-1.7-1.4-3.3-1.4z"/><path d="m14.7 8h-1.6c-.1 0-.3-.1-.3-.3s.1-.3.3-.3h1.6c.1 0 .3.1.3.3s-.1.3-.3.3z"/><path d="m24.4 8.3h-1.6c-.1 0-.3-.1-.3-.3 0-.1.1-.3.3-.3h1.6c.1 0 .3.1.3.3s-.1.3-.3.3z"/><path d="m2.1 8.5c-.1 0-.2-.1-.3-.3 0-.1.1-.2.3-.2.8-.1 1.4-.8 1.7-1.2h-2.4c-.1 0-.3-.1-.3-.3s.1-.3.3-.3h2.9c.1 0 .2 0 .2.1v.2c-.1.2-1 1.7-2.4 2z"/><path d="m30.5 7.1h-8.8l-9.7-.5-6.6-1.3c-.1 0-.1-.1-.2-.1 0-.1 0-.1 0-.2l1.1-2.5c0-.1.1-.1.2-.1.5-.1 12.9-1.7 17.6 0 .3.1 5.2 1.7 6.6 4.5v.2c-.1-.1-.1 0-.2 0zm-24.7-2.3 6.2 1.3 9.6.5h8.4c-1.6-2.4-6.1-3.8-6.1-3.8-4.3-1.6-15.8-.2-17.2 0z"/><path d="m12 6.6c-.2 0-.3-.2-.2-.3l.7-4.5c0-.1.2-.2.3-.2s.2.2.2.3l-.7 4.5c-.1.1-.2.2-.3.2z"/><path d="m21.4 7.1c-.1 0-.3-.1-.3-.3v-4.6c0-.1.1-.2.3-.2s.3.1.3.2v4.7c-.1.1-.2.2-.3.2z"/><path d="m37.3 17.7c-1.8 0-3.3-1.5-3.3-3.3s1.5-3.3 3.3-3.3 3.3 1.5 3.3 3.3-1.5 3.3-3.3 3.3zm0-6.1c-1.5 0-2.8 1.2-2.8 2.8s1.2 2.8 2.8 2.8 2.8-1.2 2.8-2.8-1.3-2.8-2.8-2.8z"/><path d="m32.3 11.9h-18.6c-.1 0-.3-.1-.3-.3s.1-.3.3-.3h18.6c.1 0 .3.1.3.3s-.2.3-.3.3z"/><path d="m44.5 11.9h-2.6c-.1 0-.3-.1-.3-.3s.1-.3.3-.3h2.6c.1 0 .3.1.3.3s-.2.3-.3.3z"/><path d="m4.1 11.9h-2.6c-.1 0-.3-.1-.3-.3s.1-.3.3-.3h2.6c.1 0 .3.1.3.3s-.2.3-.3.3z"/><path d="m33.4 14.9-20.6-.5v-.2c-.1-2.1-1.8-3.7-3.9-3.7-2 0-3.6 1.5-3.9 3.5v.3h-.3c-.3-.1-2-.3-2.8-.4-1.3-.2-2-1-2-2.2s.8-2.3 1.1-2.7c-.2-.9-.2-2.4-.2-2.6v-.1c1.9-4.1 3.8-5.6 3.9-5.7h.1.1c.1 0 10.9-.7 16.5-.6s11.4 4.7 12.1 5.2c6.5.6 9.6 1.5 10.8 2 .5.2.9.6 1 1.1.2.7.4 1.7.4 2.7 0 1.8-.9 2.8-1 2.8l-.1.1-3.6.4v-.3c-.2-2-1.9-3.5-3.9-3.5-2.2 0-3.9 1.8-3.9 3.9v.1.1zm-20.1-1 19.6.5c0-2.4 2-4.4 4.4-4.4 2.2 0 4 1.6 4.3 3.8l2.9-.3c.2-.2.8-1.1.8-2.4 0-1-.2-2-.4-2.6-.1-.4-.4-.6-.7-.8-1.2-.5-4.2-1.4-10.8-2h-.1-.1c-.1-.1-6.3-5-11.9-5.2-5.3-.1-15.3.5-16.3.6-.3.3-2 1.8-3.7 5.4 0 .5.1 1.9.3 2.3l.1.2-.1.1s-1.1 1.2-1.1 2.4c0 1 .5 1.6 1.6 1.7.6.1 2 .3 2.6.4.3-2 2.1-3.6 4.2-3.6 2.3 0 4.2 1.7 4.4 3.9z"/></g></switch></svg>