<svg viewBox="0 0 36.8 28.1" xmlns="http://www.w3.org/2000/svg"><switch><g><g fill="#231f20"><path d="m1.3 28.1c-.7 0-1-.6-1.1-1v-2.4s-.3-2.2-.2-5.3c.1-2.9 2.5-3.8 3.2-4 .3-.9 1.6-4.3 2.7-5 1.2-.8 7-.8 7.6-.8.2 0 .3.2.3.3 0 .2-.2.4-.3.4-2.5 0-6.4.2-7.2.7s-2 3.2-2.5 4.8l-.1.2h-.2c-.1 0-2.8.6-2.8 3.4-.1 3 .2 5.2.2 5.2v2.4s.1.3.4.3h3.6s.2-.2.2-.8v-.3h.3c.1 0 5.3-.5 8.1-.5.2 0 .3.2.3.3s-.2.3-.3.3c-2.4 0-6.6.3-7.7.4-.1 1.3-.8 1.4-.8 1.4z"/><path d="m8.2 22.6h-4.9c-.6 0-1-.5-1-1v-1.4c0-.3.1-.6.4-.8s.6-.3.9-.2l4.9 1.4c.4.1.7.5.7 1 0 .6-.4 1-1 1zm-4.9-2.7c-.1 0-.1 0-.2.1-.1 0-.1.1-.1.2v1.4c0 .2.1.3.3.3h4.9c.2 0 .3-.1.3-.3 0-.1-.1-.3-.2-.3zm20.7 2.7h-4.9c-.6 0-1-.5-1-1s.3-.9.7-1l4.9-1.4c.3-.1.6 0 .9.2s.4.5.4.8v1.4c.1.6-.4 1-1 1zm0-2.7-5 1.4c-.1 0-.2.2-.2.3 0 .2.1.3.3.3h4.9c.2 0 .3-.1.3-.3v-1.4c0-.1 0-.2-.1-.3z"/><path d="m26 28.1h-3.6c-.1 0-.8-.1-.9-1.1-1.2-.1-5.6-.4-8-.4-.2 0-.3-.2-.3-.3s.2-.3.3-.3c2.8 0 8.3.5 8.3.5h.3v.3c0 .6.2.7.3.8h3.6c.3 0 .4-.4.4-.4v-2.3c0-.1.3-2.2.2-5.3-.1-2.8-2.7-3.4-2.8-3.4h-.2l-.1-.2c-.4-1.1-1.6-4.2-2.5-4.8-.8-.5-4.9-.7-7.5-.7-.2 0-.3-.2-.3-.4s.2-.3.3-.3c.7 0 6.6.1 7.9.8 1.1.7 2.4 4.1 2.7 5 .7.2 3.1 1.1 3.2 4 .1 3.1-.2 5.2-.2 5.3v2.3c0 .2-.3.9-1.1.9z"/><path d="m22.4 16.2h-.6s-3.5-.2-7.9-.2c-4.3 0-7.9.2-7.9.2h-.6l.3-.5c.1-.3 1.2-2.6 1.7-3.2s4.2-.8 6.4-.9c2.3.1 6.2.2 6.7.9.5.6 1.6 2.9 1.7 3.2zm-8.5-1c3.3 0 6.2.1 7.3.2-.4-.9-1.1-2.2-1.4-2.5-.4-.3-3.5-.5-6.1-.6-2.5.1-5.5.3-5.9.6-.3.3-.9 1.7-1.3 2.5 1.3 0 4.1-.2 7.4-.2zm16.8 12.9c-.2 0-.3-.2-.3-.3v-16c0-.2.2-.3.3-.3s.3.2.3.3v15.9c0 .2-.1.4-.3.4z"/><path d="m30.7 12.2c-3.4 0-6.1-2.7-6.1-6.1s2.7-6.1 6.1-6.1 6.1 2.7 6.1 6.1c0 3.3-2.8 6.1-6.1 6.1zm0-11.5c-3 0-5.4 2.4-5.4 5.4s2.4 5.4 5.4 5.4 5.4-2.4 5.4-5.4-2.5-5.4-5.4-5.4z"/></g><path d="m32.3 7.8h-3.3c-.6 0-1-.5-1-1v-1.4c0-.6.5-1 1-1h3.3c.6 0 1 .5 1 1v1.3c.1.6-.4 1.1-1 1.1z"/></g></switch></svg>