<svg enable-background="new 0 0 24.4 34.9" viewBox="0 0 24.4 34.9" xmlns="http://www.w3.org/2000/svg"><switch><g><g fill="#231f20"><path d="m22.5 25.5h-20.7c-1 0-1.8-.8-1.8-1.8v-4c0-1 .8-1.8 1.8-1.8h20.7c1 0 1.8.8 1.8 1.8v4c.1 1-.8 1.8-1.8 1.8zm-20.7-6.9c-.6 0-1.1.5-1.1 1.1v4c0 .6.5 1.1 1.1 1.1h20.7c.6 0 1.1-.5 1.1-1.1v-4c0-.6-.5-1.1-1.1-1.1z"/><path d="m17.4 18.6h-10.5v-15.7c0-1.6 1.3-2.9 2.9-2.9h4.8c1.6 0 2.9 1.3 2.9 2.9v15.7zm-9.8-.7h9.1v-15c0-1.2-1-2.2-2.2-2.2h-4.7c-1.2 0-2.2 1-2.2 2.2z"/><path d="m14.6 34.9h-4.8c-1.6 0-2.9-1.3-2.9-2.9v-7.2h10.5v7.2c0 1.6-1.2 2.9-2.8 2.9zm-7-9.4v6.5c0 1.2 1 2.2 2.2 2.2h4.8c1.2 0 2.2-1 2.2-2.2v-6.5z"/><path d="m14.9 18.6h-5.2v-7.8c0-1 .8-1.8 1.8-1.8h1.7c1 0 1.8.8 1.8 1.8v7.8zm-4.5-.7h3.8v-7.1c0-.6-.5-1.1-1.1-1.1h-1.7c-.6 0-1.1.5-1.1 1.1v7.1z"/></g><path d="m23 4c0 .8-.6 1.4-1.4 1.4h-.5v1.2c0 .3-.2.5-.5.5s-.5-.2-.5-.5v-3.5c0-.3.2-.5.5-.5h.9c.9 0 1.5.7 1.5 1.4zm-.9 0c0-.2-.2-.4-.4-.4h-.5v.8h.5c.2.1.4-.1.4-.4z"/><path d="m22.8 14.8c-.2.1-.5.1-.7-.2l-.9-1.5h-.1v1.2c0 .3-.2.5-.5.5s-.5-.2-.5-.5v-3.5c0-.3.2-.5.5-.5h.9c.8 0 1.4.6 1.4 1.4 0 .5-.3 1-.7 1.2l.7 1.1c.2.4.1.7-.1.8zm-1.1-3.4h-.4v.8h.4c.2 0 .4-.2.4-.4s-.2-.4-.4-.4z"/><path d="m23.8 28.1v3.5c0 .4-.5.6-.8.3-.1-.1-.1-.1-.2-.2s-1.5-2.1-1.5-2.3v2.2c0 .3-.2.5-.5.5s-.5-.2-.5-.5v-3.5c0-.3.2-.5.5-.5.2 0 .3.1.4.2s1.1 1.6 1.7 2.4v-2.2c0-.3.2-.5.5-.5.1.2.4.4.4.6z"/></g></switch></svg>