<svg enable-background="new 0 0 45.6 21.6" viewBox="0 0 45.6 21.6" xmlns="http://www.w3.org/2000/svg"><switch><g fill="#231f20"><path d="m40.7 8.4h-9.7c-.1 0-.3-.1-.3-.3v-6.5c0-.1.1-.3.3-.3h3.3c.1 0 .1 0 .2.1l6.4 6.6c.1.1.1.2.1.3-.1.1-.2.1-.3.1zm-9.5-.5h8.9l-5.9-6.1h-2.9v6.1z"/><path d="m7.7 21.6c-2 0-3.6-1.6-3.6-3.6s1.6-3.6 3.6-3.6 3.6 1.6 3.6 3.6-1.6 3.6-3.6 3.6zm0-6.7c-1.7 0-3.1 1.4-3.1 3.1s1.4 3.1 3.1 3.1 3.1-1.4 3.1-3.1-1.4-3.1-3.1-3.1z"/><path d="m7.7 20.5c-1.4 0-2.5-1.1-2.5-2.5s1.1-2.5 2.5-2.5 2.5 1.1 2.5 2.5-1.1 2.5-2.5 2.5zm0-4.5c-1.1 0-2 .9-2 2s.9 2 2 2 2-.9 2-2-.9-2-2-2z"/><path d="m37.7 21.6c-2 0-3.6-1.6-3.6-3.6s1.6-3.6 3.6-3.6 3.6 1.6 3.6 3.6-1.6 3.6-3.6 3.6zm0-6.7c-1.7 0-3.1 1.4-3.1 3.1s1.4 3.1 3.1 3.1 3.1-1.4 3.1-3.1-1.4-3.1-3.1-3.1z"/><path d="m37.7 20.5c-1.4 0-2.5-1.1-2.5-2.5s1.1-2.5 2.5-2.5 2.5 1.1 2.5 2.5c-.1 1.4-1.2 2.5-2.5 2.5zm0-4.5c-1.1 0-2 .9-2 2s.9 2 2 2 2-.9 2-2-1-2-2-2z"/><path d="m2.3 12.6c-.1 0-.2-.1-.2-.2s.1-.3.2-.3c1-.1 1.7-1 2.1-1.5h-2.9c-.1 0-.3-.1-.3-.3s.1-.3.3-.3h3.4c.1 0 .2 0 .2.1v.2c-.1.3-1.1 2.1-2.8 2.3z"/><path d="m32.9 15.8h-20.9c-.1 0-.3-.1-.3-.3s.1-.3.3-.3h20.9c.1 0 .3.1.3.3s-.2.3-.3.3z"/><path d="m43.5 16.7c-.1 0-.3-.1-.3-.3v-1.2-.1l.6-1.2c.1-.1.2-.2.3-.1s.2.2.1.3l-.6 1.1v1.1c.1.3 0 .4-.1.4z"/><path d="m43.8 12.8c-2.3-.2-3.3-2.7-3.3-2.8s0-.2 0-.2c0-.1.1-.1.2-.1h2.8c.1 0 .2.1.2.2l.3 2.7c0 .1 0 .1-.1.2 0 0 0 0-.1 0zm-2.7-2.7c.3.6 1.1 1.9 2.4 2.1l-.2-2.1z"/><path d="m3.9 15.8h-2.4c-.1 0-.3-.1-.3-.3s.1-.3.3-.3h2.4c.1 0 .3.1.3.3s-.2.3-.3.3z"/><path d="m33.4 9.9h-1.7c-.1 0-.3-.1-.3-.3s.1-.3.3-.3h1.7c.1 0 .3.1.3.3s-.2.3-.3.3z"/><path d="m41.7 18h-.7c-.1 0-.2-.1-.2-.2-.1-1.6-1.5-2.9-3.1-2.9s-3 1.3-3.1 2.9c0 .1-.1.2-.2.2h-23.3c-.1 0-.2-.1-.2-.2-.1-1.6-1.5-2.9-3.1-2.9s-3 1.3-3.1 2.9c0 .1-.1.2-.2.2h-3.1c-.1 0-.1 0-.2-.1l-.7-.6c-.3-.1-.5-.6-.5-1v-2.2c0-.5.2-.9.6-1.2l.6-.4v-11.4c0-.6.5-1.1 1-1.1h32.7c.3 0 .6.1.8.3l6.1 6.1 2.4 1.7c.3.2.5.5.5.9l.5 3.8.1.1c.2.2.3.4.3.7v2.1c0 .3-.1.6-.3.8-.6.6-1.7 1.5-3.6 1.5zm-.5-.5h.5c1.7 0 2.7-.8 3.2-1.3.1-.1.2-.3.2-.5v-2.1c0-.1-.1-.3-.2-.3l-.2-.2s-.1-.1-.1-.2l-.4-3.9c0-.2-.1-.4-.3-.5l-2.4-1.7-6.1-6.1c-.1-.1-.3-.2-.4-.2h-32.8c-.3 0-.5.3-.5.6v11.4c0 .1 0 .2-.1.2l-.7.5c-.2.2-.4.5-.4.8v2.2c0 .3.1.6.4.8l.7.5h2.6c.2-1.8 1.8-3.2 3.6-3.2s3.4 1.4 3.6 3.2h22.8c.2-1.8 1.8-3.2 3.6-3.2 1.7.1 3.2 1.4 3.4 3.2z"/></g></switch></svg>