<svg id="Layer_1" xmlns="http://www.w3.org/2000/svg" viewBox="0 0 29.5 29.5"><style/><switch><g><path d="M14.8 29.5C6.6 29.5 0 22.9 0 14.8 0 6.6 6.6 0 14.8 0c8.1 0 14.8 6.6 14.8 14.8-.1 8.1-6.7 14.7-14.8 14.7zm0-28.8C7 .7.7 7 .7 14.8S7 28.9 14.8 28.9s14.1-6.3 14.1-14.1C28.8 7 22.5.7 14.8.7z"/><path d="M14.8 26.3c-6.4 0-11.6-5.2-11.6-11.6 0-6.4 5.2-11.6 11.6-11.6 6.4 0 11.6 5.2 11.6 11.6-.1 6.4-5.3 11.6-11.6 11.6zm0-22.4c-6 0-10.9 4.9-10.9 10.9s4.9 10.9 10.9 10.9 10.9-4.9 10.9-10.9c-.1-6-4.9-10.9-10.9-10.9z"/><path d="M14.8 18.2c-1.9 0-3.4-1.5-3.4-3.4s1.5-3.4 3.4-3.4 3.4 1.5 3.4 3.4c0 1.8-1.6 3.4-3.4 3.4zm0-6.1c-1.5 0-2.7 1.2-2.7 2.7s1.2 2.7 2.7 2.7 2.7-1.2 2.7-2.7-1.3-2.7-2.7-2.7z"/><path transform="rotate(-7.539 21.346 12.291)" d="M17.1 11.9h8.5v.7h-8.5z"/><path d="M17.4 16.7l-.2-.6 8.6-2.9.2.7z"/><path transform="rotate(-82.438 8.13 12.287)" d="M7.8 8h.7v8.5h-.7z"/><path d="M12 16.7l-8.5-2.8.2-.7 8.5 2.9z"/><path transform="rotate(-7.088 13.22 21.441)" d="M12.9 16.9h.7v9h-.7z"/><path transform="rotate(-83.91 16.392 21.434)" d="M11.9 21.1h9v.7h-9z"/><path d="M14.8 9.1c-.2 0-.3-.2-.3-.3V7c0-.2.2-.3.3-.3s.3.2.3.3v1.8c0 .1-.1.3-.3.3zM12.4 9.5c-.1 0-.3-.1-.3-.2l-.7-1.6c-.1-.2 0-.4.2-.5.2-.1.4 0 .5.2l.6 1.6c.1.2 0 .4-.2.5h-.1zM10.4 10.9c-.1 0-.2 0-.2-.1L8.9 9.6c-.1-.1-.1-.4 0-.5.1-.1.3-.1.5 0l1.3 1.2c.1.1.1.4 0 .5-.1.1-.2.1-.3.1zM17.1 9.5H17c-.2-.1-.3-.3-.2-.5l.7-1.6c.1-.2.3-.3.5-.2.2.1.3.3.2.5l-.7 1.6c-.1.2-.2.2-.4.2zM19.1 10.9c-.1 0-.2 0-.3-.1-.1-.1-.1-.4 0-.5l1.3-1.2c.1-.1.4-.1.5 0 .1.1.1.4 0 .5l-1.3 1.2c0 .1-.1.1-.2.1z"/></g></switch></svg>