<svg height="448" viewBox="0 0 639.6 448" width="639.6" xmlns="http://www.w3.org/2000/svg"><path d="m589.7 49.9c-32.2-32.2-74.8-49.9-120.1-49.9h-169.6l-1 .1c-1.9.2-12.1 1.5-22.6 7.3-16.4 9-25.3 24.2-25.3 42.6v.2c.4 34.7 29.5 48.8 49 49.7h.5 169c18.5 0 36.1 7.3 49.4 20.6s20.6 30.8 20.6 49.4v40c0 18.5-7.3 36.1-20.6 49.4s-30.8 20.6-49.4 20.6h-253.9v-49.6c0-16.5-11.8-23.4-26.2-15.3l-178.7 100.2c-14.4 8.1-14.4 21.3 0 29.3l178.8 100.1c14.4 8.1 26.2 1.2 26.2-15.3v-49.3h253.9c45.2 0 87.9-17.7 120.1-49.9s49.9-74.8 49.9-120.1v-40c-.1-45.2-17.8-87.9-50-120.1z" fill="#737171"/></svg>