<svg viewBox="0 0 25 30.4" xmlns="http://www.w3.org/2000/svg" xmlns:xlink="http://www.w3.org/1999/xlink"><clipPath id="a"><path d="m20.6 15.8c0-5.4 4.4-9 4.4-9l-2.6-3.8c-6 1.7-7.3-3-7.3-3h-5.1s-1.3 4.8-7.3 3l-2.7 3.7s4.4 3.7 4.4 9-4.4 9-4.4 9l2.9 3.9s5-3.8 9.6 1.7c4.6-5.5 9.6-1.7 9.6-1.7l2.9-3.9c0 .1-4.4-3.6-4.4-8.9z"/></clipPath><clipPath id="b"><path d="m-3-.4h29.2v29.2h-29.2z" transform="matrix(.98842515 .15170937 -.15170937 .98842515 2.29439 -1.59212)"/></clipPath><switch><g><path d="m12.5 30.7c-.1 0-.2 0-.3-.1-4.3-5.2-8.9-1.8-9.1-1.7-.1.2-.3.1-.4 0l-3-3.9c-.1-.1-.1-.4.1-.5 0 0 4.2-3.6 4.2-8.8 0-5.1-4.2-8.7-4.2-8.7-.1-.1-.2-.3-.1-.5l2.6-3.7c.1-.1.2-.2.4-.1 1.9.6 3.5.5 4.8-.2 1.6-.9 2.1-2.6 2.1-2.6 0-.2.2-.3.3-.3h5.1c.2 0 .3.1.3.3 0 0 .5 1.7 2.1 2.6 1.3.7 2.9.8 4.8.2.1 0 .3 0 .4.1l2.6 3.7c.1.1.1.4-.1.5 0 0-4.2 3.6-4.2 8.8s4.2 8.7 4.2 8.8c.1.1.2.3.1.5l-2.9 3.9c-.1.2-.3.2-.5.1s-4.8-3.5-9.1 1.7c0-.1-.1-.1-.2-.1zm-5.6-3.6c1.7 0 3.7.6 5.6 2.8 4-4.5 8.3-2.4 9.5-1.7l2.6-3.3c-1-.9-4.2-4.3-4.2-9.1s3.3-8.2 4.3-9.1l-2.3-3.2c-2 .5-3.7.4-5.1-.4-1.5-.8-2.1-2.2-2.3-2.7h-4.6c-.4.5-1 1.9-2.5 2.7-1.4.8-3.1.9-5.1.4l-2.3 3.2c.9.9 4.3 4.3 4.3 9.1s-3.3 8.2-4.2 9.1l2.4 3.3c.6-.4 2.1-1.1 3.9-1.1z" fill="#231f20"/><g clip-path="url(#a)"><g clip-path="url(#b)"><path d="m-8.3 2.2 25.4 34.6" fill="#fff"/><path d="m17.1 37.2c-.1 0-.2 0-.3-.1l-25.4-34.7c-.1-.2-.1-.4.1-.5.1-.1.4-.1.5.1l25.4 34.6c.1.2.1.4-.1.5-.1 0-.1.1-.2.1z" fill="#231f20"/><path d="m-11.9 4.8 25.4 34.7" fill="#fff"/><path d="m13.5 39.8c-.1 0-.2 0-.3-.1l-25.4-34.7c-.1-.2-.1-.4.1-.5s.4-.1.5.1l25.4 34.6c.1.2.1.4-.1.5 0 .1-.1.1-.2.1z" fill="#231f20"/><path d="m-15.5 7.5 25.4 34.6" fill="#fff"/><path d="m9.9 42.4c-.1 0-.2 0-.3-.1l-25.4-34.6c-.1-.2-.1-.4.1-.5s.4-.1.5.1l25.4 34.6c.1.2.1.4-.1.5z" fill="#231f20"/><path d="m-19.7 10.5 25.5 34.6" fill="#fff"/><path d="m5.8 45.5c-.1 0-.2 0-.3-.1l-25.4-34.6c-.1-.2-.1-.4.1-.5s.4-.1.5.1l25.3 34.5c.1.2.1.4-.1.5 0 .1-.1.1-.1.1z" fill="#231f20"/><path d="m-4.7-.4 25.4 34.6" fill="#fff"/><path d="m20.7 34.5c-.1 0-.2 0-.3-.1l-25.4-34.6c-.1-.2-.1-.4.1-.5s.4-.1.5.1l25.4 34.6c.1.2.1.4-.1.5z" fill="#231f20"/><path d="m-1.1-3.1 25.4 34.6" fill="#fff"/><path d="m24.3 31.9c-.1 0-.2 0-.3-.1l-25.4-34.7c-.1-.1-.1-.3.1-.5.1-.1.3 0 .5.1l25.4 34.6c.1.2.1.4-.1.5-.1.1-.1.1-.2.1z" fill="#231f20"/><path d="m2.5-5.7 25.4 34.6" fill="#fff"/><path d="m27.9 29.3c-.1 0-.2 0-.3-.1l-25.4-34.7c-.1-.2-.1-.4.1-.5s.4-.1.5.1l25.4 34.6c.1.2.1.4-.1.5-.1 0-.2.1-.2.1z" fill="#231f20"/><path d="m6.1-8.3 25.4 34.6" fill="#fff"/><path d="m31.5 26.6c-.1 0-.2 0-.3-.1l-25.4-34.6c-.1-.2-.1-.4 0-.5.2-.1.4-.1.5 0l25.4 34.6c.1.2.1.4-.1.5 0 .1-.1.1-.1.1z" fill="#231f20"/><path d="m21-19.3 25.4 34.6" fill="#fff"/><path d="m46.4 15.7c-.1 0-.2 0-.3-.1l-25.4-34.7c-.1-.2-.1-.4.1-.5s.4-.1.5.1l25.4 34.6c.1.2.1.4-.1.5-.1 0-.1.1-.2.1z" fill="#231f20"/><path d="m17.4-16.7 25.4 34.7" fill="#fff"/><path d="m42.8 18.3c-.1 0-.2 0-.3-.1l-25.4-34.7c-.1-.1-.1-.3.1-.5.2-.1.4-.1.5.1l25.4 34.6c.1.2.1.4-.1.5 0 .1-.1.1-.2.1z" fill="#231f20"/><path d="m13.8-14 25.4 34.6" fill="#fff"/><path d="m39.2 20.9c-.1 0-.2 0-.3-.1l-25.4-34.6c-.1-.2-.1-.4.1-.5s.4-.1.5.1l25.4 34.6c.1.2.1.4-.1.5z" fill="#231f20"/><path d="m9.6-11 25.5 34.6" fill="#fff"/><path d="m35.1 24c-.1 0-.2 0-.3-.1l-25.4-34.7c-.1-.2-.1-.4.1-.5s.4-.1.5.1l25.4 34.6c.1.2.1.4-.1.5-.1.1-.2.1-.2.1z" fill="#231f20"/><path d="m24.6-21.9 25.4 34.6" fill="#fff"/><path d="m50 13c-.1 0-.2 0-.3-.1l-25.4-34.6c-.1-.2-.1-.4.1-.5s.4-.1.5.1l25.4 34.6c.1.2.1.4-.1.5z" fill="#231f20"/></g></g></g></switch></svg>