<svg enable-background="new 0 0 24.9 30.6" viewBox="0 0 24.9 30.6" xmlns="http://www.w3.org/2000/svg"><switch><g fill="#231f20"><path d="m4.2 10.3h-1.8c-1.3 0-2.4-1.1-2.4-2.5v-5.4c0-1.3 1.1-2.4 2.4-2.4h1.8c1.3 0 2.4 1.1 2.4 2.4v5.4c.1 1.4-1 2.5-2.4 2.5zm-1.8-9.6c-1 0-1.7.8-1.7 1.7v5.4c0 1 .8 1.7 1.7 1.7h1.8c1 0 1.7-.8 1.7-1.7v-5.4c0-1-.8-1.7-1.7-1.7z"/><path d="m22.4 10.3h-1.8c-1.3 0-2.4-1.1-2.4-2.4v-5.5c0-1.3 1.1-2.4 2.4-2.4h1.8c1.3 0 2.4 1.1 2.4 2.4v5.4c.1 1.4-1 2.5-2.4 2.5zm-1.7-9.6c-1 0-1.7.8-1.7 1.7v5.4c0 1 .8 1.7 1.7 1.7h1.8c1 0 1.7-.8 1.7-1.7v-5.4c0-1-.8-1.7-1.7-1.7z"/><path d="m4.2 30.6h-1.8c-1.3 0-2.4-1.1-2.4-2.4v-5.4c0-1.3 1.1-2.4 2.4-2.4h1.8c1.3 0 2.4 1.1 2.4 2.4v5.4c.1 1.3-1 2.4-2.4 2.4zm-1.8-9.6c-1 0-1.7.8-1.7 1.7v5.4c0 1 .8 1.7 1.7 1.7h1.8c1 0 1.7-.8 1.7-1.7v-5.4c0-1-.8-1.7-1.7-1.7z"/><path d="m22.4 30.6h-1.8c-1.3 0-2.4-1.1-2.4-2.4v-5.4c0-1.3 1.1-2.4 2.4-2.4h1.8c1.3 0 2.4 1.1 2.4 2.4v5.4c.1 1.3-1 2.4-2.4 2.4zm-1.7-9.6c-1 0-1.7.8-1.7 1.7v5.4c0 1 .8 1.7 1.7 1.7h1.8c1 0 1.7-.8 1.7-1.7v-5.4c0-1-.8-1.7-1.7-1.7z"/><path d="m18.6 5.5h-12.3c-.2 0-.3-.2-.3-.4s.2-.3.4-.3h12.2c.2 0 .3.2.3.3s-.1.4-.3.4z"/><path d="m12.4 13.3c-.2 0-.4-.2-.4-.3v-7.9c0-.2.2-.3.4-.3s.4.2.4.3v7.9c0 .2-.2.3-.4.3z"/><path d="m18.6 26.1h-12.3c-.2 0-.4-.2-.4-.3s.2-.3.4-.3h12.2c.2 0 .3.2.3.3s0 .3-.2.3z"/><path d="m12.4 26.1c-.2 0-.4-.2-.4-.3v-7.8c0-.2.2-.3.4-.3s.4.2.4.3v7.8c0 .1-.2.3-.4.3z"/><path d="m12.4 18.2c-1.4 0-2.5-1.1-2.5-2.5s1.1-2.5 2.5-2.5 2.5 1.1 2.5 2.5-1.1 2.5-2.5 2.5zm0-4.4c-1 0-1.8.8-1.8 1.8s.8 1.8 1.8 1.8 1.8-.8 1.8-1.8-.7-1.8-1.8-1.8z"/></g></switch></svg>