<svg enable-background="new 0 0 12.7 25.3" viewBox="0 0 12.7 25.3" xmlns="http://www.w3.org/2000/svg"><switch><g fill="#231f20"><path d="m6 25.3h-.1c-.1-.1-.2-.2-.2-.3v-24.6c0-.1.1-.3.2-.3.1-.1.3-.1.4 0l6.3 6c.1.1.1.2.1.3s0 .2-.1.3l-6.1 5.6 6.1 6.1c.1.1.1.4 0 .5l-6.3 6.3c-.1 0-.2.1-.3.1zm.4-12.2v11l5.5-5.5zm0-11.9v10.3l5.5-5z"/><path d="m6.7 13.3c-.1 0-.2 0-.2-.1l-6.4-6.4c-.1-.1-.1-.4 0-.5s.4-.1.5 0l6.4 6.4c.1.1.1.4 0 .5-.1 0-.2.1-.3.1z"/><path d="m.4 18.3c-.1 0-.2 0-.2-.1-.2-.2-.2-.4-.1-.5l6.8-6.8c.1-.1.4-.1.5 0s.1.4 0 .5l-6.8 6.8c-.1 0-.2.1-.2.1z"/></g></switch></svg>