<svg enable-background="new 0 0 44.5 15.9" viewBox="0 0 44.5 15.9" xmlns="http://www.w3.org/2000/svg"><switch><g fill="#231f20"><path d="m43 8.7-3.1-.3c-.1 0-.2-.1-.2-.2l-.6-1.6c0-.1 0-.2 0-.2s.1-.1.2-.1c2.5 0 3.8 2 3.9 2.1s.1.2 0 .3c0 0-.1 0-.2 0zm-2.9-.8 2.3.3c-.5-.5-1.4-1.2-2.7-1.4z"/><path d="m17.2 6.4h-1.7c-.1 0-.3-.1-.3-.3s.1-.3.3-.3h1.7c.1 0 .3.1.3.3s-.2.3-.3.3z"/><path d="m1.3 9.6c-.1 0-.2-.1-.3-.2 0-.1.1-.3.2-.3.8-.1 1.4-.8 1.7-1.2h-2.3c-.1 0-.3-.1-.3-.3s.1-.3.3-.3h2.9c.1 0 .2 0 .2.1v.2c-.1.2-1 1.8-2.4 2z"/><path d="m8.6 15c-1.5 0-2.6-1.2-2.6-2.6s1.2-2.6 2.6-2.6 2.6 1.2 2.6 2.6-1.2 2.6-2.6 2.6zm0-4.7c-1.2 0-2.1.9-2.1 2.1s.9 2.1 2.1 2.1 2.1-.9 2.1-2.1-1-2.1-2.1-2.1z"/><path d="m35.6 15c-1.4 0-2.6-1.2-2.6-2.6s1.2-2.6 2.6-2.6 2.6 1.2 2.6 2.6-1.2 2.6-2.6 2.6zm0-4.7c-1.2 0-2.1.9-2.1 2.1s.9 2.1 2.1 2.1 2.1-.9 2.1-2.1-.9-2.1-2.1-2.1z"/><path d="m31.3 10.8-18.7-.3c-.1 0-.2-.1-.2-.3 0-.1.1-.2.3-.2l18.7.3c.1 0 .2.1.2.3-.1.1-.2.2-.3.2z"/><path d="m8.6 15.9c-1.9 0-3.5-1.6-3.5-3.5s1.6-3.5 3.5-3.5 3.5 1.6 3.5 3.5-1.6 3.5-3.5 3.5zm0-6.5c-1.7 0-3 1.4-3 3s1.4 3 3 3 3-1.4 3-3-1.3-3-3-3z"/><path d="m35.6 15.9c-1.9 0-3.5-1.6-3.5-3.5s1.6-3.5 3.5-3.5 3.5 1.6 3.5 3.5-1.6 3.5-3.5 3.5zm0-6.5c-1.7 0-3 1.4-3 3s1.4 3 3 3 3-1.4 3-3-1.3-3-3-3z"/><path d="m39.4 13.1h-.5c-.1 0-.1 0-.2-.1 0-.1-.1-.1-.1-.2 0-.2 0-.3 0-.4 0-1.7-1.4-3-3-3s-3 1.4-3 3v.2.1c0 .1 0 .1-.1.2 0 .1-.1.1-.2.1l-20.5-.4c-.1 0-.2-.1-.2-.2-.1-1.6-1.4-2.9-3-2.9s-2.9 1.2-3 2.8c0 .1-.1.2-.2.2l-3.4-.1c-.1 0-.1 0-.2-.1-1.4-1.5-1.9-2.6-1.8-3.7s.8-2 2.2-3c2.5-1.9 6.3-2.2 6.8-2.3.3-.1 2-.7 2.6-.9.7-.2 1 .8 1.1 1.2 3.8.5 11.8.8 13.4.8 0-.3.1-.5.2-.6l-1.8-2.4c-.2-.1-.3-.3-.3-.5s.1-.4.2-.6l.3-.3c.2 0 .5 0 .7.1l5.2 3.8c1.5.1 12.1 1.4 13.2 3.1 1.2 1.8.3 4.3.3 4.4s-.1.1-.1.2l-.6.2c-.7 1.1-3.7 1.3-4 1.3zm-.3-.5h.2c.9 0 3.2-.3 3.7-1.2 0-.1.1-.1.1-.1l.5-.2c.1-.5.6-2.5-.3-3.8-.8-1.2-8.2-2.4-13-3h-.1l-5.2-3.8s-.1 0-.1.1l-.3.3c-.1 0-.1.1-.1.1s0 .1.1.1c0 0 .1 0 .1.1l2 2.6c.1.1.1.2 0 .3 0 0-.3.3-.2.7v.2s0 0-.1 0-9.7-.3-13.9-.9c-.1 0-.2-.1-.2-.2-.1-.4-.4-1-.6-1-.6.1-2.5.8-2.6.9 0 0 0 0-.1 0 0 0-4.1.3-6.5 2.1-1.3.9-1.9 1.8-2 2.7s.4 2 1.5 3.2l3.1.1c.2-1.7 1.7-3 3.5-3s3.3 1.4 3.5 3.2l20 .4s0 0 0-.1c0-1.9 1.6-3.5 3.5-3.5s3.5 1.6 3.5 3.5z"/><path d="m17.4 4.6c-.1 0-.2 0-.2-.1l-1.4-2.2h-1l.5 1.8c0 .1 0 .3-.2.3-.1 0-.3 0-.3-.2l-.6-2.1c0-.1 0-.2 0-.2 0-.1.1-.1.2-.1h1.6c.1 0 .2 0 .2.1l1.4 2.3c.1.1 0 .3-.1.3 0 0 0 .1-.1.1z"/><path d="m41.6 11.8c-.2-.1-.3-.2-.2-.3l.5-1.1c0-.1.1-.2.2-.2h1c.1 0 .3.1.3.3s-.1.3-.3.3h-.8l-.4 1c-.1-.1-.2 0-.3 0z"/></g></switch></svg>