<svg enable-background="new 0 0 30.2 26.4" viewBox="0 0 30.2 26.4" xmlns="http://www.w3.org/2000/svg"><switch><g fill="#231f20"><path d="m13.6 19.1c-1.3 0-2.3-1-2.3-2.3s1-2.3 2.3-2.3 2.3 1 2.3 2.3-1 2.3-2.3 2.3zm0-3.9c-.9 0-1.6.7-1.6 1.6s.7 1.6 1.6 1.6 1.6-.7 1.6-1.6-.7-1.6-1.6-1.6z"/><path d="m14.9 15.7c-.1 0-.2 0-.2-.1-.1-.1-.1-.4 0-.5l3.2-3.2c.1-.1.4-.1.5 0s.1.4 0 .5l-3.2 3.2c-.1.1-.2.1-.3.1z"/><path d="m25.4 5.1c-.1 0-.2 0-.2-.1-.1-.1-.1-.4 0-.5l4.4-4.4c.1-.1.4-.1.5 0s.1.4 0 .5l-4.4 4.4c-.1.1-.2.1-.3.1z"/><path d="m22.9 26.4c-.1 0-.2 0-.2-.1l-2.4-2.3c-.1-.1-.1-.4 0-.5s.4-.1.5 0l2.1 2.1c2.2-2.4 3.4-5.5 3.4-8.7 0-7.1-5.7-12.9-12.8-12.9s-12.8 5.8-12.8 12.8c0 3.2 1.2 6.3 3.4 8.7l2-2c.1-.1.4-.1.5 0s.1.4 0 .5l-2.3 2.3c-.1.1-.2.1-.2.1-.1 0-.2 0-.3-.1-2.4-2.6-3.8-5.9-3.8-9.5 0-7.4 6.1-13.5 13.5-13.5s13.5 6.1 13.5 13.5c0 3.6-1.4 6.9-3.9 9.5 0 .1-.1.1-.2.1z"/><path d="m4.1 17.2h-3.8c-.1 0-.3-.2-.3-.4s.2-.3.3-.3h3.8c.2 0 .3.2.3.3s-.1.4-.3.4z"/><path d="m26.7 17.2h-3.8c-.2 0-.3-.2-.3-.3s.2-.3.3-.3h3.8c.2 0 .3.2.3.3s-.1.3-.3.3z"/><path d="m20.1 10.4c-.1 0-.2 0-.2-.1-.1-.1-.1-.4 0-.5l2.7-2.7c0-.1.2-.1.4.1s.1.4 0 .5l-2.7 2.7c-.1 0-.2 0-.2 0z"/><path d="m13.4 7.8c-.2 0-.3-.2-.3-.3v-3.8c0-.2.2-.3.3-.3s.3.2.3.3v3.8c.1.1-.1.3-.3.3z"/><path d="m7 10.4c-.1 0-.2 0-.2-.1l-2.7-2.6c-.1-.1-.1-.4 0-.5s.4-.1.5 0l2.7 2.7c.1.1.1.4 0 .5-.1 0-.2 0-.3 0z"/><path d="m28.7 5.4h-3.5c-.2 0-.3-.2-.3-.3v-3.2c0-.2.2-.3.3-.3s.3.2.3.3v2.8h3.2c.2 0 .3.1.3.3s-.1.4-.3.4z"/></g></switch></svg>