<svg viewBox="0 0 42.3 18.4" xmlns="http://www.w3.org/2000/svg"><switch><g fill="#231f20"><path d="m21.2 12.6c-1 0-1.9-.8-1.9-1.9s.8-1.9 1.9-1.9 1.9.8 1.9 1.9-.9 1.9-1.9 1.9zm0-3.1c-.7 0-1.2.5-1.2 1.2s.5 1.2 1.2 1.2 1.2-.5 1.2-1.2-.5-1.2-1.2-1.2z"/><path d="m22.3 9.9c-.1 0-.2 0-.2-.1-.1-.1-.1-.4 0-.5l2.6-2.6c.1-.1.4-.1.5 0s.1.4 0 .5l-2.6 2.6c-.2.1-.3.1-.3.1z"/><path d="m28.5 18.4c-.1 0-.2 0-.2-.1l-1.8-1.8c-.1-.1-.1-.4 0-.5s.4-.1.5 0l1.6 1.6c1.7-1.9 2.6-4.3 2.6-6.8 0-5.5-4.5-10-10-10s-10 4.5-10 10c0 2.5.9 4.9 2.6 6.8l1.5-1.5c.1-.1.4-.1.5 0s.1.4 0 .5l-1.8 1.8c-.1.1-.2.1-.2.1-.1 0-.2 0-.3-.1-2-2-3.1-4.7-3.1-7.5 0-6.1 4.8-10.9 10.7-10.9s10.7 4.8 10.7 10.7c0 2.8-1.1 5.5-3.1 7.5 0 .1-.1.2-.2.2z"/><path d="m13.7 11.1h-3c-.2 0-.3-.2-.3-.3s.2-.3.3-.3h3c.2 0 .3.2.3.3s-.1.3-.3.3zm-10.9 4.3h-2.3c-.2 0-.3-.2-.3-.3s.2-.3.3-.3h2.3c.2 0 .3.2.3.3s-.1.3-.3.3zm2.8-4.9c-.1 0-.2 0-.2-.1l-1.7-1.6c-.1-.1-.1-.4 0-.5s.4-.1.5 0l1.6 1.6c.1.1.1.4 0 .5s-.2.1-.2.1zm25.9.6h-3c-.2 0-.3-.2-.3-.3s.2-.3.3-.3h3c.2 0 .3.2.3.3s-.1.3-.3.3zm-5.2-5.3c-.1 0-.2 0-.2-.1-.1-.1-.1-.4 0-.5l2.1-2.1c.1-.1.4-.1.5 0s.1.4 0 .5l-2.1 2.1c-.1 0-.2.1-.3.1zm-5.2-2.1c-.2 0-.3-.2-.3-.3v-3c0-.2.2-.3.3-.3s.3.2.3.3v3c0 .1-.2.3-.3.3zm-5.1 2.1c-.1 0-.2 0-.2-.1l-2.1-2.1c-.1-.1-.1-.4 0-.5s.4-.1.5 0l2.1 2.1c.1.1.1.4 0 .5-.2 0-.2.1-.3.1z"/><path d="m1.3 18.4c-.1 0-.2-.1-.3-.2-.7-1.1-1-2.4-1-3.7 0-4.1 3.3-7.4 7.4-7.4.6 0 1.1.1 1.7.2.2 0 .3.2.3.4s-.3.3-.5.3c-.5-.1-1-.2-1.5-.2-3.7 0-6.7 3-6.7 6.7 0 1.2.3 2.4.9 3.4.1.2 0 .4-.1.5zm40.5-3h-2.2c-.2 0-.3-.2-.3-.3s.2-.3.3-.3h2.2c.2 0 .3.2.3.3s-.1.3-.3.3zm-5-4.9c-.1 0-.2 0-.2-.1-.1-.1-.1-.4 0-.5l1.6-1.6c.1-.1.4-.1.5 0s.1.4 0 .5l-1.7 1.6c-.1.1-.1.1-.2.1z"/><path d="m41 18.4h-.2c-.2-.1-.2-.3-.1-.5.6-1 .9-2.2.9-3.4 0-3.7-3-6.7-6.7-6.7-.5 0-1 .1-1.5.2-.2 0-.4-.1-.4-.3s.1-.4.3-.4c.6-.1 1.1-.2 1.7-.2 4.1 0 7.4 3.3 7.4 7.4 0 1.3-.3 2.6-1 3.7-.2.1-.3.2-.4.2z"/></g></switch></svg>