<svg enable-background="new 0 0 14.2 23.6" viewBox="0 0 14.2 23.6" xmlns="http://www.w3.org/2000/svg"><switch><g fill="#231f20"><path d="m7.1 15.1c-3.9 0-7.1-3.1-7.1-7v-3.8c0-.2.2-.3.3-.3h13.5c.2 0 .3.2.3.3v3.8c.1 3.9-3.1 7-7 7zm-6.4-10.5v3.4c0 3.5 2.9 6.4 6.4 6.4s6.4-2.9 6.4-6.4v-3.4z"/><path d="m7.1 23.6c-.2 0-.3-.2-.3-.3v-8.5c0-.2.2-.3.3-.3s.3.2.3.3v8.5c0 .2-.1.3-.3.3z"/><path d="m3.7 4.6c-.2 0-.3-.2-.3-.3v-4c0-.1.1-.3.3-.3s.3.2.3.3v3.9c.1.3-.1.4-.3.4z"/><path d="m10.2 4.6c-.2 0-.3-.2-.3-.3v-4c-.1-.1.1-.3.3-.3s.3.2.3.3v3.9c0 .3-.1.4-.3.4z"/></g></switch></svg>