<svg enable-background="new 0 0 33.8 24.5" viewBox="0 0 33.8 24.5" xmlns="http://www.w3.org/2000/svg"><switch><g><g fill="#231f20"><path d="m26.7 15.4c-3.9 0-7.1-3.2-7.1-7.1v-3.8c0-.2.2-.3.3-.3h13.5c.2 0 .3.2.3.3v3.8c.1 3.9-3.1 7.1-7 7.1zm-6.4-10.5v3.4c0 3.5 2.9 6.4 6.4 6.4s6.4-2.9 6.4-6.4v-3.4z"/><path d="m26.7 23.9c-.2 0-.3-.2-.3-.3v-8.6c0-.2.2-.3.3-.3s.3.1.3.3v8.5c0 .2-.1.4-.3.4z"/><path d="m23.3 4.9c-.2 0-.3-.2-.3-.3v-4c0-.2.2-.3.3-.3s.3.2.3.3v3.9c.1.2-.1.4-.3.4z"/><path d="m29.8 4.9c-.2 0-.3-.2-.3-.3v-4c0-.2.2-.3.3-.3s.3.2.3.3v3.9c0 .2-.1.4-.3.4z"/><path d="m8.4 24.5c-4.5 0-8.4-3.8-8.4-8.3 0-4.4 7.7-15.6 8.1-16.1.1-.1.4-.1.6 0 .3.5 8.1 11.7 8.1 16.1-.1 4.5-3.9 8.3-8.4 8.3zm0-23.5c-1.5 2.1-7.7 11.5-7.7 15.2 0 4.1 3.5 7.6 7.7 7.6s7.7-3.5 7.7-7.6c-.1-3.7-6.3-13.1-7.7-15.2z"/></g><path d="m3.4 17.4s.4 2 2.6 3.1" fill="#fff"/><path d="m6 20.8c-.1 0-.1 0-.2 0-2.3-1.1-2.8-3.2-2.8-3.3 0-.2.1-.4.3-.4s.4.1.4.3c0 0 .4 1.9 2.4 2.8.2.1.2.3.2.5 0 0-.1.1-.3.1z" fill="#231f20"/><path d="m12.7 13.7c0 2.3-1.9 4.2-4.2 4.2h-1.9c-.5 0-.9-.4-.9-.9v-6.6c0-.5.4-.9.9-.9h1.9c2.3-.1 4.2 1.8 4.2 4.2zm-1.9 0c0-1.3-1.1-2.4-2.4-2.4h-.9v4.8h.9c1.4 0 2.4-1.1 2.4-2.4z"/></g></switch></svg>