<svg enable-background="new 0 0 23 29.5" viewBox="0 0 23 29.5" xmlns="http://www.w3.org/2000/svg" xmlns:xlink="http://www.w3.org/1999/xlink"><clipPath id="a"><path d="m-35.6 70.3c0-5.4 4.4-9 4.4-9l-2.6-3.7c-6 1.7-7.3-3-7.3-3h-2.5-2.5s-1.3 4.8-7.3 3l-2.6 3.7s4.4 3.7 4.4 9-4.4 9-4.4 9l2.9 3.9s5-3.8 9.6 1.7c4.6-5.5 9.6-1.7 9.6-1.7l2.9-3.9c-.2.1-4.6-3.6-4.6-9z"/></clipPath><clipPath id="b"><path d="m-59.3 54.2h29.2v29.2h-29.2z" transform="matrix(.9884 .1517 -.1517 .9884 9.9229 7.5749)"/></clipPath><switch><g><g fill="#231f20"><path d="m19.4 25.5c-.2 0-.3-.2-.3-.3v-22.8c0-.9-.8-1.7-1.7-1.7h-12.1c-.9 0-1.7.8-1.7 1.7v22.7c0 .2-.2.3-.3.3s-.3-.2-.3-.3v-22.7c-.1-1.3 1-2.4 2.3-2.4h12.1c1.3 0 2.4 1.1 2.4 2.4v22.7c-.1.2-.2.4-.4.4z"/><path d="m22.7 29.5h-22.4c-.2 0-.3-.2-.3-.3v-4c0-.2.2-.3.3-.3h22.3c.2 0 .3.2.3.3v4c.1.1 0 .3-.2.3zm-22-.7h21.6v-3.3h-21.6z"/><path d="m16.9 7.7h-10.9c-.2 0-.3-.2-.3-.3v-4c-.1-.2.1-.4.3-.4h10.9c.2 0 .3.2.3.3v4c0 .3-.1.4-.3.4zm-10.6-.7h10.2v-3.3h-10.2z"/></g><path d="m14.7 20.5c0 .6-.5 1.2-1.2 1.2h-3.7c-.7 0-1.2-.5-1.2-1.2v-8.7c0-.6.5-1.2 1.2-1.2h3.7c.6 0 1.2.5 1.2 1.2s-.5 1.2-1.2 1.2h-2.5v2.1h2.4c.6 0 1 .5 1 1 0 .6-.5 1-1 1h-2.4v2.1h2.5c.7.1 1.2.6 1.2 1.3z"/><g clip-path="url(#a)"><g clip-path="url(#b)"><path d="m-24.5 27.4 25.4 34.6" fill="#fff"/><path d="m.9 62.3c-.1 0-.2 0-.3-.1l-25.4-34.6c-.1-.2-.1-.4.1-.5s.4-.1.5.1l25.4 34.6c.1.2.1.4-.1.5 0 0-.1 0-.2 0z" fill="#231f20"/><path d="m-20.9 24.7 25.4 34.6" fill="#fff"/><path d="m4.5 59.7c-.1 0-.2 0-.3-.1l-25.4-34.6c-.1-.2-.1-.4.1-.5s.4-.1.5.1l25.4 34.5c.1.2.1.4-.1.5 0 .1-.1.1-.2.1z" fill="#231f20"/></g></g></g></switch></svg>