<svg enable-background="new 0 0 28.3 29.5" viewBox="0 0 28.3 29.5" xmlns="http://www.w3.org/2000/svg"><switch><g fill="#231f20"><path d="m24.7 25.5c-.2 0-.3-.2-.3-.3v-22.8c0-.9-.8-1.7-1.7-1.7h-12.1c-.9 0-1.7.8-1.7 1.7v22.7c0 .2-.2.3-.3.3s-.3-.2-.3-.3v-22.7c-.1-1.3.9-2.4 2.3-2.4h12.1c1.3 0 2.3 1.1 2.3 2.4v22.7c0 .2-.1.4-.3.4z"/><path d="m28 29.5h-22.4c-.2 0-.3-.2-.3-.3v-4c0-.2.2-.3.3-.3h22.4c.2 0 .3.2.3.3v4c0 .1-.1.3-.3.3zm-22-.7h21.6v-3.3h-21.6z"/><path d="m22.2 7.7h-10.9c-.2 0-.3-.2-.3-.3v-4c0-.2.2-.3.3-.3h10.9c.2 0 .3.2.3.3v4c0 .2-.2.3-.3.3zm-10.6-.7h10.2v-3.3h-10.2z"/><path d="m3.5 22.1h-1.7c-1 0-1.8-.8-1.8-1.8v-13.8c0-.6.2-1.1.6-1.5l3.7-3.9c.1-.1.4-.1.5 0s.1.4 0 .5l-3.7 3.9c-.3.3-.4.6-.4 1v13.9c0 .6.5 1.1 1.1 1.1h1.7c.6 0 1.1-.5 1.1-1.1v-6.7c0-.9.7-1.5 1.5-1.5h1.8c.2 0 .3.2.3.3s-.2.3-.3.3h-1.8c-.5 0-.8.4-.8.8v6.7c0 1-.8 1.8-1.8 1.8z"/><path d="m2.9 9.5c-1.5 0-2.6-1.2-2.6-2.6s1.2-2.6 2.6-2.6 2.6 1.2 2.6 2.6-1.2 2.6-2.6 2.6zm0-4.6c-1.1 0-1.9.9-1.9 2s.9 1.9 1.9 1.9 1.9-.8 1.9-1.9-.8-2-1.9-2z"/></g></switch></svg>