<svg enable-background="new 0 0 26.1 33.9" viewBox="0 0 26.1 33.9" xmlns="http://www.w3.org/2000/svg"><switch><path d="m10.4 33.9c-.2 0-10.4-3-10.4-11.9 0-10.9 8.7-20.3 16.6-22 .1 0 .2 0 .3.1s.1.2.1.3c0 0-.7 4.5 2.9 8.9 2.9 3.5 6.2 7.5 6.2 13.5 0 4.3-3.5 9-8.2 11.1-.1.1-.3 0-.4-.1s-.1-.3 0-.4c0 0 2.7-3.8 2.7-6.4 0-1.4-1-3.7-2-5.7-.5-1.1-1-2.2-1.3-3-.5.9-1.3 2.4-1.3 3.7 0 .1-.1.3-.2.3-.1.1-.3 0-.4-.1s-3.3-3.2-2.3-11.1c-1.5 1.4-5.7 5.2-5.7 11.4 0 7.7 3.6 10.7 3.6 10.8.1.1.2.3.1.4 0 .1-.2.2-.3.2zm5.9-33.1c-7.5 1.9-15.6 11.2-15.6 21.2 0 6.5 5.8 9.7 8.5 10.8-1.1-1.6-2.9-4.8-2.9-10.3 0-8.1 6.7-12.3 6.8-12.4s.3-.1.4 0 .2.2.2.3c-1 6 .6 9.3 1.4 10.6.4-1.9 1.8-3.8 1.8-3.9.1-.1.2-.2.4-.1.1 0 .2.2.2.3 0 .7.7 2.1 1.4 3.6 1 2 2 4.4 2 6 0 1.9-1.3 4.3-2.1 5.7 3.8-2.2 6.6-6.2 6.6-9.9 0-5.8-3.2-9.6-6-13-3.2-3.8-3.2-7.6-3.1-8.9z" fill="#231f20"/></switch></svg>