<svg height="336" viewBox="0 0 324 336" width="324" xmlns="http://www.w3.org/2000/svg"><path d="m252 154.1 36-44.6v71c0 101.3-124 148.8-141.9 155.2-1.4.5-2.9.5-4.3 0-17.7-6.4-141.8-53.9-141.8-155.2 0-65.2 0-106.3 0-121.2 0-3.4 2.7-6.3 6.1-6.4 35.9-1.3 81.8-14.2 134.2-51.7 2.2-1.6 5.2-1.6 7.4 0 33.7 24.1 64.7 38 92.1 45.3l-28.3 29.1c-22.4-7.8-45-18.9-67.6-33.4-36.1 23.2-72.3 37.8-107.9 43.8v94.5c0 66.6 78.7 105.3 108 117.4 29.5-12.2 108-50.9 108-117.4zm68.4-129.8c-2.7-2.4-4.9-4.4-4.9-4.4s-2.6-2.4-5.7-5.2c-4.2-3.8-10.7-3.6-14.6.5l-151.2 155.9s-26.3-29.9-53.5-59.6c-3.8-4.1-10.1-4.7-14.6-1.3-3.5 2.7-6.8 5.1-7.5 5.7-.2.2-1.9 1.4-4 2.9-4.6 3.4-5.8 9.8-2.7 14.6 26.4 41.4 60.9 97.2 72.8 113.8 2.2 2.9 5.7 4.8 9.5 4.8 3.8.1 7.4-1.6 9.7-4.5l168-208.3c3.5-4.5 3-11-1.3-14.9z" fill="#737171"/></svg>