<svg height="1967.5" viewBox="0 0 2006.7 1967.5" width="2006.7" xmlns="http://www.w3.org/2000/svg"><g fill="#fff"><path d="m1517.2 1634c-101.9 84.2-207.9 128.9-324.9 148-18.6 3-37.4 6.1-56.2 6.9-50.5 2.1-88.6-27-95.9-72-8.4-51.1 19.2-92.1 72.4-104.7 39.8-9.4 80.6-14.4 120-24.9 89.7-24 159.7-77.6 220.9-146.5 46.7-52.6 92-111.9 150.5-147.5 98.2-59.7 209-53 311.9-5.4 57.5 26.6 88.6 82.7 89.5 146.4 2.5 176.4.9 352.9.9 533.2-162.7 0-323.8 0-489 0-.1-108.3-.1-214.9-.1-333.5z"/><path d="m1969 1001.9c-.2 114.5-92.4 207-206.8 207.4-113.6.3-207.9-92.6-208.8-206-1-115 95.1-211.4 209.8-210.4 113.8.9 206 94.6 205.8 209z"/><path d="m489.5 1634c101.9 84.2 207.9 128.9 324.9 148 18.6 3 37.4 6.1 56.2 6.9 50.5 2.1 88.6-27 95.9-72 8.4-51.1-19.2-92.1-72.4-104.7-39.8-9.4-80.6-14.4-120-24.9-89.7-24-159.7-77.6-220.9-146.5-46.7-52.6-92-111.9-150.5-147.5-98.2-59.7-209-53-311.9-5.4-57.5 26.6-88.6 82.7-89.5 146.4-2.5 176.4-.9 352.9-.9 533.2h489c.1-108.3.1-214.9.1-333.5z"/><path d="m37.6 1001.9c.2 114.5 92.4 207 206.8 207.4 113.6.3 207.9-92.6 208.8-206 1-115-95.1-211.4-209.8-210.4-113.7.9-205.9 94.6-205.8 209z"/><path d="m754.6 562.2v-142.1c0-115.7 94.7-210.4 210.4-210.4h68.1c-.4-115.4-95-209.7-210.5-209.7h-408.4c-115.7 0-210.3 94.7-210.3 210.4v142.1c0 115.7 94.7 210.4 210.4 210.4h117.6l-61.8 155 198.4-155h86.1c0-.2 0-.4 0-.7z"/><path d="m1444 254.3h-408.4c-115.7 0-210.4 94.7-210.4 210.4v142.1c0 115.7 94.7 210.4 210.4 210.4h154.2l198.4 155-61.8-155h117.6c115.7 0 210.4-94.7 210.4-210.4v-142.1c0-115.7-94.7-210.4-210.4-210.4z"/></g></svg>