<svg enable-background="new 0 0 32.2 27.5" viewBox="0 0 32.2 27.5" xmlns="http://www.w3.org/2000/svg"><switch><g fill="#231f20"><path d="m20.3 27.5h-2.8c-.7 0-1.3-.6-1.3-1.3v-9.2c0-.3-.3-.6-.6-.6h-2.1c-.3 0-.6.3-.6.6v9.2c0 .7-.6 1.3-1.3 1.3h-2.8c-.7 0-1.3-.6-1.3-1.3v-25c0-.6.6-1.2 1.3-1.2h2.8c.7 0 1.3.6 1.3 1.3v9.3c0 .3.3.6.6.6h2.1c.3 0 .6-.3.6-.6v-9.3c0-.7.6-1.3 1.3-1.3h2.8c.7 0 1.3.6 1.3 1.3v25c0 .7-.6 1.2-1.3 1.2zm-6.8-11.7h2.1c.7 0 1.3.6 1.3 1.3v9.2c0 .3.3.6.6.6h2.8c.3 0 .6-.3.6-.6v-25c0-.3-.3-.6-.6-.6h-2.8c-.3 0-.6.3-.6.6v9.3c0 .7-.6 1.3-1.3 1.3h-2.1c-.7 0-1.3-.6-1.3-1.3v-9.3c0-.3-.3-.6-.6-.6h-2.8c-.3 0-.6.3-.6.6v25c0 .3.3.6.6.6h2.8c.3 0 .6-.3.6-.6v-9.2c.1-.7.6-1.3 1.3-1.3z"/><path d="m3.5 26.3h-1.7c-1 0-1.8-.8-1.8-1.8v-13.9c0-.6.2-1.1.6-1.5l3.7-3.9c.1-.1.4-.1.5 0 .2.1.2.3 0 .5l-3.7 3.9c-.3.3-.4.6-.4 1v13.9c0 .6.5 1.1 1.1 1.1h1.7c.6 0 1.1-.5 1.1-1.1v-6.7c0-.9.7-1.5 1.5-1.5h1.8c.2 0 .3.2.3.3s-.2.3-.3.3h-1.8c-.5 0-.8.4-.8.8v6.7c0 1.1-.8 1.9-1.8 1.9z"/><path d="m2.9 13.7c-1.5 0-2.6-1.2-2.6-2.6s1.2-2.6 2.6-2.6 2.6 1.1 2.6 2.5-1.2 2.7-2.6 2.7zm0-4.6c-1.1 0-1.9.8-1.9 1.9s.8 2 1.9 2 1.9-.9 1.9-1.9-.8-2-1.9-2z"/><path d="m30.4 27.5h-5.6c-.7 0-1.3-.4-1.6-1s-.2-1.3.2-1.8l4.7-5.8c.4-.5.4-1.3-.2-1.8-.5-.4-1.3-.3-1.8.2-.6.7-1.6.8-2.4.2-.7-.6-.8-1.7-.2-2.4.8-1 2-1.6 3.2-1.7s2.4.3 3.4 1.1c2 1.7 2.3 4.5.6 6.6l-2.3 2.9h2c1 0 1.8.8 1.8 1.8 0 .9-.8 1.7-1.8 1.7zm-3.2-11.4c.4 0 .9.1 1.2.4.8.7 1 1.9.3 2.7l-4.7 5.9c-.3.3-.3.7-.1 1.1s.6.6 1 .6h5.6c.6 0 1.1-.5 1.1-1.1s-.5-1.1-1.1-1.1h-2.7c-.1 0-.3-.1-.3-.2-.1-.1 0-.3 0-.4l2.8-3.5c1.4-1.8 1.2-4.1-.5-5.6-.8-.7-1.8-1-2.9-.9s-2.1.6-2.7 1.5c-.3.4-.3 1.1.2 1.4.4.3 1.1.3 1.4-.1s.9-.7 1.4-.7z"/></g></switch></svg>