<svg enable-background="new 0 0 29.5 29.5" viewBox="0 0 29.5 29.5" xmlns="http://www.w3.org/2000/svg"><switch><g><path d="m26.6 15.1h-5c-.2 0-.3-.2-.3-.3 0-1.1-.3-2.2-.8-3.2-.1-.1-.1-.3.1-.4l3.4-3.7c.1-.1.2-.1.3-.1s.2.1.3.1c1.5 2.1 2.3 4.6 2.3 7.2 0 .2-.1.4-.3.4zm-4.7-.7h4.3c-.1-2.2-.7-4.3-2-6.1l-3.2 3.2c.6.9.8 1.9.9 2.9z"/><path d="m14.7 29.5c-8.1 0-14.7-6.6-14.7-14.8s6.6-14.7 14.7-14.7 14.7 6.6 14.7 14.7-6.5 14.8-14.7 14.8zm0-28.8c-7.7 0-14 6.3-14 14s6.3 14 14 14 14-6.3 14-14-6.2-14-14-14z"/><path d="m7.9 15.1h-5c-.2 0-.3-.2-.3-.3 0-2.7.9-5.3 2.5-7.4.1-.1.2-.1.3-.1s.2 0 .3.1l3.6 3.6c.1.1.1.3 0 .4-.6 1-1 2.2-1 3.4 0 .1-.2.3-.4.3zm-4.6-.7h4.3c.1-1.1.4-2.2.9-3.2l-3.1-3.1c-1.3 1.8-2.1 4-2.1 6.3z"/><path d="m18.3 9.3c-.1 0-.1 0-.2-.1-.6-.3-1.2-.6-1.8-.8-.2 0-.3-.2-.3-.4s.2-.3.4-.3c.6.2 1.2.4 1.8.7l3.1-3.1c-1.9-1.4-4.2-2.1-6.6-2.1-2.3 0-4.5.7-6.4 1.9l3.2 3.2c.6-.3 1.1-.5 1.8-.6.2 0 .4.1.4.3s-.1.4-.3.4c-.6.1-1.2.4-1.8.7-.1.1-.3.1-.4-.1l-3.6-3.6c-.1-.1-.1-.2-.1-.3s.1-.2.1-.3c2.1-1.5 4.6-2.3 7.1-2.3 2.7 0 5.2.9 7.4 2.5.1.1.1.2.1.3s0 .2-.1.3l-3.6 3.6c-.1.1-.1.1-.2.1z"/><path d="m14.8 17.4c-.9 0-1.6-.7-1.6-1.6s.7-1.6 1.6-1.6 1.6.7 1.6 1.6-.7 1.6-1.6 1.6zm0-2.4c-.5 0-.9.4-.9.9s.4.9.9.9.9-.4.9-.9-.4-.9-.9-.9z"/><path d="m14.8 15c-.2 0-.3-.2-.3-.3v-8.4c0-.2.2-.3.3-.3s.3.2.3.3v8.4c0 .2-.1.3-.3.3z"/><path d="m12.8 25.5c-.2.2-.6.2-.8 0l-.7-.8v.3c0 .3-.3.6-.6.6s-.6-.3-.6-.6v-3.8c0-.3.3-.6.6-.6s.6.3.6.6v1.6l.7-.8c.2-.3.6-.3.8-.1.3.2.3.6.1.8l-.9 1 .8.9c.3.2.3.6 0 .9z"/><path d="m19.4 20.9-1.2 4.3c-.1.4-.5.5-.8.4s-.4-.4-.5-.6c0-.1-.3-1.2-.6-2.2-.3 1-.6 2.1-.6 2.2-.1.3-.2.5-.5.6s-.7 0-.8-.4l-1.2-4.3c-.1-.3.1-.7.4-.8s.7.1.8.4l.7 2.5.6-2.4c.1-.2.3-.4.5-.4s.4.2.5.4l.6 2.4.7-2.5c.1-.3.4-.5.8-.4.5.1.7.4.6.8z"/></g></switch></svg>