<svg enable-background="new 0 0 30.6 30.6" viewBox="0 0 30.6 30.6" xmlns="http://www.w3.org/2000/svg"><switch><g fill="#231f20"><path d="m15.3 21.5c-3.4 0-6.2-2.8-6.2-6.2s2.8-6.2 6.2-6.2 6.2 2.8 6.2 6.2-2.8 6.2-6.2 6.2zm0-11.7c-3 0-5.5 2.5-5.5 5.5s2.5 5.5 5.5 5.5 5.5-2.5 5.5-5.5-2.5-5.5-5.5-5.5z"/><path d="m15.3 6.3c-.2 0-.3-.2-.3-.3v-5.7c0-.2.2-.3.3-.3s.3.2.3.3v5.6c0 .2-.1.4-.3.4z"/><path d="m8.7 9c-.1 0-.2 0-.3-.1l-3.9-3.9c-.1-.1-.1-.4 0-.5s.4-.1.5 0l3.9 3.9c.1.1.1.4 0 .5 0 .1-.1.1-.2.1z"/><path d="m5.9 15.6h-5.6c-.2 0-.3-.2-.3-.3s.2-.3.3-.3h5.6c.2 0 .3.2.3.3s-.1.3-.3.3z"/><path d="m4.7 26.2c-.1 0-.2 0-.2-.1-.1-.1-.1-.4 0-.5l3.9-3.9c.1-.1.4-.1.5 0s.1.4 0 .5l-3.9 3.9c-.1.1-.2.1-.3.1z"/><path d="m15.3 30.6c-.2 0-.3-.2-.3-.3v-5.6c0-.2.2-.3.3-.3s.3.2.3.3v5.6c0 .1-.1.3-.3.3z"/><path d="m25.9 26.2c-.1 0-.2 0-.2-.1l-3.9-3.9c-.1-.1-.1-.4 0-.5s.4-.1.5 0l3.9 3.9c.1.1.1.4 0 .5-.2.1-.2.1-.3.1z"/><path d="m30.2 15.6h-5.6c-.2 0-.3-.2-.3-.3s.2-.3.3-.3h5.6c.2 0 .3.2.3.3s-.1.3-.3.3z"/><path d="m21.9 9c-.1 0-.2 0-.2-.1-.1-.1-.1-.4 0-.5l3.9-3.9c.1-.1.4-.1.5 0s.1.4 0 .5l-3.9 3.9c-.1.1-.2.1-.3.1z"/></g></switch></svg>