<svg enable-background="new 0 0 46.4 16.1" viewBox="0 0 46.4 16.1" xmlns="http://www.w3.org/2000/svg"><switch><g fill="#231f20"><path d="m9.2 16.1c-1.9 0-3.5-1.6-3.5-3.5s1.6-3.5 3.5-3.5 3.5 1.6 3.5 3.5-1.5 3.5-3.5 3.5zm0-6.5c-1.7 0-3 1.4-3 3s1.4 3 3 3 3-1.4 3-3-1.3-3-3-3z"/><path d="m40.2 16.1c-1.9 0-3.5-1.6-3.5-3.5s1.6-3.5 3.5-3.5 3.5 1.6 3.5 3.5-1.5 3.5-3.5 3.5zm0-6.5c-1.7 0-3 1.4-3 3s1.4 3 3 3 3-1.4 3-3-1.3-3-3-3z"/><path d="m45 12.5h-1.6c-.1 0-.2-.1-.2-.2-.2-1.5-1.5-2.7-3-2.7s-2.8 1.2-3 2.7c0 .1-.1.2-.2.2h-24.5c-.1 0-.2-.1-.2-.2-.2-1.5-1.5-2.7-3-2.7s-2.8 1.2-3 2.7c0 .1-.1.2-.3.2l-5.8-.5c-.1 0-.2-.1-.2-.3v-2c0-.1.1-.3.3-.3h.2l.3-4.5c0-.1.1-.2.2-.2 0 0 1.5-.3 3.8-.7 1.9-.1 3-1.1 4.2-2.2.3-.2.5-.5.8-.7 1.1-1 6.4-1.3 16-1 3.3.1 6.9 3.3 7.4 3.8.8 0 6.7.4 9.2.7 2.7.4 3.8 1.4 3.9 1.5.1 0 .1.1.1.2v3.8c0 1.5-1.1 2.3-1.2 2.4-.1 0-.1 0-.2 0zm-1.3-.5h1.3c.2-.2.9-.8.9-1.9v-3.7c-.3-.2-1.4-.9-3.5-1.2-2.7-.3-9.2-.7-9.2-.7-.1 0-.1 0-.2-.1 0 0-3.8-3.7-7.2-3.8-9.3-.2-14.6.1-15.6.9-.4.2-.6.5-.9.7-1.2 1.1-2.4 2.1-4.4 2.4-1.8.3-3.1.6-3.6.7l-.3 4.5c0 .1-.1.2-.3.2h-.2v1.5l5.3.4c.3-1.7 1.8-2.9 3.5-2.9s3.2 1.2 3.5 2.9h24.1c.3-1.7 1.7-2.9 3.5-2.9 1.5.1 3 1.3 3.3 3z"/><path d="m31.3 5.5h-20.1c-.1 0-.2 0-.2-.1s-.1-.1 0-.2c.5-2 2.1-3.6 2.2-3.7 0 0 .1-.1.2-.1.4 0 9-.3 12 0 3.1.3 6.1 3.5 6.3 3.6.1.1.1.2 0 .3-.2.2-.3.2-.4.2zm-19.8-.5h19.2c-.9-.9-3.3-2.8-5.5-3.1-2.8-.3-10.8 0-11.8 0-.3.4-1.4 1.6-1.9 3.1z"/><path d="m9.2 15.2c-1.4 0-2.6-1.2-2.6-2.6s1.2-2.6 2.6-2.6 2.6 1.2 2.6 2.6-1.1 2.6-2.6 2.6zm0-4.7c-1.2 0-2.1.9-2.1 2.1s.9 2.1 2.1 2.1 2.1-.9 2.1-2.1-.9-2.1-2.1-2.1z"/><path d="m40.2 15.2c-1.4 0-2.6-1.2-2.6-2.6s1.2-2.6 2.6-2.6 2.6 1.2 2.6 2.6-1.1 2.6-2.6 2.6zm0-4.7c-1.2 0-2.1.9-2.1 2.1s.9 2.1 2.1 2.1 2.1-.9 2.1-2.1-.9-2.1-2.1-2.1z"/><path d="m15.1 6.7h-1.6c-.1 0-.3-.1-.3-.3s.1-.3.3-.3h1.6c.1 0 .3.1.3.3s-.2.3-.3.3z"/><path d="m36.2 10.5h-22.9c-.1 0-.3-.1-.3-.3s.1-.3.3-.3h22.9c.1 0 .3.1.3.3s-.2.3-.3.3z"/><path d="m45.4 10.4h-1.6c-.1 0-.3-.1-.3-.3s.1-.3.3-.3h1.6c.1 0 .3.1.3.3s-.2.3-.3.3z"/><path d="m5.9 10h-4.3c-.1 0-.3-.1-.3-.3s.1-.3.3-.3h4.3c.1 0 .3.1.3.3s-.1.3-.3.3z"/><path d="m45.2 7.8h-3.4c-.1 0-.3-.1-.3-.3v-1.5c0-.1.1-.2.2-.2 2.3-.2 3.6 1.6 3.7 1.6.1.1.1.2 0 .3s-.1.1-.2.1zm-3.2-.5h2.6c-.5-.4-1.4-1.1-2.6-1z"/><path d="m2 7.9c-.1 0-.3-.1-.3-.3s.2-.2.3-.2c1.1 0 1.6-.7 1.7-1.2h-2.7c-.1 0-.3-.1-.3-.2s.2-.3.3-.3h3.1c.1 0 .1 0 .2.1 0 .1.1.1 0 .2-.1.7-.8 1.9-2.3 1.9z"/></g></switch></svg>