<svg viewBox="0 0 366.5 173" xmlns="http://www.w3.org/2000/svg"><path d="m365 110.9-9.4-30.9c-4.4-14.4-17.5-24.3-32.5-24.3-2.9-.1-103.5-2.7-138.8-2.7v-20h15.5c4.5 0 8.5-4.2 8.5-8.7v-15.8c0-4.5-3.9-8.5-8.5-8.5h-35.6c-4.5 0-8 4-8 8.5v15.8c0 4.5 3.5 8.7 8 8.7h15v20.2c-37.7.2-133 2.5-135.8 2.6-15.1 0-28.1 9.8-32.5 24.2l-9.4 30.9c-3.2 10.4-1.3 21.5 5.2 30.2s16.4 13.8 27.3 13.8c2.4.1 54.2 1.8 98.1 2.9l4.2 8.9c1.9 3.8 5.7 6.4 9.7 6.4h74.4c4 0 7.8-2.7 9.7-6.4l4.2-8.7c43.9-1.1 95.8-2.9 98.2-3 10.9 0 20.8-5.1 27.3-13.8 6.5-8.8 8.4-19.9 5.2-30.3zm-200.5-83.9c-1.8 0-3.2-1.4-3.2-3.2v-15.6c0-1.8 1.4-3.2 3.2-3.2h35.6c1.8 0 3.2 1.4 3.2 3.2v15.6c0 1.8-1.4 3.2-3.2 3.2zm167.9 122.9s-55.4 1.9-101.2 3l-5.6 11.5c-1 2-3 3.6-5.2 3.6h-74.4c-2.2 0-4.2-1.7-5.2-3.6l-5.6-11.4c-45.8-1.1-101.2-3-101.2-3-19.5 0-33.5-18.9-27.8-37.6l9.4-30.9c3.7-12.2 15-20.6 27.8-20.6 0 0 104.7-2.5 139.7-2.5s139.9 2.5 139.9 2.5c12.8 0 24.1 8.3 27.8 20.6l9.4 30.8c5.7 18.7-8.2 37.6-27.8 37.6zm10.4-64.7c-3.9-11-15.3-18.4-28.4-18.4-1 0-98.6-2-131.2-2s-130.2 2-131.1 2c-13.1 0-24.6 7.4-28.4 18.4l-8.8 25.1c-2.6 7.3-1.4 15.1 3.1 21.5 5.5 7.7 14.9 12.4 25.2 12.4 1.1 0 105.4 3 140 3s139-3 140-3c10.4 0 19.8-4.6 25.3-12.4 4.6-6.4 5.7-14.3 3.1-21.5zm1.6 43.8c-4.5 6.4-12.5 10.2-21.3 10.2-1 0-105.3 3-139.9 3s-138.8-3-140-3c-8.7 0-16.7-3.8-21.2-10.2-3.7-5.2-4.5-11.2-2.5-17l8.8-25.1c3.1-8.9 12.9-15.1 23.8-15.1 1 0 98.6-2 131.1-2s130.1 2 131.1 2c10.8 0 20.6 6.2 23.7 15.1l8.8 25.1c2.2 5.8 1.3 11.8-2.4 17z" fill="#8f8f8f"/></svg>