<svg enable-background="new 0 0 39.8 27.6" viewBox="0 0 39.8 27.6" xmlns="http://www.w3.org/2000/svg"><switch><g fill="#231f20"><path d="m36.3 23h-32.8c-.2 0-.4-.2-.4-.3v-18.3c0-.2.2-.4.4-.4h32.9c.2 0 .3.2.3.3v18.3c0 .3-.2.4-.4.4zm-32.5-.7h32.2v-17.6h-32.2z"/><path d="m29.1 13c-.1 0-.2 0-.2-.1l-2.5-2.5c-.1-.1-.1-.4 0-.5l2.4-2.4c.1-.1.4-.1.5 0s.1.4 0 .5l-2.2 2.2 2.3 2.3c.1.1.1.4 0 .5-.1 0-.2 0-.3 0z"/><path d="m32.1 18.3c-.2 0-.3-.2-.3-.3v-7.5h-5.1c-.2 0-.3-.2-.3-.3s.2-.3.3-.3h5.5c.2 0 .3.2.3.3v7.8c0 .2-.2.3-.4.3z"/><path d="m15.6 23h-.1c-.2-.1-.3-.3-.2-.5 5.4-13.1-5.1-17.6-5.6-17.8-.2-.1-.3-.3-.2-.5s.3-.2.5-.2c.1 0 11.6 5.1 5.9 18.8-.1.2-.2.2-.3.2z"/><path d="m24.2 23c-.2 0-.4-.2-.3-.4.9-14-10.4-17.9-10.5-18-.2-.1-.3-.3-.2-.4 0-.1.2-.2.4-.2.1 0 11.9 4.1 11 18.7 0 .2-.2.3-.4.3z"/><path d="m7.1 12.6c-.2 0-.4-.2-.4-.3v-3.3c0-.2.2-.3.4-.3s.3.1.3.3v3.2c0 .2-.1.4-.3.4z"/><path d="m8.4 11h-2.7c-.2 0-.4-.2-.4-.3s.2-.3.4-.3h2.6c.2 0 .4.2.4.3s-.1.3-.3.3z"/><path d="m8.4 17h-2.7c-.2 0-.4-.2-.4-.3s.2-.3.4-.3h2.6c.2 0 .4.2.4.3s-.1.3-.3.3z"/><path d="m19.9 27.6c-8.6 0-19.5-1.9-19.6-2-.2 0-.3-.2-.3-.3v-22.7c0-.2.2-.3.4-.3s.4.2.4.3v22.4c1.8.3 11.4 1.9 19.2 1.9.2 0 .4.2.4.3s-.3.4-.5.4z"/><path d="m.4 25.4c-.2 0-.4-.2-.4-.4v-22.7c0-.2.1-.3.3-.3.1 0 11-2 19.6-2 .2 0 .4.2.4.3s-.2.3-.4.3c-7.7 0-17.4 1.6-19.2 1.9v22.5c0 .2-.2.4-.3.4z"/><path d="m19.9 27.6c-.2 0-.4-.2-.4-.3s.2-.3.4-.3c7.7 0 17.4-1.6 19.2-1.9v-22.5c0-.2.2-.3.3-.3s.3.2.3.3v22.7c0 .2-.1.3-.3.3 0 .1-10.9 2-19.5 2z"/><path d="m39.5 25.4c-.2 0-.3-.2-.3-.3v-22.5c-1.8-.3-11.4-1.9-19.2-1.9-.2 0-.4-.2-.4-.3s.1-.4.3-.4c8.6 0 19.5 1.9 19.6 2 .2 0 .3.2.3.3v22.7c0 .2-.2.4-.3.4z"/></g></switch></svg>