<svg enable-background="new 0 0 45.2 18.6" viewBox="0 0 45.2 18.6" xmlns="http://www.w3.org/2000/svg"><switch><g fill="#231f20"><path d="m41.4 9.2c-2.3-.2-3.3-2.7-3.3-2.8s0-.2 0-.2c0-.1.1-.1.2-.1h2.8c.1 0 .2.1.2.2l.3 2.7c0 .1 0 .1-.1.2 0 0 0 0-.1 0zm-2.7-2.6c.3.6 1.1 1.9 2.4 2.1l-.2-2.1z"/><path d="m9.4 7.6h-1.7c-.1 0-.3-.1-.3-.3s.1-.3.3-.3h1.7c.1 0 .3.1.3.3s-.2.3-.3.3z"/><path d="m19.1 7.6h-1.7c-.1 0-.3-.1-.3-.3s.1-.3.3-.3h1.7c.1 0 .3.1.3.3s-.2.3-.3.3z"/><path d="m7 6.4c-.1 0-.2 0-.2-.1s-.1-.1 0-.2c0-.1.9-3 3.9-3.7 2.7-.6 12-1 13.9 0 1.8 1 3.1 3.3 3.2 3.4v.2s-.1.1-.2.1zm11.7-4.1c-3 0-6.4.3-8 .6-2.2.5-3.1 2.3-3.4 3l19.7-.1c-.4-.7-1.5-2.2-2.7-2.9-.8-.4-3.1-.6-5.6-.6z"/><path d="m16.5 6.4c-.1 0-.3-.1-.3-.3v-4c0-.1.1-.3.3-.3s.3.1.3.3v4c0 .2-.2.3-.3.3z"/><path d="m39.4 18.6c-2.1 0-3.9-1.7-3.9-3.9s1.7-3.9 3.9-3.9 3.9 1.7 3.9 3.9-1.8 3.9-3.9 3.9zm0-7.3c-1.9 0-3.4 1.5-3.4 3.4s1.5 3.4 3.4 3.4 3.4-1.5 3.4-3.4c0-1.8-1.5-3.4-3.4-3.4z"/><path d="m39.4 17.2c-1.4 0-2.5-1.1-2.5-2.5s1.1-2.5 2.5-2.5 2.5 1.1 2.5 2.5-1.1 2.5-2.5 2.5zm0-4.5c-1.1 0-2 .9-2 2s.9 2 2 2 2-.9 2-2-.9-2-2-2z"/><path d="m12.9 16h-10.8c-.1 0-.3-.1-.3-.3 0-3.1 2.5-5.7 5.7-5.7s5.7 2.5 5.7 5.7c0 .2-.1.3-.3.3zm-10.6-.5h10.4c-.1-2.7-2.4-4.9-5.2-4.9s-5 2.1-5.2 4.9z"/><path d="m7.5 18.6c-1.7 0-3.3-1.2-3.7-2.8l-.1-.3h2l.1.1c.3.7 1 1.1 1.8 1.1s1.4-.4 1.8-1.1l.1-.1h2l-.1.3c-.6 1.7-2.2 2.8-3.9 2.8zm-3.1-2.6c.5 1.3 1.8 2.1 3.1 2.1s2.6-.9 3.1-2.1h-1c-.4.8-1.3 1.2-2.1 1.2s-1.7-.4-2.1-1.2z"/><path d="m35.7 15.7h-22.8c-.1 0-.2-.1-.3-.2-.2-2.7-2.4-4.9-5.2-4.9-2.4 0-4.5 1.6-5 4 0 .1-.1.1-.1.2-.1 0-.1 0-.2 0-.7-.2-1.1-.4-1.4-.6-1.9-1.4.2-7 .5-7.6.1-.2 1-1.6 2.8-1.7.2-.3.8-1 1.1-1.9.5-1.2 4.8-3 12.4-3 5.5 0 8.7.5 9.5 1.5.2.3 1 1.3 1.4 1.9.1.2.3.3.5.3l12 1.2c.6.1 1.1.5 1.2 1.1l.6 3.2c.5.3 2.4 1.6 2.4 5 0 .1-.1.3-.3.3h-2c-.1 0-.2-.1-.2-.2-.3-1.7-1.7-2.9-3.3-2.9-1.9 0-3.4 1.5-3.4 3.4v.2.1.1l-.1.3c.1.1 0 .2-.1.2zm-22.5-.5h22.4v-.1c0-.1 0-.2 0-.3 0-2.1 1.7-3.9 3.9-3.9 1.9 0 3.4 1.3 3.8 3.1h1.5c-.1-3.3-2.2-4.4-2.2-4.4-.1 0-.1-.1-.1-.2l-.6-3.3c-.1-.4-.4-.7-.8-.7l-12.1-1.2c-.4 0-.7-.2-.9-.5-.4-.6-1.2-1.6-1.4-1.9-.4-.5-2.1-1.3-9.2-1.3-7.6 0-11.6 1.8-12 2.8-.4 1.1-1.2 2-1.2 2.1s-.1.1-.2.1c-1.5 0-2.4 1.3-2.4 1.3-.6 1.6-1.9 6-.6 7 .2.1.5.3 1 .4.7-2.4 2.9-4.1 5.5-4.1 2.8 0 5.3 2.2 5.6 5.1z"/><path d="m34.7 12.7h-20.8c-.1 0-.3-.1-.3-.3s.1-.3.3-.3h20.8c.1 0 .3.1.3.3s-.2.3-.3.3z"/><path d="m3.9 13.5h-.1c-.1-.1-.2-.2-.1-.3.8-1.7 2.7-2 2.8-2s.3.1.3.2-.1.3-.2.3c0 0-1.7.3-2.4 1.7-.2 0-.3.1-.3.1z"/><path d="m1.3 9.8c-.1 0-.2-.1-.2-.2s0-.3.2-.3c1.1-.3 1.6-1.4 1.9-2h-1.9c-.1 0-.3-.1-.3-.2s.1-.3.3-.3h2.1c.1 0 .2 0 .2.1s.1.1 0 .2c.1.1-.5 2.2-2.3 2.7z"/></g></switch></svg>