<svg viewBox="0 0 41.5 38" xmlns="http://www.w3.org/2000/svg"><switch><g fill="#231f20"><path d="m9.7 13.8c-2.2 0-4-1.8-4-4s1.8-4 4-4 4 1.8 4 4-1.7 4-4 4zm0-7.4c-1.8 0-3.3 1.5-3.3 3.3s1.5 3.3 3.3 3.3 3.3-1.5 3.3-3.3-1.4-3.3-3.3-3.3zm0-2.2c-.2 0-.3-.2-.3-.3v-3.6c0-.1.1-.3.3-.3s.3.2.3.3v3.5c.1.2-.1.4-.3.4zm-4.1 1.7c-.1 0-.2 0-.2-.1l-2.5-2.5c-.2-.1-.2-.3 0-.4.1-.1.4-.1.5 0l2.5 2.5c.1.1.1.3-.1.4 0 .1-.1.1-.2.1zm-1.7 4.2h-3.6c-.1 0-.3-.2-.3-.4s.2-.3.3-.3h3.5c.2 0 .3.2.3.3s-.1.4-.2.4zm-.8 6.6c-.1 0-.2 0-.2-.1-.1-.1-.1-.4 0-.5l2.5-2.5c.1-.1.4-.1.5 0s.1.4 0 .5l-2.5 2.5c-.1.1-.2.1-.3.1zm6.6 2.8c-.2 0-.3-.2-.3-.3v-3.5c0-.2.2-.3.3-.3s.3.2.3.3v3.5c.1.1-.1.3-.3.3zm6.7-2.8c-.1 0-.2 0-.2-.1l-2.5-2.5c-.1-.1-.1-.4 0-.5s.4-.1.5 0l2.5 2.5c.1.1.1.4 0 .5-.2.1-.2.1-.3.1zm2.7-6.6h-3.5c-.2 0-.3-.2-.3-.3s.2-.3.3-.3h3.5c.2 0 .3.2.3.3s-.1.3-.3.3zm-5.2-4.2c-.1 0-.2 0-.2-.1-.1-.1-.1-.4 0-.5l2.5-2.5c.1-.1.4-.1.5 0s.1.4 0 .5l-2.5 2.5c-.1.1-.2.1-.3.1zm19.9 32.1h-6.6c-4 0-5-4.9-5-4.9v-14.2h-2.4c-.2 0-.3-.2-.3-.3 0-1.9 2.1-3 2.8-3.3v-5.8c0-4.2 5-5 5.1-5h6.1c.1 0 5.2.8 5.2 5v5.8c.7.3 2.8 1.4 2.8 3.3 0 .2-.2.3-.3.3h-2.4v14.1c-.1.2-1 5-5 5zm-13.6-19.7h2.4c.2 0 .3.2.3.3v14.5c0 .1.8 4.3 4.3 4.3h6.6c3.4 0 4.3-4.3 4.3-4.3v-14.4c0-.2.2-.3.3-.3h2.4c-.3-1.5-2.5-2.4-2.6-2.4-.1-.1-.2-.2-.2-.3v-6.2c0-3.5-4.3-4.2-4.5-4.3h-6c-.1 0-4.5.7-4.5 4.3v6.1c0 .1-.1.3-.2.3s-2.3.9-2.6 2.4z"/><path d="m34.8 18.5h-8.6c-.1 0-.3-.1-.3-.2l-1.4-3.4c-.1-.2 0-.3.1-.4 2.2-1.5 5.7-1.5 5.9-1.5.1 0 3.7 0 5.9 1.5.1.1.2.3.1.4l-1.4 3.4c-.1.1-.2.2-.3.2zm-8.4-.7h8.1l1.2-2.9c-2-1.2-5.2-1.2-5.2-1.2s-3.2 0-5.2 1.2zm8.3 8.6h-8.4c-.2 0-.3-.2-.3-.3v-5c0-.2.2-.3.3-.3h8.4c.2 0 .3.2.3.3v5c0 .2-.1.3-.3.3zm-8.1-.7h7.7v-4.3h-7.7zm3.9 8.3c-3.8 0-5.8-1.2-5.9-1.3s-.2-.3-.1-.4l1.3-3.4c.1-.1.2-.2.3-.2h8.7c.1 0 .3.1.3.2l1.3 3.4c.1.2 0 .3-.1.4s-2.1 1.3-5.8 1.3zm-5.3-1.7c.6.3 2.4 1 5.2 1s4.6-.7 5.2-1l-1.1-2.9h-8.2z"/></g></switch></svg>