<svg enable-background="new 0 0 27 23.1" viewBox="0 0 27 23.1" xmlns="http://www.w3.org/2000/svg"><switch><g fill="#231f20"><path d="m13.6 15.8c-1.3 0-2.3-1-2.3-2.3s1-2.3 2.3-2.3 2.3 1 2.3 2.3-1 2.3-2.3 2.3zm0-3.9c-.9 0-1.6.7-1.6 1.6s.7 1.6 1.6 1.6 1.6-.7 1.6-1.6-.7-1.6-1.6-1.6z"/><path d="m14.9 12.4c-.1 0-.2 0-.2-.1-.1-.1-.1-.4 0-.5l3.2-3.2c.1-.1.4-.1.5 0s.1.4 0 .5l-3.2 3.2c-.1.1-.2.1-.3.1z"/><path d="m22.9 23.1c-.1 0-.2 0-.2-.1l-2.3-2.3c-.1-.1-.1-.4 0-.5s.4-.1.5 0l2.1 2.1c2.2-2.4 3.4-5.5 3.4-8.7 0-7.1-5.7-12.8-12.8-12.8s-12.9 5.6-12.9 12.7c0 3.2 1.2 6.3 3.4 8.7l2-2c.1-.1.4-.1.5 0s.1.4 0 .5l-2.3 2.3c-.1.1-.1.1-.2.1s-.2 0-.2-.1c-2.5-2.6-3.9-5.9-3.9-9.5 0-7.4 6.1-13.5 13.5-13.5 7.5 0 13.5 6.1 13.5 13.5 0 3.6-1.4 6.9-3.9 9.5 0 .1-.1.1-.2.1z"/><path d="m4.1 13.9h-3.7c-.2 0-.4-.2-.4-.3s.2-.3.4-.3h3.8c.2 0 .4.2.4.3s-.3.3-.5.3z"/><path d="m26.7 13.9h-3.8c-.2 0-.3-.2-.3-.3s.2-.3.3-.3h3.8c.2 0 .3.2.3.3s-.1.3-.3.3z"/><path d="m20.1 7.1c-.1 0-.2 0-.2-.1-.1-.1-.1-.4 0-.5l2.7-2.7c.1-.1.4-.1.5 0s.1.4 0 .5l-2.8 2.7c-.1.1-.2.1-.2.1z"/><path d="m13.4 4.5c-.2 0-.4-.2-.4-.3v-3.9c0-.2.2-.3.4-.3s.4.2.4.3v3.8c0 .2-.2.4-.4.4z"/><path d="m7 7.1c-.1 0-.2 0-.2-.1l-2.7-2.6c-.2-.2-.2-.4 0-.5.1-.1.4-.1.5 0l2.7 2.7c.1.1.1.4 0 .5-.1 0-.2 0-.3 0z"/><path d="m18.2 22.6h-9.2c-.2 0-.4-.2-.4-.3v-3.9c.1-.3.3-.4.4-.4h9.1c.2 0 .3.2.3.3v3.9c.1.2 0 .4-.2.4zm-8.8-.7h8.4v-3.2h-8.4z"/></g></switch></svg>