<svg viewBox="0 0 26.7 25.1" xmlns="http://www.w3.org/2000/svg"><switch><g><path d="m20.6 24.5c-.1 0-.2-.1-.3-.2-.1-.2-.1-.4.1-.5 3.6-2.3 5.6-6 5.6-10.5 0-7-5.7-12.6-12.6-12.6-7 0-12.6 5.7-12.6 12.6 0 4.2 2.1 8.1 5.6 10.5.2.1.2.3.1.5s-.3.2-.5.1c-3.8-2.5-6-6.6-6-11.1 0-7.3 6-13.3 13.3-13.3s13.3 6 13.3 13.3c0 4.7-2.1 8.7-5.9 11.1 0 .1 0 .1-.1.1z" fill="#231f20"/><path d="m19 18.9c-.6.3-1.6.1-2-.8l-.7-1.5h-5.9l-.7 1.5c-.4.9-1.4 1.1-2 .8-.8-.3-1.1-1.3-.8-2l5-11.2c.2-.4.5-.7.8-.8.4-.2.9-.2 1.3 0s.6.4.8.8l5 11.2c.3.7 0 1.6-.8 2zm-4.1-5.4-1.6-3.5-1.6 3.5z"/><path d="m24 25.1s-.1 0 0 0l-3.8-.5c-.1 0-.2-.1-.2-.1-.1-.1-.1-.2-.1-.3l.7-3.9c0-.2.2-.3.4-.3s.3.2.3.4l-.6 3.6 3.3.4c.2 0 .3.2.3.4s-.2.3-.3.3z" fill="#231f20"/></g></switch></svg>