<?xml version="1.0" standalone="no"?><!-- Generator: Gravit.io --><svg xmlns="http://www.w3.org/2000/svg" xmlns:xlink="http://www.w3.org/1999/xlink" style="isolation:isolate" viewBox="0 0 150 150" width="150" height="150"><g><circle vector-effect="non-scaling-stroke" cx="75" cy="75.00000000000001" r="74.99999999999997" fill="rgb(232,232,232)"/><g><path d=" M 139.587 58.488 C 137.042 58.488 134.972 56.418 134.972 53.873 C 134.972 53.092 134.339 52.46 133.559 52.46 C 132.778 52.46 132.146 53.092 132.146 53.873 C 132.146 56.418 130.075 58.488 127.53 58.488 C 126.75 58.488 126.117 59.12 126.117 59.901 C 126.117 60.681 126.75 61.314 127.53 61.314 C 130.075 61.314 132.146 63.384 132.146 65.929 C 132.146 66.71 132.778 67.342 133.559 67.342 C 134.339 67.342 134.972 66.71 134.972 65.929 C 134.972 63.384 137.042 61.314 139.587 61.314 C 140.368 61.314 141 60.681 141 59.901 C 141 59.12 140.368 58.488 139.587 58.488 Z  M 133.559 61.571 C 133.094 60.93 132.529 60.366 131.889 59.901 C 132.529 59.436 133.094 58.871 133.559 58.231 C 134.024 58.872 134.588 59.436 135.229 59.901 C 134.588 60.366 134.024 60.931 133.559 61.571 Z " fill="rgb(0,92,203)"/><path d=" M 58.205 58.488 C 55.66 58.488 53.59 56.418 53.59 53.873 C 53.59 53.092 52.957 52.46 52.177 52.46 C 51.396 52.46 50.764 53.092 50.764 53.873 C 50.764 56.418 48.693 58.488 46.148 58.488 C 45.368 58.488 44.735 59.12 44.735 59.901 C 44.735 60.681 45.368 61.314 46.148 61.314 C 48.693 61.314 50.764 63.384 50.764 65.929 C 50.764 66.71 51.396 67.342 52.177 67.342 C 52.957 67.342 53.59 66.71 53.59 65.929 C 53.59 63.384 55.66 61.314 58.205 61.314 C 58.985 61.314 59.618 60.681 59.618 59.901 C 59.618 59.12 58.985 58.488 58.205 58.488 Z  M 52.177 61.571 C 51.712 60.93 51.147 60.366 50.506 59.901 C 51.147 59.436 51.712 58.871 52.177 58.231 C 52.641 58.872 53.206 59.436 53.847 59.901 C 53.206 60.366 52.641 60.931 52.177 61.571 Z " fill="rgb(0,92,203)"/><path d=" M 100.403 40.403 C 97.027 40.403 94.28 37.657 94.28 34.28 C 94.281 33.5 93.648 32.868 92.868 32.868 C 92.087 32.868 91.455 33.5 91.455 34.281 C 91.455 37.657 88.708 40.403 85.332 40.403 C 84.552 40.403 83.919 41.036 83.919 41.816 C 83.919 42.597 84.552 43.229 85.332 43.229 C 88.708 43.229 91.455 45.976 91.455 49.352 C 91.455 50.132 92.087 50.765 92.868 50.765 C 93.648 50.765 94.281 50.132 94.281 49.352 C 94.281 45.976 97.027 43.229 100.403 43.229 C 101.184 43.229 101.816 42.597 101.816 41.816 C 101.816 41.036 101.184 40.403 100.403 40.403 Z  M 92.868 44.53 C 92.169 43.442 91.241 42.514 90.154 41.816 C 91.241 41.118 92.169 40.19 92.868 39.102 C 93.566 40.19 94.494 41.118 95.582 41.816 C 94.494 42.514 93.566 43.442 92.868 44.53 Z " fill="rgb(0,92,203)"/><path d=" M 122.284 80.53 L 116.788 64.957 C 116.377 63.792 115.27 63.009 114.034 63.009 L 71.324 63.009 C 70.088 63.009 68.982 63.792 68.571 64.957 L 63.075 80.53 C 62.755 81.434 63.449 82.413 64.407 82.413 L 120.952 82.413 C 121.41 82.413 121.84 82.19 122.105 81.816 C 122.37 81.442 122.437 80.962 122.284 80.53 Z  M 66.404 79.587 L 71.235 65.898 C 71.248 65.861 71.285 65.835 71.324 65.835 L 114.034 65.835 C 114.073 65.835 114.11 65.861 114.123 65.898 L 118.955 79.587 L 66.404 79.587 Z " fill="rgb(0,92,203)"/><path d=" M 119.807 99.179 C 114.789 99.179 110.858 101.786 110.858 105.113 C 110.858 108.441 114.789 111.048 119.807 111.048 C 124.825 111.048 128.755 108.441 128.755 105.113 C 128.755 101.786 124.825 99.179 119.807 99.179 Z  M 119.807 108.222 C 116.302 108.222 113.684 106.581 113.684 105.113 C 113.684 103.646 116.302 102.005 119.807 102.005 C 123.311 102.005 125.929 103.646 125.929 105.113 C 125.929 106.581 123.311 108.222 119.807 108.222 Z " fill="rgb(0,92,203)"/><path d=" M 65.552 99.179 C 60.534 99.179 56.604 101.786 56.604 105.113 C 56.604 108.441 60.534 111.048 65.552 111.048 C 70.57 111.048 74.5 108.441 74.5 105.113 C 74.5 101.786 70.57 99.179 65.552 99.179 Z  M 65.552 108.222 C 62.048 108.222 59.429 106.581 59.429 105.113 C 59.429 103.646 62.048 102.005 65.552 102.005 C 69.056 102.005 71.674 103.646 71.674 105.113 C 71.674 106.581 69.056 108.222 65.552 108.222 Z " fill="rgb(0,92,203)"/><path d=" M 137.892 78.08 L 130.356 78.08 C 129.708 78.08 129.143 78.521 128.986 79.15 L 127.993 83.12 L 121.051 63.453 C 120.003 60.483 117.184 58.488 114.034 58.488 L 71.324 58.488 C 68.175 58.488 65.355 60.483 64.307 63.453 L 57.366 83.12 L 56.373 79.15 C 56.216 78.521 55.651 78.08 55.002 78.08 L 47.467 78.08 C 46.687 78.08 46.054 78.713 46.054 79.493 L 46.054 85.521 C 46.054 86.302 46.687 86.934 47.467 86.934 L 55.271 86.934 L 50.454 93.678 C 49.548 94.947 49.068 96.443 49.068 98.003 L 49.068 115.663 C 49.068 118.11 50.256 120.285 52.085 121.642 C 52.084 121.658 52.082 121.674 52.082 121.691 L 52.082 126.212 C 52.082 127.823 53.392 129.132 55.002 129.132 L 64.045 129.132 C 65.655 129.132 66.965 127.822 66.965 126.212 L 66.965 123.104 L 118.394 123.104 L 118.394 126.212 C 118.394 127.823 119.704 129.132 121.314 129.132 L 130.356 129.132 C 131.966 129.132 133.276 127.822 133.276 126.212 L 133.276 121.691 C 133.276 121.674 133.274 121.658 133.273 121.642 C 135.102 120.285 136.29 118.11 136.29 115.663 L 136.29 98.003 C 136.29 96.443 135.811 94.947 134.904 93.678 L 130.087 86.934 L 137.891 86.934 C 138.672 86.934 139.304 86.302 139.304 85.521 L 139.304 79.493 C 139.304 78.712 138.672 78.08 137.892 78.08 Z  M 48.88 84.108 L 48.88 80.906 L 53.899 80.906 L 54.7 84.108 L 48.88 84.108 Z  M 64.139 126.212 C 64.139 126.264 64.097 126.307 64.045 126.307 L 55.002 126.307 C 54.951 126.307 54.908 126.264 54.908 126.212 L 54.908 123.104 L 56.51 123.104 L 64.139 123.104 L 64.139 126.212 Z  M 130.45 126.212 C 130.45 126.264 130.408 126.307 130.356 126.307 L 121.314 126.307 C 121.262 126.307 121.22 126.264 121.22 126.212 L 121.22 123.104 L 128.849 123.104 L 130.45 123.104 L 130.45 126.212 L 130.45 126.212 Z  M 128.849 120.278 L 56.509 120.278 C 54.457 120.278 52.714 118.932 52.116 117.076 L 133.242 117.076 C 132.644 118.932 130.901 120.278 128.849 120.278 Z  M 104.83 105.019 L 104.83 108.222 L 80.529 108.222 L 80.529 105.019 L 104.83 105.019 Z  M 80.751 102.193 C 81.349 100.337 83.092 98.991 85.144 98.991 L 100.215 98.991 C 102.267 98.991 104.01 100.337 104.608 102.193 L 80.751 102.193 Z  M 104.83 111.047 L 104.83 114.25 L 80.529 114.25 L 80.529 111.047 L 104.83 111.047 Z  M 132.605 95.32 C 133.167 96.107 133.465 97.035 133.465 98.003 L 133.465 114.25 L 107.656 114.25 L 107.656 103.606 C 107.656 99.503 104.318 96.165 100.215 96.165 L 85.144 96.165 C 81.041 96.165 77.703 99.503 77.703 103.606 L 77.703 114.25 L 51.894 114.25 L 51.894 98.003 C 51.894 97.035 52.191 96.107 52.754 95.32 L 58.744 86.934 L 110.764 86.934 C 111.545 86.934 112.177 86.302 112.177 85.521 C 112.177 84.741 111.545 84.108 110.764 84.108 L 91.798 84.108 L 60.013 84.108 L 66.972 64.393 C 67.622 62.551 69.371 61.314 71.324 61.314 L 114.035 61.314 C 115.988 61.314 117.737 62.551 118.387 64.393 L 125.345 84.108 L 116.792 84.108 C 116.012 84.108 115.38 84.741 115.38 85.521 C 115.38 86.302 116.012 86.934 116.792 86.934 L 126.615 86.934 L 132.605 95.32 Z  M 136.479 84.108 L 130.659 84.108 L 131.459 80.906 L 136.479 80.906 L 136.479 84.108 Z " fill="rgb(0,92,203)"/><path d=" M 70.073 94.658 L 61.031 94.658 C 60.25 94.658 59.618 95.29 59.618 96.071 C 59.618 96.851 60.25 97.484 61.031 97.484 L 70.073 97.484 C 70.853 97.484 71.486 96.851 71.486 96.071 C 71.486 95.29 70.853 94.658 70.073 94.658 Z " fill="rgb(0,92,203)"/><path d=" M 124.328 94.658 L 115.286 94.658 C 114.505 94.658 113.873 95.29 113.873 96.071 C 113.873 96.851 114.505 97.484 115.286 97.484 L 124.328 97.484 C 125.108 97.484 125.741 96.851 125.741 96.071 C 125.741 95.29 125.108 94.658 124.328 94.658 Z " fill="rgb(0,92,203)"/></g><g transform="matrix(1,0,0,1,0,-10)"><text transform="matrix(1,0,0,1,0.096,62.871)" style="font-family:'Roboto Slab';font-weight:700;font-size:60px;font-style:normal;font-variant-ligatures:none;fill:#a2a2a2;stroke:none;">6.</text></g></g></svg>