<?xml version="1.0" standalone="no"?><!-- Generator: Gravit.io --><svg xmlns="http://www.w3.org/2000/svg" xmlns:xlink="http://www.w3.org/1999/xlink" style="isolation:isolate" viewBox="0 0 150 150" width="150" height="150"><g><g><g><circle vector-effect="non-scaling-stroke" cx="75" cy="75.00000000000001" r="74.99999999999997" fill="rgb(0,92,203)"/><g><path d=" M 16.121 40.001 C 15.58 40.001 15.04 40.328 14.663 40.716 C 14.35 41.038 14.106 41.492 14.106 41.941 L 14.106 108.022 C 14.106 108.513 14.281 109.078 14.597 109.41 C 14.977 109.809 15.58 110 16.127 110 L 110.043 110 C 110.043 110 111.172 109.696 111.544 109.318 C 111.898 108.958 112.084 107.965 112.084 107.965 L 112.083 86.055 L 107.83 86.055 L 107.829 105.789 L 18.338 105.805 L 18.338 44.246 L 107.829 44.246 L 107.829 46.277 L 112.083 46.277 L 112.083 42.048 C 112.083 41.602 111.891 41.14 111.603 40.8 C 111.263 40.398 110.768 40 110.242 40 L 16.121 40.001 Z " fill="rgb(255,255,255)"/><path d=" M 86.611 49.082 L 86.037 49.088 L 86.037 49.662 C 86.98 50.011 87.618 50.883 87.654 51.873 L 87.654 51.876 C 87.688 52.927 87.038 53.883 86.037 54.254 L 86.037 56.704 C 86.98 57.053 87.618 57.925 87.654 58.916 L 87.654 58.918 C 87.688 59.969 87.038 60.925 86.037 61.296 L 86.037 63.746 C 86.981 64.095 87.619 64.968 87.654 65.959 L 87.654 65.96 C 87.688 67.011 87.038 67.967 86.037 68.338 L 86.037 70.79 C 86.98 71.139 87.618 72.011 87.654 73.001 L 87.654 73.004 C 87.688 74.055 87.038 75.011 86.037 75.382 L 86.037 77.832 C 86.98 78.181 87.618 79.053 87.654 80.044 L 87.654 80.046 C 87.688 81.097 87.038 82.053 86.037 82.424 L 86.037 83.063 L 86.635 83.063 C 87.028 82.215 87.875 81.657 88.823 81.624 C 89.833 81.591 90.765 82.159 91.183 83.063 L 93.998 83.063 C 94.39 82.214 95.237 81.657 96.185 81.624 C 97.196 81.591 98.127 82.159 98.545 83.063 L 101.36 83.063 C 101.752 82.214 102.599 81.657 103.547 81.624 C 104.558 81.591 105.489 82.159 105.907 83.063 L 108.722 83.063 C 109.114 82.214 109.962 81.657 110.91 81.624 C 111.92 81.591 112.852 82.159 113.27 83.063 L 116.085 83.063 C 116.477 82.215 117.324 81.657 118.272 81.624 C 119.282 81.591 120.214 82.159 120.632 83.063 L 123.451 83.063 C 123.845 82.22 124.69 81.666 125.634 81.634 C 126.64 81.601 127.567 82.165 127.987 83.063 L 130.813 83.063 C 131.207 82.219 132.052 81.666 132.996 81.634 C 134.002 81.601 134.929 82.165 135.349 83.063 L 135.894 83.063 L 135.894 82.373 C 135.016 81.993 134.436 81.154 134.402 80.212 C 134.368 79.209 134.959 78.287 135.894 77.883 L 135.894 75.329 C 135.016 74.95 134.436 74.11 134.402 73.169 C 134.368 72.166 134.959 71.243 135.894 70.839 L 135.894 68.284 C 135.016 67.905 134.436 67.065 134.402 66.124 C 134.368 65.121 134.959 64.198 135.894 63.794 L 135.894 61.241 C 135.016 60.861 134.436 60.022 134.402 59.08 C 134.368 58.077 134.959 57.155 135.894 56.75 L 135.894 54.197 C 135.016 53.817 134.436 52.978 134.402 52.036 C 134.368 51.033 134.959 50.111 135.894 49.707 L 135.894 49.082 L 135.326 49.082 C 134.935 49.933 134.088 50.492 133.139 50.526 L 133.136 50.526 C 132.125 50.558 131.193 49.988 130.776 49.082 L 127.965 49.082 C 127.574 49.933 126.727 50.492 125.778 50.526 L 125.775 50.526 C 124.764 50.558 123.832 49.988 123.415 49.082 L 120.599 49.082 C 120.206 49.927 119.362 50.481 118.417 50.515 L 118.415 50.516 C 117.407 50.548 116.479 49.983 116.06 49.082 L 113.238 49.082 C 112.845 49.927 112.001 50.481 111.056 50.515 L 111.054 50.516 C 110.047 50.548 109.118 49.983 108.699 49.082 L 105.877 49.082 C 105.484 49.927 104.64 50.481 103.696 50.515 L 103.689 50.516 C 102.683 50.548 101.755 49.982 101.336 49.082 L 98.514 49.082 C 98.121 49.927 97.277 50.481 96.333 50.515 L 96.326 50.516 C 95.319 50.548 94.391 49.983 93.972 49.082 L 91.151 49.082 C 90.758 49.927 89.913 50.481 88.968 50.515 L 88.962 50.516 C 87.955 50.548 87.028 49.982 86.609 49.082 L 86.611 49.082 Z  M 91.997 54.707 L 129.933 54.707 L 129.933 77.45 L 91.997 77.45 L 91.997 54.707 Z " fill="rgb(255,255,255)" vector-effect="non-scaling-stroke" stroke-width="0.998" stroke="rgb(255,255,255)" stroke-linejoin="round" stroke-linecap="round" stroke-miterlimit="4"/><line x1="32.372" y1="74.038" x2="58.028" y2="74.038" vector-effect="non-scaling-stroke" stroke-width="3.2" stroke="rgb(255,255,255)" stroke-linejoin="round" stroke-linecap="round" stroke-miterlimit="4"/><line x1="32.372" y1="84.926" x2="58.028" y2="84.926" vector-effect="non-scaling-stroke" stroke-width="3.2" stroke="rgb(255,255,255)" stroke-linejoin="round" stroke-linecap="round" stroke-miterlimit="4"/><line x1="32.372" y1="95.814" x2="58.028" y2="95.814" vector-effect="non-scaling-stroke" stroke-width="3.2" stroke="rgb(255,255,255)" stroke-linejoin="round" stroke-linecap="round" stroke-miterlimit="4"/><rect x="95.541" y="58.274" width="30.743" height="15.542" transform="matrix(1,0,0,1,0,0)" fill="rgb(255,255,255)"/></g></g></g></g></svg>