<?xml version="1.0" standalone="no"?><!-- Generator: Gravit.io --><svg xmlns="http://www.w3.org/2000/svg" xmlns:xlink="http://www.w3.org/1999/xlink" style="isolation:isolate" viewBox="0 0 150 150" width="150" height="150"><g><g><circle vector-effect="non-scaling-stroke" cx="75" cy="75.00000000000001" r="74.99999999999997" fill="rgb(0,92,203)"/><g><rect x="40" y="24.329" width="70" height="101.342" transform="matrix(0,1,-1,0,150,0)" fill="none" vector-effect="non-scaling-stroke" stroke-width="3.5" stroke="rgb(255,255,255)" stroke-linejoin="round" stroke-linecap="round" stroke-miterlimit="2"/><path d=" M 50.742 81.996 C 41.614 84.819 35.484 93.09 35.661 102.343 L 79.026 102.343 C 79.042 101.975 79.048 101.606 79.045 101.238 L 79.045 101.2 C 78.715 92.373 72.689 84.693 63.977 81.998 C 62.089 83.065 59.973 83.662 57.806 83.737 C 55.337 83.815 52.893 83.213 50.741 81.996 L 50.742 81.996 Z " fill="rgb(255,255,255)"/><path d=" M 68.351 69.851 C 68.553 75.933 63.795 81.029 57.722 81.234 C 51.649 81.439 46.559 76.676 46.352 70.594 C 46.144 64.511 50.898 59.412 56.971 59.201 C 63.044 58.99 68.138 63.749 68.351 69.831" fill="rgb(255,255,255)"/><rect x="91.34" y="44.906" width="17.794" height="26.36" transform="matrix(0,1,-1,0,158.323,-42.151)" fill="none" vector-effect="non-scaling-stroke" stroke-width="2.7" stroke="rgb(255,255,255)" stroke-linejoin="round" stroke-linecap="round" stroke-miterlimit="2"/><path d=" M 87.057 49.189 L 100.237 59.98 L 113.417 49.189 L 87.057 49.189 Z " fill="none" vector-effect="non-scaling-stroke" stroke-width="2.7" stroke="rgb(255,255,255)" stroke-linejoin="round" stroke-linecap="round" stroke-miterlimit="4"/><path d=" M 96.263 56.727 L 87.057 66.855 L 113.417 66.855 L 104.211 56.727 L 100.237 59.98 L 96.263 56.727 Z " fill="none" vector-effect="non-scaling-stroke" stroke-width="2.7" stroke="rgb(255,255,255)" stroke-linejoin="round" stroke-linecap="round" stroke-miterlimit="4"/><line x1="87.078" y1="84.295" x2="115.033" y2="84.295" vector-effect="non-scaling-stroke" stroke-width="2.7" stroke="rgb(255,255,255)" stroke-linejoin="round" stroke-linecap="round" stroke-miterlimit="4"/><line x1="87.078" y1="92.336" x2="115.033" y2="92.336" vector-effect="non-scaling-stroke" stroke-width="2.7" stroke="rgb(255,255,255)" stroke-linejoin="round" stroke-linecap="round" stroke-miterlimit="4"/><line x1="87.078" y1="100.376" x2="115.033" y2="100.376" vector-effect="non-scaling-stroke" stroke-width="2.7" stroke="rgb(255,255,255)" stroke-linejoin="round" stroke-linecap="round" stroke-miterlimit="4"/></g></g></g></svg>