<?xml version="1.0" standalone="no"?><!-- Generator: Gravit.io --><svg xmlns="http://www.w3.org/2000/svg" xmlns:xlink="http://www.w3.org/1999/xlink" style="isolation:isolate" viewBox="0 0 150 150" width="150" height="150"><g><g><circle vector-effect="non-scaling-stroke" cx="75" cy="75.00000000000001" r="74.99999999999997" fill="rgb(232,232,232)"/><g><g><g><g><g><path d=" M 69.105 26.869 C 68.54 26.869 67.975 27.209 67.581 27.613 C 67.255 27.948 67 28.421 67 28.888 L 67 121.072 C 67 121.583 67.183 122.172 67.513 122.517 C 67.909 122.933 68.54 123.131 69.111 123.131 L 132.053 123.131 C 132.053 123.131 133.232 122.815 133.621 122.422 C 133.991 122.047 134.185 121.013 134.185 121.013 L 134.183 114.723 L 134.007 114.504 L 129.74 109.903 L 129.738 118.748 L 71.422 118.765 L 71.422 31.289 L 129.738 31.289 L 129.738 69.225 L 134.183 74.017 L 134.183 29.001 C 134.183 28.537 133.983 28.055 133.682 27.701 C 133.327 27.283 132.81 26.869 132.26 26.869 L 69.105 26.869 Z " fill="rgb(0,92,203)"/><line x1="82.292" y1="47.269" x2="119.829" y2="47.269" vector-effect="non-scaling-stroke" stroke-width="2.494" stroke="rgb(0,0,0)" stroke-linejoin="round" stroke-linecap="round" stroke-miterlimit="4"/><line x1="82.292" y1="58.511" x2="85.065" y2="58.511" vector-effect="non-scaling-stroke" stroke-width="3.5" stroke="rgb(0,92,203)" stroke-linejoin="round" stroke-linecap="round" stroke-miterlimit="4"/><line x1="82.292" y1="69.753" x2="85.065" y2="69.753" vector-effect="non-scaling-stroke" stroke-width="3.5" stroke="rgb(0,92,203)" stroke-linejoin="round" stroke-linecap="round" stroke-miterlimit="4"/><line x1="82.292" y1="80.995" x2="85.065" y2="80.995" vector-effect="non-scaling-stroke" stroke-width="3.5" stroke="rgb(0,92,203)" stroke-linejoin="round" stroke-linecap="round" stroke-miterlimit="4"/><line x1="82.292" y1="92.238" x2="85.065" y2="92.238" vector-effect="non-scaling-stroke" stroke-width="3.5" stroke="rgb(0,92,203)" stroke-linejoin="round" stroke-linecap="round" stroke-miterlimit="4"/><line x1="82.292" y1="47.269" x2="119.829" y2="47.269" vector-effect="non-scaling-stroke" stroke-width="3.5" stroke="rgb(0,92,203)" stroke-linejoin="round" stroke-linecap="round" stroke-miterlimit="4"/><path d=" M 147 95.147 L 145.255 100.301 L 139.279 105.841 L 134.007 107.192 L 135.48 101.745 L 141.455 96.205 L 147 95.147 Z " fill="none" vector-effect="non-scaling-stroke" stroke-width="2.162" stroke="rgb(0,92,203)" stroke-linejoin="round" stroke-linecap="round" stroke-miterlimit="4"/><path d=" M 121.372 67.517 L 102.665 60.374 L 108.38 79.562 L 109.852 74.114 L 115.828 68.574 L 121.372 67.517 Z " fill="none" vector-effect="non-scaling-stroke" stroke-width="2.162" stroke="rgb(0,92,203)" stroke-linejoin="round" stroke-linecap="round" stroke-miterlimit="4"/><path d=" M 102.665 60.374 L 104.986 68.325 L 110.169 63.52 L 102.665 60.374 Z " fill="rgb(0,92,203)" vector-effect="non-scaling-stroke" stroke-width="0.44" stroke="rgb(0,92,203)" stroke-linejoin="round" stroke-linecap="round" stroke-miterlimit="4"/><path d=" M 108.38 79.562 L 134.007 107.192 L 135.48 101.744 L 141.455 96.205 L 147 95.147 L 121.372 67.517 L 115.828 68.574 L 109.852 74.114 L 108.38 79.562 Z " fill="rgb(0,92,203)" vector-effect="non-scaling-stroke" stroke-width="0.44" stroke="rgb(0,92,203)" stroke-linejoin="miter" stroke-linecap="butt" stroke-miterlimit="4"/><path d=" M 147 95.147 L 141.455 96.205 L 115.828 68.574 L 121.372 67.517 L 147 95.147 Z " fill="rgb(0,92,203)" vector-effect="non-scaling-stroke" stroke-width="2.162" stroke="rgb(0,92,203)" stroke-linejoin="round" stroke-linecap="round" stroke-miterlimit="4"/><path d=" M 134.007 107.192 L 135.48 101.744 L 109.852 74.114 L 108.38 79.562 L 134.007 107.192 Z " fill="rgb(0,92,203)" vector-effect="non-scaling-stroke" stroke-width="2.162" stroke="rgb(0,92,203)" stroke-linejoin="round" stroke-linecap="round" stroke-miterlimit="4"/></g><g><path d=" M 69.105 26.869 C 68.54 26.869 67.975 27.209 67.581 27.613 C 67.255 27.948 67 28.421 67 28.888 L 67 121.072 C 67 121.583 67.183 122.172 67.513 122.517 C 67.909 122.933 68.54 123.131 69.111 123.131 L 132.053 123.131 C 132.053 123.131 133.232 122.815 133.621 122.422 C 133.991 122.047 134.185 121.013 134.185 121.013 L 134.183 114.723 L 134.007 114.504 L 129.74 109.903 L 129.738 118.748 L 71.422 118.765 L 71.422 31.289 L 129.738 31.289 L 129.738 69.225 L 134.183 74.017 L 134.183 29.001 C 134.183 28.537 133.983 28.055 133.682 27.701 C 133.327 27.283 132.81 26.869 132.26 26.869 L 69.105 26.869 Z " fill="rgb(0,92,203)"/><line x1="82.292" y1="47.269" x2="119.829" y2="47.269" vector-effect="non-scaling-stroke" stroke-width="2.494" stroke="rgb(0,0,0)" stroke-linejoin="round" stroke-linecap="round" stroke-miterlimit="4"/><line x1="82.292" y1="58.511" x2="85.065" y2="58.511" vector-effect="non-scaling-stroke" stroke-width="3.5" stroke="rgb(0,92,203)" stroke-linejoin="round" stroke-linecap="round" stroke-miterlimit="4"/><line x1="82.292" y1="69.753" x2="85.065" y2="69.753" vector-effect="non-scaling-stroke" stroke-width="3.5" stroke="rgb(0,92,203)" stroke-linejoin="round" stroke-linecap="round" stroke-miterlimit="4"/><line x1="82.292" y1="80.995" x2="85.065" y2="80.995" vector-effect="non-scaling-stroke" stroke-width="3.5" stroke="rgb(0,92,203)" stroke-linejoin="round" stroke-linecap="round" stroke-miterlimit="4"/><line x1="82.292" y1="92.238" x2="85.065" y2="92.238" vector-effect="non-scaling-stroke" stroke-width="3.5" stroke="rgb(0,92,203)" stroke-linejoin="round" stroke-linecap="round" stroke-miterlimit="4"/><line x1="82.292" y1="47.269" x2="119.829" y2="47.269" vector-effect="non-scaling-stroke" stroke-width="3.5" stroke="rgb(0,92,203)" stroke-linejoin="round" stroke-linecap="round" stroke-miterlimit="4"/><path d=" M 147 95.147 L 145.255 100.301 L 139.279 105.841 L 134.007 107.192 L 135.48 101.745 L 141.455 96.205 L 147 95.147 Z " fill="none" vector-effect="non-scaling-stroke" stroke-width="2.162" stroke="rgb(0,92,203)" stroke-linejoin="round" stroke-linecap="round" stroke-miterlimit="4"/><path d=" M 121.372 67.517 L 102.665 60.374 L 108.38 79.562 L 109.852 74.114 L 115.828 68.574 L 121.372 67.517 Z " fill="none" vector-effect="non-scaling-stroke" stroke-width="2.162" stroke="rgb(0,92,203)" stroke-linejoin="round" stroke-linecap="round" stroke-miterlimit="4"/><path d=" M 102.665 60.374 L 104.986 68.325 L 110.169 63.52 L 102.665 60.374 Z " fill="rgb(0,92,203)" vector-effect="non-scaling-stroke" stroke-width="0.44" stroke="rgb(0,92,203)" stroke-linejoin="round" stroke-linecap="round" stroke-miterlimit="4"/><path d=" M 108.38 79.562 L 134.007 107.192 L 135.48 101.744 L 141.455 96.205 L 147 95.147 L 121.372 67.517 L 115.828 68.574 L 109.852 74.114 L 108.38 79.562 Z " fill="rgb(0,92,203)" vector-effect="non-scaling-stroke" stroke-width="0.44" stroke="rgb(0,92,203)" stroke-linejoin="miter" stroke-linecap="butt" stroke-miterlimit="4"/><path d=" M 147 95.147 L 141.455 96.205 L 115.828 68.574 L 121.372 67.517 L 147 95.147 Z " fill="rgb(0,92,203)" vector-effect="non-scaling-stroke" stroke-width="2.162" stroke="rgb(0,92,203)" stroke-linejoin="round" stroke-linecap="round" stroke-miterlimit="4"/><path d=" M 134.007 107.192 L 135.48 101.744 L 109.852 74.114 L 108.38 79.562 L 134.007 107.192 Z " fill="rgb(0,92,203)" vector-effect="non-scaling-stroke" stroke-width="2.162" stroke="rgb(0,92,203)" stroke-linejoin="round" stroke-linecap="round" stroke-miterlimit="4"/></g></g></g></g></g></g><g transform="matrix(1,0,0,1,0,-10)"><text transform="matrix(1,0,0,1,0.271,62.871)" style="font-family:'Roboto Slab';font-weight:700;font-size:60px;font-style:normal;font-variant-ligatures:none;fill:#a2a2a2;stroke:none;">2.</text></g></g></svg>