<?xml version="1.0" standalone="no"?><!-- Generator: Gravit.io --><svg xmlns="http://www.w3.org/2000/svg" xmlns:xlink="http://www.w3.org/1999/xlink" style="isolation:isolate" viewBox="0 0 150 150" width="150" height="150"><g><g><g><circle vector-effect="non-scaling-stroke" cx="75" cy="75.00000000000001" r="74.99999999999997" fill="rgb(0,92,203)"/><g><line x1="45.751" y1="53.169" x2="81.936" y2="53.169" vector-effect="non-scaling-stroke" stroke-width="4.5" stroke="rgb(255,255,255)" stroke-linejoin="round" stroke-linecap="round" stroke-miterlimit="4"/><line x1="98.112" y1="95.724" x2="114.204" y2="111.76" vector-effect="non-scaling-stroke" stroke-width="3.326" stroke="rgb(255,255,255)" stroke-linejoin="miter" stroke-linecap="butt" stroke-miterlimit="4"/><rect x="106.298" y="98.611" width="4.276" height="14.255" transform="matrix(0.708,-0.706,0.708,0.706,-43.275,107.643)" fill="none" vector-effect="non-scaling-stroke" stroke-width="3.331" stroke="rgb(255,255,255)" stroke-linejoin="round" stroke-linecap="round" stroke-miterlimit="2"/><path d=" M 45.865 62.424 L 45.865 62.431 C 45.808 62.427 45.75 62.426 45.693 62.429 C 44.784 62.461 44.072 63.221 44.103 64.128 C 44.134 65.034 44.897 65.744 45.807 65.714 C 45.826 65.712 45.845 65.71 45.865 65.707 L 45.865 65.714 L 67.064 65.714 C 68.308 64.475 69.683 63.372 71.164 62.426 L 45.865 62.424 Z " fill="rgb(255,255,255)" vector-effect="non-scaling-stroke" stroke-width="0.751" stroke="rgb(255,255,255)" stroke-linejoin="miter" stroke-linecap="round" stroke-miterlimit="25.60000038"/><path d=" M 45.865 73.346 L 45.865 73.352 C 45.808 73.348 45.75 73.348 45.693 73.35 C 44.784 73.382 44.072 74.142 44.103 75.049 C 44.134 75.955 44.897 76.665 45.807 76.635 C 45.826 76.633 45.845 76.631 45.865 76.629 L 45.865 76.635 L 60.711 76.635 C 61.017 75.513 61.402 74.414 61.865 73.347 L 45.865 73.346 Z " fill="rgb(255,255,255)" vector-effect="non-scaling-stroke" stroke-width="0.751" stroke="rgb(255,255,255)" stroke-linejoin="miter" stroke-linecap="round" stroke-miterlimit="25.60000038"/><path d=" M 45.865 84.268 L 45.865 84.275 C 45.808 84.271 45.75 84.27 45.693 84.273 C 44.784 84.305 44.072 85.065 44.103 85.971 C 44.134 86.878 44.897 87.588 45.807 87.558 C 45.826 87.556 45.845 87.554 45.865 87.551 L 45.865 87.558 L 60.296 87.558 C 60.091 86.472 59.959 85.373 59.902 84.27 L 45.865 84.268 Z " fill="rgb(255,255,255)" vector-effect="non-scaling-stroke" stroke-width="0.751" stroke="rgb(255,255,255)" stroke-linejoin="miter" stroke-linecap="round" stroke-miterlimit="25.60000038"/><path d=" M 45.865 95.19 L 45.865 95.196 C 45.808 95.192 45.75 95.192 45.693 95.194 C 44.784 95.226 44.072 95.986 44.103 96.893 C 44.134 97.799 44.897 98.509 45.807 98.479 C 45.826 98.477 45.845 98.475 45.865 98.473 L 45.865 98.479 L 65.392 98.479 C 64.536 97.447 63.767 96.348 63.092 95.191 L 45.865 95.19 Z " fill="rgb(255,255,255)" vector-effect="non-scaling-stroke" stroke-width="0.751" stroke="rgb(255,255,255)" stroke-linejoin="miter" stroke-linecap="round" stroke-miterlimit="25.60000038"/><path d=" M 98.089 95.748 C 96.369 97.581 94.364 98.99 92.207 99.971 C 85.52 103.012 77.367 101.943 71.664 96.63 C 64.122 89.605 63.72 77.818 70.767 70.299 C 77.814 62.78 89.642 62.375 97.191 69.393 C 104.74 76.412 105.152 88.199 98.112 95.724" fill="none" vector-effect="non-scaling-stroke" stroke-width="4.5" stroke="rgb(255,255,255)" stroke-linejoin="round" stroke-linecap="round" stroke-miterlimit="4"/><path d=" M 37.029 34.272 C 36.484 34.272 35.94 34.599 35.56 34.988 C 35.246 35.311 35 35.767 35 36.217 L 35 113.745 C 35 114.237 35.176 114.804 35.494 115.137 C 35.877 115.537 36.485 115.728 37.035 115.728 L 90.643 115.728 C 90.643 115.728 91.78 115.424 92.154 115.045 C 92.511 114.684 92.698 113.688 92.698 113.688 L 92.694 106.074 C 91.304 106.566 89.872 106.932 88.416 107.168 L 88.411 111.506 L 39.263 111.523 L 39.263 38.53 L 88.411 38.53 L 88.411 58.855 C 89.871 59.097 91.305 59.47 92.697 59.969 C 92.697 59.969 92.697 44.297 92.697 36.326 C 92.697 35.879 92.504 35.415 92.213 35.074 C 91.871 34.672 91.372 34.272 90.843 34.272 C 73.387 34.272 37.029 34.272 37.029 34.272 L 37.029 34.272 Z " fill="rgb(255,255,255)" vector-effect="non-scaling-stroke" stroke-width="0.75" stroke="rgb(255,255,255)" stroke-linejoin="miter" stroke-linecap="butt" stroke-miterlimit="4"/></g></g></g></g></svg>