<?xml version="1.0" standalone="no"?><!-- Generator: Gravit.io --><svg xmlns="http://www.w3.org/2000/svg" xmlns:xlink="http://www.w3.org/1999/xlink" style="isolation:isolate" viewBox="0 0 150 150" width="150" height="150"><g><g><circle vector-effect="non-scaling-stroke" cx="75" cy="75.00000000000001" r="74.99999999999997" fill="rgb(0,92,203)"/><path d=" M 35 20.852 L 35 112.437 L 43.369 112.437 L 43.369 29.208 L 98.262 29.208 L 98.262 20.852 L 35 20.852 Z " fill="none" vector-effect="non-scaling-stroke" stroke-width="3.5" stroke="rgb(255,255,255)" stroke-linejoin="round" stroke-linecap="round" stroke-miterlimit="4"/><path d=" M 43.369 29.208 L 43.369 120.792 L 51.738 120.792 L 51.738 37.563 L 106.631 37.563 L 106.631 29.208 L 43.369 29.208 Z " fill="none" vector-effect="non-scaling-stroke" stroke-width="3.5" stroke="rgb(255,255,255)" stroke-linejoin="round" stroke-linecap="round" stroke-miterlimit="4"/><rect x="51.738" y="37.563" width="63.262" height="91.585" transform="matrix(1,0,0,1,0,0)" fill="none" vector-effect="non-scaling-stroke" stroke-width="3.5" stroke="rgb(255,255,255)" stroke-linejoin="round" stroke-linecap="round" stroke-miterlimit="2"/><line x1="61.946" y1="57.452" x2="104.791" y2="57.452" vector-effect="non-scaling-stroke" stroke-width="3.5" stroke="rgb(255,255,255)" stroke-linejoin="round" stroke-linecap="round" stroke-miterlimit="4"/><line x1="61.946" y1="70.404" x2="104.791" y2="70.404" vector-effect="non-scaling-stroke" stroke-width="3.5" stroke="rgb(255,255,255)" stroke-linejoin="round" stroke-linecap="round" stroke-miterlimit="4"/><line x1="61.946" y1="83.356" x2="104.791" y2="83.356" vector-effect="non-scaling-stroke" stroke-width="3.5" stroke="rgb(255,255,255)" stroke-linejoin="round" stroke-linecap="round" stroke-miterlimit="4"/><line x1="61.946" y1="96.307" x2="104.791" y2="96.307" vector-effect="non-scaling-stroke" stroke-width="3.5" stroke="rgb(255,255,255)" stroke-linejoin="round" stroke-linecap="round" stroke-miterlimit="4"/><line x1="61.946" y1="109.259" x2="104.791" y2="109.259" vector-effect="non-scaling-stroke" stroke-width="3.5" stroke="rgb(255,255,255)" stroke-linejoin="round" stroke-linecap="round" stroke-miterlimit="4"/></g></g></svg>