<?xml version="1.0" standalone="no"?><!-- Generator: Gravit.io --><svg xmlns="http://www.w3.org/2000/svg" xmlns:xlink="http://www.w3.org/1999/xlink" style="isolation:isolate" viewBox="0 0 150 150" width="150" height="150"><g><g><circle vector-effect="non-scaling-stroke" cx="75.66666666666663" cy="75.66666666666654" r="74.99999999999997" fill="rgb(232,232,232)"/><g><g><rect x="49.198" y="43.203" width="78.006" height="112.932" transform="matrix(0,1,-1,0,187.87,11.469)" fill="none" vector-effect="non-scaling-stroke" stroke-width="3.5" stroke="rgb(0,92,203)" stroke-linejoin="round" stroke-linecap="round" stroke-miterlimit="2"/><path d=" M 61.169 107.465 C 50.996 110.612 44.165 119.828 44.363 130.139 L 92.687 130.139 C 92.705 129.729 92.712 129.318 92.708 128.908 L 92.708 128.866 C 92.34 119.03 85.625 110.472 75.917 107.467 C 73.813 108.657 71.455 109.322 69.041 109.406 C 66.289 109.492 63.565 108.821 61.168 107.466 L 61.169 107.465 Z " fill="rgb(0,92,203)"/><path d=" M 80.791 93.931 C 81.017 100.71 75.714 106.388 68.947 106.617 C 62.179 106.845 56.507 101.537 56.276 94.759 C 56.045 87.981 61.342 82.298 68.109 82.064 C 74.877 81.829 80.553 87.132 80.791 93.91" fill="rgb(0,92,203)"/><rect x="106.41" y="66.134" width="19.829" height="29.375" transform="matrix(0,1,-1,0,197.145,-35.503)" fill="none" vector-effect="non-scaling-stroke" stroke-width="2.7" stroke="rgb(0,92,203)" stroke-linejoin="round" stroke-linecap="round" stroke-miterlimit="2"/><path d=" M 101.637 70.907 L 116.324 82.932 L 131.011 70.907 L 101.637 70.907 Z " fill="none" vector-effect="non-scaling-stroke" stroke-width="2.7" stroke="rgb(0,92,203)" stroke-linejoin="round" stroke-linecap="round" stroke-miterlimit="4"/><path d=" M 111.896 79.307 L 101.637 90.593 L 131.012 90.593 L 120.752 79.307 L 116.324 82.932 L 111.896 79.307 Z " fill="none" vector-effect="non-scaling-stroke" stroke-width="2.7" stroke="rgb(0,92,203)" stroke-linejoin="round" stroke-linecap="round" stroke-miterlimit="4"/><line x1="101.66" y1="110.028" x2="132.812" y2="110.028" vector-effect="non-scaling-stroke" stroke-width="2.7" stroke="rgb(0,92,203)" stroke-linejoin="round" stroke-linecap="round" stroke-miterlimit="4"/><line x1="101.66" y1="118.988" x2="132.812" y2="118.988" vector-effect="non-scaling-stroke" stroke-width="2.7" stroke="rgb(0,92,203)" stroke-linejoin="round" stroke-linecap="round" stroke-miterlimit="4"/><line x1="101.66" y1="127.948" x2="132.812" y2="127.948" vector-effect="non-scaling-stroke" stroke-width="2.7" stroke="rgb(0,92,203)" stroke-linejoin="round" stroke-linecap="round" stroke-miterlimit="4"/></g></g></g><g transform="matrix(1,0,0,1,0,-10)"><text transform="matrix(1,0,0,1,0.357,62.871)" style="font-family:'Roboto Slab';font-weight:700;font-size:60px;font-style:normal;font-variant-ligatures:none;fill:#a2a2a2;stroke:none;">5.</text></g></g></svg>