<?xml version="1.0" standalone="no"?><!-- Generator: Gravit.io --><svg xmlns="http://www.w3.org/2000/svg" xmlns:xlink="http://www.w3.org/1999/xlink" style="isolation:isolate" viewBox="0 0 150 150" width="150" height="150"><g><g><circle vector-effect="non-scaling-stroke" cx="75" cy="75.00000000000001" r="74.99999999999997" fill="rgb(232,232,232)"/><g><line x1="65.162" y1="49.201" x2="107.925" y2="49.201" vector-effect="non-scaling-stroke" stroke-width="3.5" stroke="rgb(0,92,203)" stroke-linejoin="round" stroke-linecap="round" stroke-miterlimit="4"/><line x1="127.041" y1="99.492" x2="146.06" y2="118.443" vector-effect="non-scaling-stroke" stroke-width="3.326" stroke="rgb(0,92,203)" stroke-linejoin="miter" stroke-linecap="butt" stroke-miterlimit="4"/><rect x="136.717" y="102.903" width="5.054" height="16.846" transform="matrix(0.708,-0.706,0.708,0.706,-38.248,131.031)" fill="none" vector-effect="non-scaling-stroke" stroke-width="3.331" stroke="rgb(0,92,203)" stroke-linejoin="round" stroke-linecap="round" stroke-miterlimit="2"/><path d=" M 65.296 60.138 L 65.296 60.146 C 65.229 60.141 65.161 60.141 65.094 60.143 C 64.019 60.181 63.178 61.08 63.215 62.151 C 63.252 63.222 64.153 64.061 65.228 64.025 C 65.251 64.023 65.274 64.021 65.296 64.018 L 65.296 64.025 L 90.349 64.025 C 91.82 62.561 93.445 61.259 95.195 60.14 L 65.296 60.138 Z " fill="rgb(0,92,203)"/><path d=" M 65.296 73.045 L 65.296 73.052 C 65.229 73.048 65.161 73.047 65.094 73.05 C 64.019 73.088 63.178 73.986 63.215 75.058 C 63.252 76.129 64.153 76.968 65.228 76.932 C 65.251 76.93 65.274 76.928 65.296 76.925 L 65.296 76.932 L 82.841 76.932 C 83.203 75.606 83.659 74.308 84.205 73.047 L 65.296 73.045 Z " fill="rgb(0,92,203)"/><path d=" M 65.296 85.953 L 65.296 85.961 C 65.229 85.956 65.161 85.956 65.094 85.958 C 64.019 85.996 63.178 86.895 63.215 87.966 C 63.252 89.037 64.153 89.876 65.228 89.84 C 65.251 89.838 65.274 89.836 65.296 89.833 L 65.296 89.84 L 82.352 89.84 C 82.108 88.557 81.953 87.259 81.885 85.955 L 65.296 85.953 Z " fill="rgb(0,92,203)"/><path d=" M 65.296 98.86 L 65.296 98.867 C 65.229 98.863 65.161 98.862 65.094 98.865 C 64.019 98.903 63.178 99.801 63.215 100.873 C 63.252 101.944 64.153 102.783 65.228 102.747 C 65.251 102.745 65.274 102.743 65.296 102.74 L 65.296 102.747 L 88.373 102.747 C 87.363 101.528 86.453 100.229 85.655 98.862 L 65.296 98.86 Z " fill="rgb(0,92,203)"/><path d=" M 127.014 99.52 C 124.981 101.686 122.613 103.351 120.064 104.51 C 112.161 108.105 102.525 106.84 95.786 100.563 C 86.872 92.26 86.398 78.33 94.726 69.444 C 103.054 60.559 117.032 60.08 125.953 68.374 C 134.874 76.669 135.361 90.598 127.041 99.492" fill="none" vector-effect="non-scaling-stroke" stroke-width="5.5" stroke="rgb(0,92,203)" stroke-linejoin="round" stroke-linecap="round" stroke-miterlimit="4"/><path d=" M 54.855 26.868 C 54.211 26.868 53.568 27.255 53.119 27.715 C 52.747 28.096 52.457 28.635 52.457 29.166 L 52.457 120.788 C 52.457 121.37 52.665 122.04 53.041 122.433 C 53.493 122.906 54.211 123.132 54.861 123.132 L 118.215 123.132 C 118.215 123.132 119.559 122.772 120.001 122.324 C 120.423 121.898 120.644 120.721 120.644 120.721 L 120.639 111.723 C 118.996 112.304 117.304 112.737 115.583 113.015 L 115.578 118.143 L 57.494 118.162 L 57.494 31.9 L 115.578 31.9 L 115.578 55.92 C 117.302 56.206 118.997 56.647 120.642 57.237 C 120.642 57.237 120.642 38.715 120.642 29.295 C 120.642 28.767 120.414 28.219 120.071 27.816 C 119.666 27.34 119.077 26.868 118.451 26.868 C 97.822 26.868 54.855 26.868 54.855 26.868 L 54.855 26.868 Z " fill="rgb(0,92,203)"/></g></g><g transform="matrix(1,0,0,1,0,-10)"><text transform="matrix(1,0,0,1,0.097,62.871)" style="font-family:'Roboto Slab';font-weight:700;font-size:60px;font-style:normal;font-variant-ligatures:none;fill:#a2a2a2;stroke:none;">1.</text></g></g></svg>