<?xml version="1.0" standalone="no"?><!-- Generator: Gravit.io --><svg xmlns="http://www.w3.org/2000/svg" xmlns:xlink="http://www.w3.org/1999/xlink" style="isolation:isolate" viewBox="0 0 150 150" width="150" height="150"><g><g><g><circle vector-effect="non-scaling-stroke" cx="75" cy="75.00000000000001" r="74.99999999999997" fill="rgb(0,92,203)"/><g><g><path d=" M 37.105 26.869 C 36.54 26.869 35.975 27.209 35.581 27.613 C 35.255 27.948 35 28.421 35 28.888 L 35 121.072 C 35 121.583 35.183 122.172 35.513 122.517 C 35.909 122.933 36.54 123.131 37.111 123.131 L 100.053 123.131 C 100.053 123.131 101.232 122.815 101.621 122.422 C 101.991 122.047 102.185 121.013 102.185 121.013 L 102.183 114.723 L 102.007 114.504 L 97.74 109.903 L 97.738 118.748 L 39.422 118.765 L 39.422 31.289 L 97.738 31.289 L 97.738 69.225 L 102.183 74.017 L 102.183 29.001 C 102.183 28.537 101.983 28.055 101.682 27.701 C 101.327 27.283 100.81 26.869 100.26 26.869 L 37.105 26.869 Z " fill="rgb(255,255,255)" vector-effect="non-scaling-stroke" stroke-width="0.75" stroke="rgb(255,255,255)" stroke-linejoin="miter" stroke-linecap="butt" stroke-miterlimit="4"/><line x1="50.292" y1="58.511" x2="53.065" y2="58.511" vector-effect="non-scaling-stroke" stroke-width="3.5" stroke="rgb(255,255,255)" stroke-linejoin="round" stroke-linecap="round" stroke-miterlimit="4"/><line x1="50.292" y1="69.753" x2="53.065" y2="69.753" vector-effect="non-scaling-stroke" stroke-width="3.5" stroke="rgb(255,255,255)" stroke-linejoin="round" stroke-linecap="round" stroke-miterlimit="4"/><line x1="50.292" y1="80.995" x2="53.065" y2="80.995" vector-effect="non-scaling-stroke" stroke-width="3.5" stroke="rgb(255,255,255)" stroke-linejoin="round" stroke-linecap="round" stroke-miterlimit="4"/><line x1="50.292" y1="92.238" x2="53.065" y2="92.238" vector-effect="non-scaling-stroke" stroke-width="3.5" stroke="rgb(255,255,255)" stroke-linejoin="round" stroke-linecap="round" stroke-miterlimit="4"/><line x1="50.292" y1="47.269" x2="87.829" y2="47.269" vector-effect="non-scaling-stroke" stroke-width="3.5" stroke="rgb(255,255,255)" stroke-linejoin="round" stroke-linecap="round" stroke-miterlimit="4"/><g><path d=" M 115 95.147 L 113.255 100.301 L 107.279 105.841 L 102.007 107.192 L 103.48 101.745 L 109.455 96.205 L 115 95.147 Z " fill="none" vector-effect="non-scaling-stroke" stroke-width="2.162" stroke="rgb(255,255,255)" stroke-linejoin="round" stroke-linecap="round" stroke-miterlimit="4"/><path d=" M 89.372 67.517 L 70.665 60.374 L 76.38 79.562 L 77.852 74.114 L 83.828 68.574 L 89.372 67.517 Z " fill="none" vector-effect="non-scaling-stroke" stroke-width="2.162" stroke="rgb(255,255,255)" stroke-linejoin="round" stroke-linecap="round" stroke-miterlimit="4"/><path d=" M 70.665 60.374 L 72.986 68.325 L 78.169 63.52 L 70.665 60.374 Z " fill="rgb(255,255,255)" vector-effect="non-scaling-stroke" stroke-width="0.44" stroke="rgb(255,255,255)" stroke-linejoin="round" stroke-linecap="round" stroke-miterlimit="4"/><path d=" M 76.38 79.562 L 102.007 107.192 L 103.48 101.744 L 109.455 96.205 L 115 95.147 L 89.372 67.517 L 83.828 68.574 L 77.852 74.114 L 76.38 79.562 Z " fill="rgb(255,255,255)" vector-effect="non-scaling-stroke" stroke-width="0.44" stroke="rgb(255,255,255)" stroke-linejoin="miter" stroke-linecap="butt" stroke-miterlimit="4"/><path d=" M 115 95.147 L 109.455 96.205 L 83.828 68.574 L 89.372 67.517 L 115 95.147 Z " fill="rgb(255,255,255)" vector-effect="non-scaling-stroke" stroke-width="2.162" stroke="rgb(255,255,255)" stroke-linejoin="round" stroke-linecap="round" stroke-miterlimit="4"/><path d=" M 102.007 107.192 L 103.48 101.744 L 77.852 74.114 L 76.38 79.562 L 102.007 107.192 Z " fill="rgb(255,255,255)" vector-effect="non-scaling-stroke" stroke-width="2.162" stroke="rgb(255,255,255)" stroke-linejoin="round" stroke-linecap="round" stroke-miterlimit="4"/></g></g></g></g></g></g></svg>