<svg enable-background="new 0 0 35.8 31.4" viewBox="0 0 35.8 31.4" xmlns="http://www.w3.org/2000/svg"><switch><g><g fill="#231f20"><path d="m27.4 12.4c-3.4 0-6.2-2.8-6.2-6.2s2.8-6.2 6.2-6.2 6.2 2.8 6.2 6.2-2.8 6.2-6.2 6.2zm0-11.7c-3 0-5.5 2.5-5.5 5.5s2.5 5.5 5.5 5.5 5.5-2.5 5.5-5.5-2.5-5.5-5.5-5.5z"/><path d="m20.6 11c-.1 0-.2-.1-.3-.2-.9-1.4-1.4-3-1.4-4.6 0-1.7.5-3.4 1.5-4.8.1-.2.3-.2.5-.1s.2.3.1.5c-.9 1.3-1.4 2.8-1.4 4.4 0 1.5.4 3 1.2 4.2.1.2.1.4-.1.5 0 0 0 .1-.1.1z"/><path d="m34.1 11c-.1 0-.1 0-.2-.1-.2-.1-.2-.3-.1-.5.8-1.3 1.2-2.7 1.2-4.2 0-1.6-.5-3.1-1.4-4.4-.1-.2-.1-.4.1-.5s.4-.1.5.1c1 1.4 1.5 3.1 1.5 4.8 0 1.6-.5 3.2-1.4 4.6 0 .1-.1.2-.2.2z"/><path d="m22.7 31.4c-.2 0-.5-.1-.7-.2-.4-.4-4.5-4-4.6-4.1 0 0-.1-.1-.1-.1 0-.1-.3-.7 0-1.1.1-.2.3-.4.5-.6-.6-.4-2-1.1-4.2-1.5-.1 0-.1 0-.2-.1l-7.1-6.9c-.1-.1-.1-.2-.1-.3 0-.2.2-2 1.2-2.8.3-.2.7-.3 1.1-.3.6.1 2.2.6 4 1.2 2.6.9 5.9 1.9 7 2 1.8.1 2.5 0 2.6 0 .4-.1 1.3-.1 1.6.3.3.3.4 1.6.4 2.2.8.8 2.7 2.5 3.3 2.9.5.3.9.9 1.1 1.7s.1 1.6-.2 2.1c-.7 1-4.5 5.1-4.7 5.2 0 0 0 0-.1.1-.2.2-.5.3-.8.3zm-4.8-4.9c.5.5 4.2 3.7 4.6 4.1.2.2.5 0 .6 0 .4-.4 4-4.2 4.6-5.1.2-.4.3-.9.1-1.6-.1-.6-.4-1.1-.8-1.3-.9-.5-3.4-3-3.6-3.1-.1-.1-.1-.1-.1-.2 0-.8-.2-1.8-.3-2-.1-.1-.6-.1-1 0s-.8.1-2.7 0c-1.2-.1-4.4-1.1-7.2-2-1.7-.5-3.3-1.1-3.9-1.2-.2 0-.4 0-.5.1-.5.4-.8 1.5-.9 2.1l6.9 6.7c3.1.5 4.7 1.7 4.8 1.8s.1.1.1.2 0 .2-.1.3c0 0-.5.5-.7.8 0 .1.1.3.1.4z"/><path d="m9.6 29.3c-.1 0-.2 0-.2-.1l-7.6-7.6c-.1-.1-.1-.4 0-.5l2.6-2.6c.1-.1.4-.1.5 0l7.6 7.6c.1.1.1.4 0 .5l-2.6 2.6c-.1.1-.2.1-.3.1zm-7.1-8 7.1 7.1 2.1-2.1-7.1-7.1z"/><path d="m.4 30.9c-.1 0-.2 0-.2-.1-.1-.1-.1-.4 0-.5l5.4-5.4c.1-.1.4-.1.5 0s.1.4 0 .5l-5.4 5.4c-.2 0-.3.1-.3.1z"/></g><path d="m27.4 8.3c-.5 0-.9-.4-.9-.9v-4.3c0-.5.4-.9.9-.9s.9.4.9.9v4.3c0 .5-.4.9-.9.9zm.8 1.1c0 .4-.4.8-.8.8s-.8-.4-.8-.8.4-.8.8-.8.8.4.8.8z"/></g></switch></svg>