<svg enable-background="new 0 0 24.6 27.9" viewBox="0 0 24.6 27.9" xmlns="http://www.w3.org/2000/svg"><switch><g fill="#231f20"><path d="m20.5 20c-2.2 0-4-1.8-4-4s1.8-4 4-4 4 1.8 4 4-1.7 4-4 4zm0-7.4c-1.8 0-3.3 1.5-3.3 3.3s1.5 3.3 3.3 3.3 3.3-1.5 3.3-3.3c.1-1.8-1.4-3.3-3.3-3.3z"/><path d="m14.5 27.9c-4.5 0-6-2.8-6.3-3.6h-7.9c-.1 0-.3-.2-.3-.3s.2-.3.3-.3h8.1c.2 0 .3.1.3.3 0 .1 1 3.4 5.8 3.4s5.7-5.3 5.7-5.3v-2.3c0-.2.2-.3.3-.3s.3.2.3.3v2.2c.1.1-.9 5.9-6.3 5.9z"/><path d="m7.5 19.3h-2.1c-2.5 0-4.5-2-4.5-4.5v-2.8c0-2.5 2-4.5 4.5-4.5h2.2c2.5 0 4.5 2 4.5 4.5v2.8c-.1 2.5-2.1 4.5-4.6 4.5zm-2.1-11.1c-2.1 0-3.8 1.7-3.8 3.8v2.8c0 2.1 1.7 3.8 3.8 3.8h2.2c2.1 0 3.8-1.7 3.8-3.8v-2.8c0-2.1-1.7-3.8-3.8-3.8z"/><path d="m11.7 13.2c-.2 0-.3-.2-.3-.3v-9.4c0-.1-.4-2.8-4.9-2.8s-5 2.7-5 2.8v1.6c0 .2-.2.3-.3.3s-.5-.1-.5-.3v-1.7s.6-3.4 5.7-3.4c5.2 0 5.6 3.4 5.6 3.5v9.4c0 .2-.1.3-.3.3z"/><path d="m6.4 15.3c-.2 0-.3-.2-.3-.3v-2.9c0-.2.2-.3.3-.3s.3.2.3.3v2.9c.1.2-.1.3-.3.3z"/></g></switch></svg>