<svg height="512" viewBox="0 0 439.949 439.949" width="512" xmlns="http://www.w3.org/2000/svg"><g fill="#fff"><path d="m224.732 247.359c5.739 0 10.409-4.67 10.409-10.41s-4.67-10.41-10.409-10.41c-5.74 0-10.411 4.67-10.411 10.41s4.671 10.41 10.411 10.41zm-156.572 0c5.74 0 10.41-4.67 10.41-10.41s-4.67-10.41-10.41-10.41-10.41 4.67-10.41 10.41 4.67 10.41 10.41 10.41z"/><path d="m8.659 243.949h15.977a7 7 0 0 0 7-7c0-20.14 16.385-36.524 36.523-36.524 20.14 0 36.524 16.385 36.524 36.524v6.867a7 7 0 0 0 7 7h69.521a7 7 0 0 0 7-7v-6.867c0-20.14 16.386-36.524 36.526-36.524 20.139 0 36.523 16.385 36.523 36.524a7 7 0 0 0 7 7h24.771a7 7 0 0 0 7-7v-29.592a7 7 0 0 0 -7-7h-7.349l-6.275-25.212a7.005 7.005 0 0 0 -4.729-4.999l-52.594-16.229-41.153-52.651a7 7 0 0 0 -5.516-2.688h-127.831a7 7 0 0 0 -6.761 5.185l-19.487 72.571h-12.67a7 7 0 0 0 -7 7v53.615a7 7 0 0 0 7 7zm96.559-115.861a7 7 0 0 1 7-7h52.304a7.004 7.004 0 0 1 5.553 2.737l27.214 35.446a7 7 0 0 1 -5.552 11.262h-79.518a7 7 0 0 1 -7-7v-35.445zm-58.409 33.77 8.738-35.446a7 7 0 0 1 6.797-5.324h22.46a7 7 0 0 1 7 7v35.446a7 7 0 0 1 -7 7h-31.199a7 7 0 0 1 -6.796-8.676z"/><path d="m439.949 224.546c0-.385-.032-.77-.095-1.149l-15.536-93.351a7 7 0 0 0 -6.905-5.851h-90.565v-13.531c0-5.459-4.441-9.9-9.901-9.9s-9.902 4.441-9.902 9.9v148.443h-62.199c6.032-5.48 9.826-13.385 9.826-22.158 0-16.509-13.431-29.939-29.938-29.939-16.509 0-29.939 13.431-29.939 29.939 0 8.773 3.794 16.678 9.826 22.158h-116.349c6.032-5.48 9.826-13.385 9.826-22.158 0-16.509-13.431-29.939-29.938-29.939-16.509 0-29.939 13.431-29.939 29.939 0 8.773 3.794 16.678 9.826 22.158h-41.047a7 7 0 0 0 -7 7v12.894c0 10.166 8.269 18.435 18.435 18.435h45.326a41.3 41.3 0 0 0 -.106 2.803c0 22.681 18.453 41.132 41.136 41.132 22.68 0 41.132-18.451 41.132-41.132 0-.942-.043-1.875-.107-2.803h169.146a41.3 41.3 0 0 0 -.106 2.803c0 22.681 18.453 41.132 41.136 41.132 22.68 0 41.132-18.451 41.132-41.132 0-.942-.044-1.875-.107-2.803h35.934a7 7 0 0 0 7-7v-65.89zm-215.217-3.536c8.788 0 15.938 7.15 15.938 15.939s-7.15 15.938-15.938 15.938c-8.789 0-15.939-7.149-15.939-15.938s7.15-15.939 15.939-15.939zm-156.572 0c8.788 0 15.938 7.15 15.938 15.939s-7.15 15.938-15.938 15.938c-8.789 0-15.939-7.149-15.939-15.938s7.15-15.939 15.939-15.939zm343.321-82.815 14.468 86.93v33.98h-99.102v-120.91zm-393.046 145.241a4.44 4.44 0 0 1 -4.435-4.435v-5.894h59.91a41.2 41.2 0 0 0 -6.652 10.329zm86.355 43.935h-.002c-14.962 0-27.134-12.171-27.134-27.132s12.172-27.134 27.134-27.134 27.134 12.173 27.134 27.134-12.171 27.132-27.132 27.132zm57.33-43.935-13.478-10.329h176.467a41.255 41.255 0 0 0 -6.652 10.329zm193.87 43.935h-.002c-14.962 0-27.134-12.171-27.134-27.132s12.172-27.134 27.134-27.134 27.134 12.173 27.134 27.134-12.171 27.132-27.132 27.132zm69.959-43.935h-14.936l-13.478-10.329h28.414z"/><path d="m358.969 228.756h46.462a7 7 0 0 0 7-7v-14.456c0-.385-.032-.77-.095-1.149l-8.606-51.711a7 7 0 0 0 -6.905-5.851h-37.855a7 7 0 0 0 -7 7v66.167a6.998 6.998 0 0 0 6.999 7zm7-14v-30.011l32.462 23.807v6.204zm-261.182 73.459c-6.63 0-12.023 5.395-12.023 12.024 0 6.63 5.394 12.023 12.023 12.023s12.024-5.394 12.024-12.023c.001-6.63-5.394-12.024-12.024-12.024zm251.201 0c-6.63 0-12.024 5.395-12.024 12.024 0 6.63 5.395 12.023 12.024 12.023 6.63 0 12.024-5.394 12.024-12.023.001-6.63-5.394-12.024-12.024-12.024z"/></g></svg>