<svg height="248.9" viewBox="0 0 166.6 248.9" width="166.6" xmlns="http://www.w3.org/2000/svg"><g fill="#737171"><ellipse cx="83.3" cy="83.1" rx="48.8" ry="48.8" transform="matrix(.9732 -.2298 .2298 .9732 -16.874 21.3588)"/><path d="m26.2 137.6c2.7 1.3 4.9 3.4 6.3 6l3.6 6.2c2.7 4.6 7.6 7.5 13 7.5h13.3c2.3 0 4.6.5 6.6 1.6l11.9 5.9c4.8 2.4 10.5 2 15-1l5.9-4c2.5-1.6 5.4-2.5 8.3-2.5h7.1c5.4 0 10.3-2.9 13-7.5l6.7-11.5c1.2-2 2.8-3.7 4.7-5l11.1-7.4c4.5-3 7-8.1 6.6-13.5l-.5-7.1c-.2-3 .5-5.9 2-8.5l3.6-6.2c2.7-4.6 2.7-10.4 0-15l-6.7-11.5c-1.2-2-1.8-4.2-2-6.5l-.9-13.3c-.3-5.4-3.5-10.1-8.3-12.5l-6.4-3.2c-2.7-1.3-4.9-3.4-6.3-6l-3.6-6.2c-2.7-4.6-7.6-7.5-13-7.5h-13.3c-2.3 0-4.6-.5-6.6-1.6l-11.8-5.7c-4.8-2.4-10.5-2-15 1l-5.9 4c-2.5 1.5-5.4 2.4-8.3 2.4h-7.1c-5.4 0-10.3 2.9-13 7.5l-6.7 11.5c-1.2 2-2.8 3.7-4.7 5l-11.1 7.4c-4.5 3-7 8.1-6.6 13.5l.5 7.1c.2 3-.5 5.9-2 8.5l-3.6 6.1c-2.7 4.6-2.7 10.4 0 15l6.7 11.5c1.2 2 1.8 4.2 2 6.5l.9 13.3c.3 5.4 3.5 10.1 8.3 12.5zm3.3-77.2c2.9-7 7.1-13.2 12.5-18.6s11.6-9.6 18.6-12.5c7.2-3 14.8-4.6 22.7-4.6s15.5 1.5 22.7 4.6c7 2.9 13.2 7.1 18.6 12.5s9.6 11.6 12.5 18.6c3 7.2 4.6 14.8 4.6 22.7s-1.5 15.5-4.6 22.7c-2.9 7-7.1 13.2-12.5 18.6s-11.6 9.6-18.6 12.5c-7.2 3-14.8 4.6-22.7 4.6s-15.5-1.5-22.7-4.6c-7-2.9-13.2-7.1-18.6-12.5s-9.6-11.6-12.5-18.6c-3-7.2-4.6-14.8-4.6-22.7 0-7.8 1.5-15.5 4.6-22.7z"/><path d="m87.7 171.1c-3 0-6.1-.7-8.8-2l-11.9-6c-1.4-.7-3-1.1-4.5-1.1h-13.4c-3.5 0-6.9-.9-9.9-2.7-1.7-1-3.3-2.3-4.7-3.7l-17.8 59.7c-.7 2.4 2.6 4.9 5.6 4.3l21.7-4.6c1.6-.3 3.4.2 4.6 1.3l16 15.2c2.3 2.2 6.3 1.8 7-.7l17.8-59.8c-.6 0-1.1.1-1.7.1z"/><path d="m131.9 155.8c-1.3 1.4-2.9 2.6-4.6 3.6-3 1.7-6.4 2.7-9.9 2.7h-7.1c-2 0-4 .6-5.7 1.7l-5.9 4c-.8.5-1.6 1-2.4 1.4l-7.8 26.3 27.4 52c1.2 2.3 5.2 1.8 7-.8l12.5-18.1c.9-1.3 2.6-2.2 4.2-2.2h22c3.1 0 5.8-3.1 4.6-5.3z"/></g></svg>