<svg enable-background="new 0 0 38.1 30.8" viewBox="0 0 38.1 30.8" xmlns="http://www.w3.org/2000/svg"><switch><g fill="#231f20"><path d="m28.2 14.1c-2.6 0-4.9-2.2-4.9-4.8 0-2.5 4.4-8.9 4.6-9.2.1-.1.4-.1.6 0 .2.3 4.6 6.6 4.6 9.2s-2.3 4.8-4.9 4.8zm0-13.1c-1 1.5-4.2 6.4-4.2 8.3 0 2.2 1.9 4.1 4.2 4.1s4.2-1.9 4.2-4.1c0-2-3.2-6.9-4.2-8.3z"/><path d="m28.9 29.1h-.1c-9.7-4.2-19.7-.1-19.8-.1-.2.1-.4 0-.4-.1l-8.6-14.9c0-.1-.1-.2 0-.3 0-.1.1-.2.2-.2 6.7-3.6 13.6-5.3 20.7-5 .2 0 .3.2.3.4s-.2.3-.4.3c-6.8-.3-13.5 1.3-20 4.8l8.2 14.3c1.7-.6 10.8-3.6 19.8 0l8.5-14.3c-.3-.2-.9-.5-1.7-.9-.2-.1-.2-.3-.2-.5.1-.2.3-.2.5-.2 1.3.7 2 1.1 2 1.1.2.1.2.3.1.5l-8.8 14.9c0 .1-.1.2-.3.2z"/><path d="m15.5 30.8c-.1 0-.2-.1-.3-.2l-10.1-19c-.1-.2 0-.4.1-.5.2-.1.4 0 .5.1l10.1 19c.1.2 0 .4-.1.5s-.1.1-.2.1z"/></g></switch></svg>